g Zalisk_Weapon
v -0.04259985 -0.1278046 -0.01835322
v -0.1011713 -0.1284492 -0.06702283
v -0.06135112 -0.0124472 -0.09469477
v -0.01573189 -0.009074707 -0.06383161
v -0.09403416 -0.02115402 -0.1671016
v -0.1323319 -0.1444135 -0.1464511
v -0.08218196 -0.04237709 -0.272956
v -0.1159734 -0.1488715 -0.2721944
v -0.07120342 0.07096222 -0.1776903
v -0.03516361 0.07264618 -0.1012858
v -0.02649218 0.1661002 -0.1118929
v 0.02551686 0.1647389 -0.1067862
v 0.03309562 0.07991714 -0.08844223
v -0.05637112 0.1742929 -0.1709154
v -0.05703203 0.1981903 -0.2242837
v -0.06514776 0.09326507 -0.253202
v -0.01666577 0.214744 -0.257449
v -0.007540721 0.1085184 -0.295625
v 0.08910449 0.08322372 -0.1382196
v 0.0737218 0.1661023 -0.147991
v 0.1182981 0.07381058 -0.1814456
v 0.02059637 0.2221413 -0.1109366
v -0.01753021 0.2378696 -0.1094233
v 0.01382814 0.2882379 -0.09517867
v -0.01105244 0.2916289 -0.09536114
v -0.04389047 0.2609039 -0.1432063
v -0.03305889 0.313833 -0.1183299
v -0.03318657 0.3366614 -0.1395561
v -0.04302334 0.2933151 -0.1752145
v -0.01791505 0.3033649 -0.200422
v -0.01279503 0.3512237 -0.1524103
v 0.03320142 0.2926904 -0.2007245
v 0.01575139 0.3453834 -0.1542046
v 0.06227341 0.2737189 -0.1777784
v 0.0364873 0.3304472 -0.1445385
v 0.03550664 0.3076451 -0.1174781
v 0.05424395 0.2477335 -0.1397137
v 0.09215073 0.1869723 -0.2049082
v 0.06179091 0.2024608 -0.2469212
v 0.08965742 0.09917648 -0.2774411
v 0.03976893 0.1121252 -0.2970949
v 0.02002917 0.2141641 -0.2606854
v 0.1216251 0.07764266 -0.2292715
v 0.02086091 0.3634779 -0.1098949
v 0.02408325 0.3469308 -0.09173974
v 0.00899884 0.3725976 -0.11603
v -0.00774896 0.3782974 -0.11162
v -0.02206889 0.3648733 -0.1006117
v -0.02244728 0.3523566 -0.0911629
v -0.006132151 0.3350757 -0.07708088
v 0.0078116 0.3321638 -0.07818481
v -0.002497598 0.3781753 -0.05252858
v -0.004859476 0.3947178 -0.06522513
v -0.01080299 0.3893631 -0.0568846
v 0.007435942 0.3934415 -0.0673967
v 0.008076456 0.3830264 -0.05933942
v 0.004640947 -0.1469729 -0.3572263
v 3.978889E-05 -0.05694153 -0.3362392
v -0.002029425 0.0331546 -0.3162104
v 0.05307815 0.03313141 -0.3189463
v 0.06513261 -0.06020744 -0.3395313
v 0.07654842 -0.1570341 -0.3577651
v 0.132393 -0.09805237 -0.307741
v 0.1526354 -0.2066474 -0.3148664
v 0.1847271 -0.2205301 -0.2381779
v 0.1450251 -0.02350746 -0.2356953
v 0.1386578 -0.0181823 -0.1705842
v 0.1084123 0.01476669 -0.2928599
v 0.1716509 -0.1812722 -0.1448836
v 0.1009174 0.005013428 -0.1143554
v 0.1166266 -0.1418539 -0.06864017
v 0.03237874 0.008634948 -0.05961974
v 0.02868214 -0.1434175 0.004446939
v 0.1070471 -0.1790656 -0.08085275
v 0.1555946 -0.213541 -0.1490816
v 0.02844119 -0.1791981 -0.0167899
v 0.1670501 -0.2489951 -0.2315216
v -0.03491788 -0.1649902 -0.03681401
v -0.08684064 -0.1655771 -0.07972047
v -0.1142436 -0.1801032 -0.1499588
v -0.09944265 -0.184155 -0.2612616
v 0.007838272 -0.18243 -0.3367311
v 0.1387713 -0.2364764 -0.2993904
v 0.07164264 -0.1915687 -0.3373528
v -0.002497598 0.3781753 -0.05252858
v -0.0006254895 0.392572 -0.05077233
v 0.008076456 0.3830264 -0.05933942
v -0.01080299 0.3893631 -0.0568846
v -0.004859476 0.3947178 -0.06522513
v 0.007435942 0.3934415 -0.0673967
v -0.03491788 -0.1649902 -0.03681401
v 0.02979834 -0.2516811 -0.1798782
v -0.08684064 -0.1655771 -0.07972047
v -0.1142436 -0.1801032 -0.1499588
v -0.09944265 -0.184155 -0.2612616
v 0.007838272 -0.18243 -0.3367311
v 0.02844119 -0.1791981 -0.0167899
v 0.1070471 -0.1790656 -0.08085275
v 0.1555946 -0.213541 -0.1490816
v 0.1670501 -0.2489951 -0.2315216
v 0.1387713 -0.2364764 -0.2993904
v 0.07164264 -0.1915687 -0.3373528
vt 0.2881582 0.2495802
vt 0.2595968 0.2339282
vt 0.2604194 0.2401481
vt 0.2833458 0.2545981
vt 0.2180201 0.244237
vt 0.217667 0.2355877
vt 0.1930231 0.2807394
vt 0.184899 0.2757285
vt 0.2229047 0.2522839
vt 0.2641143 0.2512912
vt 0.2600375 0.2615553
vt 0.2765998 0.2809079
vt 0.2862297 0.2766665
vt 0.2305064 0.262723
vt 0.2186583 0.2818584
vt 0.204304 0.2823249
vt 0.2199413 0.2984478
vt 0.208791 0.3078162
vt 0.2832746 0.3084069
vt 0.2733611 0.3071691
vt 0.2714217 0.3252594
vt 0.2695443 0.2830372
vt 0.2570814 0.2701885
vt 0.2618535 0.2845613
vt 0.2550537 0.2762974
vt 0.2388671 0.272387
vt 0.243846 0.2779844
vt 0.2400809 0.2841946
vt 0.2332149 0.2838715
vt 0.2331474 0.2933461
vt 0.2408043 0.2903621
vt 0.2404484 0.3038541
vt 0.2446303 0.2959923
vt 0.2506309 0.307016
vt 0.2498187 0.2983537
vt 0.2583007 0.2953026
vt 0.2642593 0.3006618
vt 0.2541196 0.3193731
vt 0.2365897 0.3173105
vt 0.2334685 0.3304614
vt 0.217669 0.3198086
vt 0.2253726 0.308267
vt 0.2544519 0.333317
vt 0.2501596 0.2928665
vt 0.2550434 0.2909747
vt 0.2473009 0.2916284
vt 0.2456062 0.2883707
vt 0.2457122 0.2843848
vt 0.2474443 0.2820534
vt 0.2534966 0.2810243
vt 0.2568731 0.2849881
vt 0.2519917 0.2851355
vt 0.2498471 0.2867473
vt 0.250389 0.2857431
vt 0.250544 0.2879341
vt 0.2520741 0.2870913
vt 0.1901655 0.3223152
vt 0.1955916 0.3184814
vt 0.2004986 0.3147864
vt 0.2131737 0.3298896
vt 0.2109649 0.3360677
vt 0.2093511 0.3431855
vt 0.2355869 0.3508637
vt 0.2379568 0.3580294
vt 0.2649762 0.3560376
vt 0.258728 0.3478442
vt 0.2789192 0.3332267
vt 0.2338956 0.343429
vt 0.2896096 0.3373638
vt 0.292111 0.3094363
vt 0.3021525 0.3046381
vt 0.2958632 0.2721937
vt 0.3027686 0.2666193
vt 0.3021525 0.3046381
vt 0.2896096 0.3373638
vt 0.3027686 0.2666193
vt 0.2649762 0.3560376
vt 0.2881582 0.2495802
vt 0.2595968 0.2339282
vt 0.217667 0.2355877
vt 0.184899 0.2757285
vt 0.1901655 0.3223152
vt 0.2379568 0.3580294
vt 0.2093511 0.3431855
vt 0.2519917 0.2851355
vt 0.2511651 0.2864101
vt 0.2520741 0.2870913
vt 0.250389 0.2857431
vt 0.2498471 0.2867473
vt 0.250544 0.2879341
vt 0.2980635 0.3769478
vt 0.2761097 0.404888
vt 0.281736 0.3680001
vt 0.2577664 0.3689488
vt 0.2390343 0.3918957
vt 0.2420449 0.4185275
vt 0.3064157 0.3866884
vt 0.3060634 0.4084222
vt 0.2988932 0.4271302
vt 0.2848112 0.4378052
vt 0.2693653 0.4389438
vt 0.2530125 0.4304582
vn -0.4729974 -0.01051761 0.8810011
vn -0.7983963 -0.01860705 0.6018447
vn -0.7538677 0.3296255 0.5683577
vn -0.3719895 0.3600182 0.8555762
vn -0.9527163 0.2815991 0.114165
vn -0.9853842 -0.08624934 0.1468984
vn -0.8252004 0.221778 -0.5194793
vn -0.8580963 -0.1222629 -0.4987209
vn -0.9686298 0.1800847 0.1712476
vn -0.6081982 0.2532482 0.7523034
vn -0.5635035 0.08979461 0.8212191
vn 0.2951673 0.1330721 0.9461332
vn 0.260637 0.2900364 0.9208405
vn -0.9649605 0.09456971 0.2447608
vn -0.8999724 0.23403 -0.3678039
vn -0.8705745 0.1893294 -0.4541523
vn -0.3877093 0.4009756 -0.83
vn -0.3524511 0.2626099 -0.8982284
vn 0.7451003 0.2476983 0.6192505
vn 0.7903993 0.2037378 0.5777195
vn 0.9251135 0.2456079 0.2895545
vn 0.3482042 -0.02328326 0.9371295
vn -0.503717 -0.090405 0.8591252
vn 0.3848352 -0.2236261 0.8954849
vn -0.4647552 -0.2407408 0.8520836
vn -0.9426321 0.04488715 0.3308016
vn -0.9264969 0.007248088 0.3762326
vn -0.899679 0.4092435 -0.1519786
vn -0.9069594 0.3358039 -0.2542841
vn -0.3293974 0.60878 -0.7217232
vn -0.3175324 0.7572802 -0.5707013
vn 0.452395 0.609713 -0.6508371
vn 0.4040443 0.7263141 -0.556072
vn 0.9120362 0.3982182 -0.09804267
vn 0.8717605 0.4736599 -0.1252189
vn 0.8855153 0.06400909 0.4601798
vn 0.8371969 0.1131643 0.5350657
vn 0.9376978 0.3396173 -0.07336881
vn 0.6166788 0.4269162 -0.6614
vn 0.6681218 0.3222539 -0.6706458
vn 0.1903509 0.3219248 -0.9274324
vn 0.1598754 0.4556066 -0.8757068
vn 0.9442477 0.2677775 -0.1915498
vn 0.8577104 0.5037328 -0.1028896
vn 0.9087323 0.03293275 0.4160782
vn 0.403061 0.8103721 -0.4252515
vn -0.320363 0.8630701 -0.3904836
vn -0.9030856 0.4272411 -0.04360535
vn -0.9200423 -0.03597724 0.3901637
vn -0.4457988 -0.364401 0.8176033
vn 0.3943395 -0.3405155 0.8535488
vn -0.07020947 -0.3066585 0.9492266
vn -0.3083545 0.946632 -0.09383729
vn -0.8051485 0.3821107 0.4535718
vn 0.6264457 0.7794643 -0.001054331
vn 0.8502206 0.0605547 0.5229322
vn -0.301125 -0.1365776 -0.9437533
vn -0.3184615 0.1954622 -0.927565
vn -0.3305566 0.2162624 -0.9186745
vn 0.2227442 0.2570288 -0.9403836
vn 0.2557364 0.2204254 -0.9412819
vn 0.211626 -0.1196592 -0.969998
vn 0.7505584 0.2100788 -0.6265214
vn 0.6665468 -0.2272111 -0.7099933
vn 0.9665505 -0.2306722 -0.1121182
vn 0.9585689 0.2270622 -0.1720125
vn 0.9311285 0.2350549 0.2788349
vn 0.7065789 0.2586423 -0.6586733
vn 0.9068385 -0.1036859 0.4085257
vn 0.7381722 0.2786946 0.6143543
vn 0.7259027 -0.02278824 0.6874198
vn 0.2208031 0.3715026 0.9017937
vn 0.1554428 -0.08757016 0.9839558
vn 0.4801572 -0.6294141 0.6109721
vn 0.5306063 -0.6840235 0.5005684
vn 0.0825884 -0.7092245 0.7001284
vn 0.5199147 -0.8540502 0.0169406
vn -0.4142918 -0.6695583 0.6164852
vn -0.5696048 -0.6635364 0.4850461
vn -0.6969149 -0.6995201 0.1580548
vn -0.6133623 -0.703203 -0.3595723
vn -0.2641988 -0.7021249 -0.6612259
vn 0.2194523 -0.8173251 -0.5327479
vn -0.06783304 -0.7014813 -0.7094524
vn -0.07020947 -0.3066585 0.9492266
vn 0.1223323 0.5487564 0.8269832
vn 0.8502206 0.0605547 0.5229322
vn -0.8051485 0.3821107 0.4535718
vn -0.3083545 0.946632 -0.09383729
vn 0.6264457 0.7794643 -0.001054331
vn -0.4142918 -0.6695583 0.6164852
vn -0.1423378 -0.9849275 0.09827359
vn -0.5696048 -0.6635364 0.4850461
vn -0.6969149 -0.6995201 0.1580548
vn -0.6133623 -0.703203 -0.3595723
vn -0.2641988 -0.7021249 -0.6612259
vn 0.0825884 -0.7092245 0.7001284
vn 0.4801572 -0.6294141 0.6109721
vn 0.5306063 -0.6840235 0.5005684
vn 0.5199147 -0.8540502 0.0169406
vn 0.2194523 -0.8173251 -0.5327479
vn -0.06783304 -0.7014813 -0.7094524
f 3/3/3 2/2/2 1/1/1
f 4/4/4 3/3/3 1/1/1
f 3/3/3 5/5/5 2/2/2
f 5/5/5 6/6/6 2/2/2
f 5/5/5 7/7/7 6/6/6
f 7/7/7 8/8/8 6/6/6
f 9/9/9 5/5/5 3/3/3
f 10/10/10 9/9/9 3/3/3
f 3/3/3 4/4/4 10/10/10
f 10/10/10 11/11/11 9/9/9
f 12/12/12 11/11/11 10/10/10
f 13/13/13 12/12/12 10/10/10
f 10/10/10 4/4/4 13/13/13
f 11/11/11 14/14/14 9/9/9
f 14/14/14 15/15/15 9/9/9
f 15/15/15 16/16/16 9/9/9
f 16/16/16 7/7/7 5/5/5
f 9/9/9 16/16/16 5/5/5
f 15/15/15 17/17/17 16/16/16
f 17/17/17 18/18/18 16/16/16
f 12/12/12 13/13/13 19/19/19
f 20/20/20 12/12/12 19/19/19
f 21/21/21 20/20/20 19/19/19
f 11/11/11 12/12/12 22/22/22
f 22/22/22 12/12/12 20/20/20
f 23/23/23 11/11/11 22/22/22
f 14/14/14 11/11/11 23/23/23
f 23/23/23 22/22/22 24/24/24
f 25/25/25 23/23/23 24/24/24
f 26/26/26 23/23/23 25/25/25
f 26/26/26 14/14/14 23/23/23
f 15/15/15 14/14/14 26/26/26
f 27/27/27 26/26/26 25/25/25
f 27/27/27 28/28/28 26/26/26
f 28/28/28 29/29/29 26/26/26
f 17/17/17 15/15/15 29/29/29
f 29/29/29 15/15/15 26/26/26
f 30/30/30 29/29/29 28/28/28
f 30/30/30 17/17/17 29/29/29
f 31/31/31 30/30/30 28/28/28
f 32/32/32 30/30/30 31/31/31
f 33/33/33 32/32/32 31/31/31
f 34/34/34 32/32/32 33/33/33
f 35/35/35 34/34/34 33/33/33
f 35/35/35 36/36/36 34/34/34
f 36/36/36 37/37/37 34/34/34
f 24/24/24 22/22/22 37/37/37
f 36/36/36 24/24/24 37/37/37
f 34/34/34 37/37/37 38/38/38
f 37/37/37 20/20/20 38/38/38
f 34/34/34 38/38/38 39/39/39
f 32/32/32 34/34/34 39/39/39
f 39/39/39 38/38/38 40/40/40
f 39/39/39 40/40/40 41/41/41
f 42/42/42 39/39/39 41/41/41
f 39/39/39 42/42/42 32/32/32
f 32/32/32 42/42/42 30/30/30
f 38/38/38 43/43/43 40/40/40
f 30/30/30 42/42/42 17/17/17
f 37/37/37 22/22/22 20/20/20
f 36/36/36 35/35/35 44/44/44
f 45/45/45 36/36/36 44/44/44
f 35/35/35 33/33/33 46/46/46
f 44/44/44 35/35/35 46/46/46
f 46/46/46 33/33/33 31/31/31
f 47/47/47 46/46/46 31/31/31
f 47/47/47 31/31/31 28/28/28
f 48/48/48 47/47/47 28/28/28
f 48/48/48 28/28/28 27/27/27
f 49/49/49 48/48/48 27/27/27
f 49/49/49 27/27/27 50/50/50
f 27/27/27 25/25/25 50/50/50
f 50/50/50 25/25/25 51/51/51
f 25/25/25 24/24/24 51/51/51
f 51/51/51 24/24/24 45/45/45
f 24/24/24 36/36/36 45/45/45
f 52/52/52 50/50/50 51/51/51
f 49/49/49 50/50/50 52/52/52
f 53/53/53 47/47/47 48/48/48
f 54/54/54 53/53/53 48/48/48
f 54/54/54 49/49/49 52/52/52
f 54/54/54 48/48/48 49/49/49
f 55/55/55 46/46/46 47/47/47
f 53/53/53 55/55/55 47/47/47
f 52/52/52 51/51/51 56/56/56
f 56/56/56 45/45/45 55/55/55
f 51/51/51 45/45/45 56/56/56
f 45/45/45 44/44/44 55/55/55
f 55/55/55 44/44/44 46/46/46
f 8/8/8 58/58/58 57/57/57
f 7/7/7 58/58/58 8/8/8
f 59/59/59 58/58/58 7/7/7
f 59/59/59 7/7/7 16/16/16
f 18/18/18 59/59/59 16/16/16
f 18/18/18 41/41/41 59/59/59
f 41/41/41 60/60/60 59/59/59
f 59/59/59 60/60/60 58/58/58
f 60/60/60 61/61/61 58/58/58
f 58/58/58 61/61/61 57/57/57
f 61/61/61 62/62/62 57/57/57
f 61/61/61 63/63/63 62/62/62
f 63/63/63 64/64/64 62/62/62
f 64/64/64 63/63/63 65/65/65
f 63/63/63 66/66/66 65/65/65
f 66/66/66 67/67/67 65/65/65
f 67/67/67 66/66/66 43/43/43
f 21/21/21 67/67/67 43/43/43
f 43/43/43 66/66/66 68/68/68
f 68/68/68 66/66/66 63/63/63
f 61/61/61 60/60/60 68/68/68
f 63/63/63 61/61/61 68/68/68
f 40/40/40 43/43/43 68/68/68
f 60/60/60 41/41/41 40/40/40
f 68/68/68 60/60/60 40/40/40
f 67/67/67 69/69/69 65/65/65
f 67/67/67 70/70/70 69/69/69
f 70/70/70 67/67/67 21/21/21
f 70/70/70 71/71/71 69/69/69
f 70/70/70 72/72/72 71/71/71
f 72/72/72 73/73/73 71/71/71
f 13/13/13 72/72/72 70/70/70
f 13/13/13 4/4/4 72/72/72
f 72/72/72 4/4/4 73/73/73
f 19/19/19 13/13/13 70/70/70
f 19/19/19 70/70/70 21/21/21
f 43/43/43 38/38/38 21/21/21
f 38/38/38 20/20/20 21/21/21
f 4/4/4 1/1/1 73/73/73
f 71/71/71 74/74/74 69/69/69
f 74/74/74 75/75/75 69/69/69
f 76/76/76 74/74/74 71/71/71
f 73/73/73 76/76/76 71/71/71
f 69/69/69 75/75/75 65/65/65
f 75/75/75 77/77/77 65/65/65
f 78/78/78 76/76/76 73/73/73
f 1/1/1 78/78/78 73/73/73
f 79/79/79 78/78/78 1/1/1
f 2/2/2 79/79/79 1/1/1
f 80/80/80 79/79/79 2/2/2
f 6/6/6 80/80/80 2/2/2
f 81/81/81 80/80/80 6/6/6
f 8/8/8 81/81/81 6/6/6
f 82/82/82 81/81/81 8/8/8
f 57/57/57 82/82/82 8/8/8
f 65/65/65 77/77/77 64/64/64
f 77/77/77 83/83/83 64/64/64
f 64/64/64 83/83/83 62/62/62
f 83/83/83 84/84/84 62/62/62
f 84/84/84 82/82/82 57/57/57
f 62/62/62 84/84/84 57/57/57
f 87/87/87 86/86/86 85/85/85
f 85/85/85 86/86/86 88/88/88
f 88/88/88 86/86/86 89/89/89
f 90/90/90 86/86/86 87/87/87
f 89/89/89 86/86/86 90/90/90
f 42/42/42 41/41/41 18/18/18
f 17/17/17 42/42/42 18/18/18
f 93/93/93 92/92/92 91/91/91
f 94/94/94 92/92/92 93/93/93
f 95/95/95 92/92/92 94/94/94
f 96/96/96 92/92/92 95/95/95
f 91/91/91 92/92/92 97/97/97
f 97/97/97 92/92/92 98/98/98
f 98/98/98 92/92/92 99/99/99
f 99/99/99 92/92/92 100/100/100
f 100/100/100 92/92/92 101/101/101
f 101/101/101 92/92/92 102/102/102
f 102/102/102 92/92/92 96/96/96
