g Sphere001
v -0.007060442 0 0.07790656
v -0.07288788 0.04197111 0.06714937
v -0.003530226 0.04273221 0.05467233
v -0.08871566 0 0.06748102
v -0.07288785 -0.04197112 0.06714939
v -0.003530245 -0.04273217 0.05467233
v 0.05964947 -0.02799573 0.04818237
v 0.08063117 -3.33786E-08 0.04096913
v 0.05964957 0.02799571 0.04818236
v -0.1015097 0.06454343 0
v -1.907349E-08 0.0604324 -1.907349E-08
v -0.1300312 -1.430511E-08 -1.907349E-08
v -0.1015097 0.06454343 0
v -0.1015097 -0.06454351 -1.907349E-08
v 9.536743E-09 -0.06043242 9.536743E-09
v -0.1015097 -0.06454351 -1.907349E-08
v 0.090919 -0.03659267 -1.907349E-08
v 0.1148862 -4.291534E-08 -9.536743E-09
v 0.090919 -0.03659267 -1.907349E-08
v 0.09091903 0.03659262 -9.536743E-09
v 0.09091903 0.03659262 -9.536743E-09
v -1.907349E-08 0.0604324 -1.907349E-08
v -0.1015097 0.06454343 0
v -0.07288788 0.04197112 -0.06714938
v -0.003530245 0.04273219 -0.05467235
v 0.09091903 0.03659262 -9.536743E-09
v 0.05964957 0.02799571 -0.04818238
v -0.007060442 9.536743E-09 -0.07790656
v -0.08871565 1.907349E-08 -0.06748103
v -0.1015097 0.06454343 0
v -0.1300312 -1.430511E-08 -1.907349E-08
v -0.07288785 -0.0419711 -0.06714938
v -0.1015097 -0.06454351 -1.907349E-08
v -0.003530254 -0.04273217 -0.05467235
v -0.1015097 -0.06454351 -1.907349E-08
v 9.536743E-09 -0.06043242 9.536743E-09
v 0.05964949 -0.02799571 -0.04818239
v 0.090919 -0.03659267 -1.907349E-08
v 0.08063115 -1.907349E-08 -0.04096916
v 0.1148862 -4.291534E-08 -9.536743E-09
v 0.090919 -0.03659267 -1.907349E-08
v 0.09091903 0.03659262 -9.536743E-09
vt 0.5020887 0.5000001
vt 0.2335832 0.8248138
vt 0.5164882 0.8307037
vt 0.1690228 0.5000002
vt 0.2335832 0.1751867
vt 0.516488 0.1692968
vt 0.7741936 0.2833416
vt 0.8597766 0.4999997
vt 0.7741941 0.7166581
vt 0.1168369 0.9995005
vt 0.5308877 0.9676851
vt 0.0004995167 0.5000002
vt 0.1168369 0.9995005
vt 0.1168368 0.0004994869
vt 0.5308877 0.0323149
vt 0.1168368 0.0004994869
vt 0.9017399 0.2168101
vt 0.9995005 0.4999996
vt 0.9017399 0.2168101
vt 0.90174 0.7831894
vt 0.90174 0.7831894
vt 0.5308877 0.967685
vt 0.1168369 0.9995004
vt 0.2335832 0.8248138
vt 0.5164881 0.8307035
vt 0.90174 0.7831894
vt 0.7741941 0.7166582
vt 0.5020887 0.5000002
vt 0.1690228 0.5000004
vt 0.1168369 0.9995004
vt 0.0004995167 0.5000002
vt 0.2335833 0.1751868
vt 0.1168368 0.0004995465
vt 0.516488 0.1692968
vt 0.1168368 0.0004995465
vt 0.5308877 0.03231496
vt 0.7741938 0.2833418
vt 0.9017399 0.2168101
vt 0.8597765 0.4999998
vt 0.9995005 0.4999996
vt 0.9017399 0.2168101
vt 0.90174 0.7831894
vn 0.1567867 -1.586792E-07 0.9876325
vn -0.3131135 0.5964896 0.7390264
vn 0.1639364 0.7688341 0.6180768
vn -0.6105335 0 0.7919905
vn -0.3131132 -0.5964894 0.7390268
vn 0.1639365 -0.7688339 0.618077
vn 0.4299802 -0.562084 0.7065257
vn 0.6756271 -7.696449E-07 0.7372435
vn 0.429981 0.5620837 0.7065256
vn -0.5741986 0.818716 0
vn 0.151283 0.9884905 -1.077476E-07
vn -1 0 -1.624561E-07
vn -0.5741986 0.818716 0
vn -0.5741983 -0.8187162 -1.440722E-07
vn 0.1512832 -0.9884905 0
vn -0.5741983 -0.8187162 -1.440722E-07
vn 0.6537975 -0.7566696 -1.567325E-07
vn 1 -7.128099E-07 0
vn 0.6537975 -0.7566696 -1.567325E-07
vn 0.6537981 0.756669 0
vn 0.6537981 0.756669 0
vn 0.151283 0.9884905 -1.077476E-07
vn -0.5741986 0.818716 0
vn -0.3131134 0.5964897 -0.7390264
vn 0.1639363 0.7688342 -0.6180769
vn 0.6537981 0.756669 0
vn 0.4299808 0.5620837 -0.7065256
vn 0.1567866 0 -0.9876325
vn -0.6105333 1.08543E-07 -0.7919906
vn -0.5741986 0.818716 0
vn -1 0 -1.624561E-07
vn -0.3131131 -0.5964894 -0.7390268
vn -0.5741983 -0.8187162 -1.440722E-07
vn 0.1639363 -0.7688338 -0.6180772
vn -0.5741983 -0.8187162 -1.440722E-07
vn 0.1512832 -0.9884905 0
vn 0.4299802 -0.5620837 -0.7065259
vn 0.6537975 -0.7566696 -1.567325E-07
vn 0.675627 -4.092126E-07 -0.7372436
vn 1 -7.128099E-07 0
vn 0.6537975 -0.7566696 -1.567325E-07
vn 0.6537981 0.756669 0
f 3/3/3 2/2/2 1/1/1
f 2/2/2 4/4/4 1/1/1
f 4/4/4 5/5/5 1/1/1
f 5/5/5 6/6/6 1/1/1
f 6/6/6 7/7/7 1/1/1
f 7/7/7 8/8/8 1/1/1
f 8/8/8 9/9/9 1/1/1
f 9/9/9 3/3/3 1/1/1
f 10/10/10 2/2/2 3/3/3
f 11/11/11 10/10/10 3/3/3
f 11/11/11 3/3/3 9/9/9
f 12/12/12 4/4/4 2/2/2
f 13/13/13 12/12/12 2/2/2
f 14/14/14 5/5/5 4/4/4
f 12/12/12 14/14/14 4/4/4
f 15/15/15 6/6/6 5/5/5
f 16/16/16 15/15/15 5/5/5
f 17/17/17 7/7/7 6/6/6
f 15/15/15 17/17/17 6/6/6
f 18/18/18 8/8/8 7/7/7
f 19/19/19 18/18/18 7/7/7
f 20/20/20 9/9/9 8/8/8
f 18/18/18 21/21/21 8/8/8
f 21/21/21 11/11/11 9/9/9
f 24/24/24 23/23/23 22/22/22
f 25/25/25 24/24/24 22/22/22
f 25/25/25 22/22/22 26/26/26
f 27/27/27 25/25/25 26/26/26
f 24/24/24 25/25/25 28/28/28
f 25/25/25 27/27/27 28/28/28
f 29/29/29 24/24/24 28/28/28
f 24/24/24 29/29/29 30/30/30
f 29/29/29 31/31/31 30/30/30
f 29/29/29 32/32/32 31/31/31
f 32/32/32 29/29/29 28/28/28
f 32/32/32 33/33/33 31/31/31
f 34/34/34 32/32/32 28/28/28
f 32/32/32 34/34/34 35/35/35
f 34/34/34 36/36/36 35/35/35
f 34/34/34 37/37/37 36/36/36
f 37/37/37 34/34/34 28/28/28
f 37/37/37 38/38/38 36/36/36
f 39/39/39 37/37/37 28/28/28
f 27/27/27 39/39/39 28/28/28
f 39/39/39 40/40/40 38/38/38
f 39/39/39 27/27/27 40/40/40
f 37/37/37 39/39/39 41/41/41
f 27/27/27 42/42/42 40/40/40
