g Hohenheim_BulletCase_01A
v 0.0743055 0.02713619 1.525879E-07
v -0.0743055 0.02725784 0
v -0.0743055 0.01914174 -0.01959404
v 0.0743055 0.01905571 -0.01950798
v 0.0743055 -4.768371E-09 -0.02739922
v -0.07430534 -4.768371E-09 -0.02752106
v 0.0743055 0.01905571 0.01950806
v -0.0743055 0.01914174 0.01959412
v -0.07430534 -4.768371E-09 0.02752113
v 0.0743055 -4.768371E-09 0.02739952
v 0.0743055 -0.02713619 1.525879E-07
v 0.0743055 -0.01905571 -0.01950798
v -0.0743055 -0.01914174 -0.01959404
v -0.0743055 -0.02725784 0
v 0.0743055 -4.768371E-09 -0.02739922
v -0.07430534 -4.768371E-09 -0.02752106
v 0.0743055 -0.01905571 0.01950806
v -0.0743055 -0.01914174 0.01959412
v -0.07430534 -4.768371E-09 0.02752113
v 0.0743055 -4.768371E-09 0.02739952
v 0.0743055 0.02713619 1.525879E-07
v 0.0743055 0.01905571 -0.01950798
v 0.0743055 0.01905571 0.01950806
v 0.0743055 -4.768371E-09 0.02739952
v 0.0743055 -4.768371E-09 -0.02739922
v -0.0743055 0.01914174 -0.01959404
v -0.0743055 0.02725784 0
v -0.0743055 0.01914174 0.01959412
v -0.07430534 -4.768371E-09 -0.02752106
v -0.07430534 -4.768371E-09 0.02752113
v 0.0743055 -0.01905571 0.01950806
v 0.0743055 -4.768371E-09 0.02739952
v 0.0743055 -4.768371E-09 -0.02739922
v 0.0743055 -0.01905571 -0.01950798
v 0.0743055 -0.02713619 1.525879E-07
v -0.0743055 -0.01914174 -0.01959404
v -0.07430534 -4.768371E-09 -0.02752106
v -0.07430534 -4.768371E-09 0.02752113
v -0.0743055 -0.01914174 0.01959412
v -0.0743055 -0.02725784 0
vt 0.4296397 0.1061251
vt 0.3849986 0.1188479
vt 0.383185 0.1124766
vt 0.4278339 0.09978175
vt 0.4260744 0.09358561
vt 0.3814175 0.1062525
vt 0.4314494 0.1124673
vt 0.3868162 0.1252181
vt 0.3885956 0.1314388
vt 0.4332206 0.1186599
vt 0.4296397 0.1061251
vt 0.4278339 0.09978175
vt 0.383185 0.1124766
vt 0.3849986 0.1188479
vt 0.4260744 0.09358561
vt 0.3814175 0.1062525
vt 0.4314494 0.1124673
vt 0.3868162 0.1252181
vt 0.3885956 0.1314388
vt 0.4332206 0.1186599
vt 0.2576946 0.02924058
vt 0.2760413 0.02157518
vt 0.2393015 0.02168784
vt 0.2318154 0.003766688
vt 0.283417 0.003608319
vt 0.3128865 0.0220669
vt 0.33139 0.02958143
vt 0.3497874 0.02181077
vt 0.3052972 0.00409426
vt 0.3571267 0.003734587
vt 0.2393015 0.02168784
vt 0.2318154 0.003766688
vt 0.283417 0.003608319
vt 0.2760413 0.02157518
vt 0.2576946 0.02924058
vt 0.3497874 0.02181077
vt 0.3571267 0.003734587
vt 0.3052972 0.00409426
vt 0.3128865 0.0220669
vt 0.33139 0.02958143
vn 0.00081867 0.9999996 9.649971E-07
vn 0.00081867 0.9999996 4.518809E-07
vn 0.0008191405 0.7070789 -0.7071342
vn 0.0008191405 0.7070782 -0.7071348
vn 0.0008193459 0 -0.9999996
vn 0.0008193461 0 -0.9999996
vn 0.0008185445 0.7070795 0.7071336
vn 0.0008185444 0.7070802 0.7071329
vn 0.0008185781 0 0.9999996
vn 0.0008185781 0 0.9999996
vn 0.0008186759 -0.9999996 8.418061E-07
vn 0.000819146 -0.7070783 -0.7071348
vn 0.0008191459 -0.7070789 -0.7071342
vn 0.0008186758 -0.9999996 3.286407E-07
vn 0.0008193459 0 -0.9999996
vn 0.0008193461 0 -0.9999996
vn 0.0008185474 -0.7070796 0.7071335
vn 0.0008185475 -0.7070802 0.7071329
vn 0.0008185781 0 0.9999996
vn 0.0008185781 0 0.9999996
vn 1 0 0
vn 1 0 0
vn 1 0 0
vn 1 0 0
vn 1 0 0
vn -1 -6.642851E-06 0
vn -1 0 0
vn -1 -6.642854E-06 0
vn -1 0 0
vn -1 0 0
vn 1 0 0
vn 1 0 0
vn 1 0 0
vn 1 0 0
vn 1 0 0
vn -1 6.642854E-06 0
vn -1 0 0
vn -1 0 0
vn -1 6.642858E-06 0
vn -1 0 0
f 3/3/3 2/2/2 1/1/1
f 4/4/4 3/3/3 1/1/1
f 3/3/3 4/4/4 5/5/5
f 6/6/6 3/3/3 5/5/5
f 1/1/1 2/2/2 7/7/7
f 2/2/2 8/8/8 7/7/7
f 8/8/8 9/9/9 7/7/7
f 9/9/9 10/10/10 7/7/7
f 13/13/13 12/12/12 11/11/11
f 14/14/14 13/13/13 11/11/11
f 15/15/15 12/12/12 13/13/13
f 16/16/16 15/15/15 13/13/13
f 14/14/14 11/11/11 17/17/17
f 18/18/18 14/14/14 17/17/17
f 18/18/18 17/17/17 19/19/19
f 17/17/17 20/20/20 19/19/19
f 23/23/23 22/22/22 21/21/21
f 22/22/22 23/23/23 24/24/24
f 25/25/25 22/22/22 24/24/24
f 28/28/28 27/27/27 26/26/26
f 28/28/28 26/26/26 29/29/29
f 30/30/30 28/28/28 29/29/29
f 33/33/33 32/32/32 31/31/31
f 34/34/34 33/33/33 31/31/31
f 35/35/35 34/34/34 31/31/31
f 38/38/38 37/37/37 36/36/36
f 39/39/39 38/38/38 36/36/36
f 40/40/40 39/39/39 36/36/36
