g PT_Sugar_Candy_01A
v 3.814697E-08 1.788139E-09 0.03890549
v -0.009726333 0.01684657 0.03369312
v 3.814697E-08 0.01945275 0.03369312
v -0.01684654 0.02917911 0.01945274
v 3.814697E-08 0.03369314 0.01945274
v -0.02917908 0.01684657 0.01945274
v -0.01684654 0.009726373 0.03369312
v 3.814697E-08 1.788139E-09 0.03890549
v -0.03369308 6.854534E-09 0.01945274
v -0.0194527 4.768371E-09 0.03369312
v 3.814697E-08 1.788139E-09 0.03890549
v -0.02917908 -0.01684656 0.01945274
v -0.01684654 -0.009726366 0.03369312
v 3.814697E-08 1.788139E-09 0.03890549
v -0.01684654 -0.02917911 0.01945274
v -0.009726333 -0.01684656 0.03369312
v 3.814697E-08 1.788139E-09 0.03890549
v 3.814697E-08 -0.03369313 0.01945274
v 3.814697E-08 -0.01945274 0.03369312
v 3.814697E-08 1.788139E-09 0.03890549
v 0.01684658 -0.02917912 0.01945274
v 0.00972641 -0.01684657 0.03369312
v 3.814697E-08 1.788139E-09 0.03890549
v 0.02917915 -0.01684659 0.01945274
v 0.01684662 -0.00972638 0.03369312
v 3.814697E-08 1.788139E-09 0.03890549
v 0.03369316 -2.44379E-08 0.01945274
v 0.01945278 -1.341104E-08 0.03369312
v 3.814697E-08 1.788139E-09 0.03890549
v 0.02917915 0.01684655 0.01945274
v 0.01684662 0.009726357 0.03369312
v 3.814697E-08 1.788139E-09 0.03890549
v 0.01684662 0.0291791 0.01945274
v 0.00972641 0.01684656 0.03369312
v 3.814697E-08 1.788139E-09 0.03890549
v 3.814697E-08 0.03369314 0.01945274
v 3.814697E-08 0.01945275 0.03369312
v 3.814697E-08 1.788139E-09 0.03890549
v 0.03813293 -2.771616E-08 0.008185729
v 0.03302406 -0.01906646 0.008185729
v 0.0330241 0.01906641 0.008185729
v 0.01906651 0.03302403 0.008185729
v 3.814697E-08 0.03813288 0.008185729
v 0.01906647 -0.03302405 0.008185729
v 3.814697E-08 -0.03813287 0.008185729
v -0.01906643 -0.03302404 0.008185729
v -0.03302402 -0.01906643 0.008185729
v -0.03813286 7.748604E-09 0.008185729
v -0.03302399 0.01906644 0.008185729
v -0.01906639 0.03302405 0.008185729
v 3.814697E-08 0.03813288 0.008185729
v 3.814697E-08 0.03813288 -0.008185729
v -0.01906639 0.03302404 -0.008185729
v -0.01684654 0.02917911 -0.01945274
v 3.814697E-08 0.03369313 -0.01945274
v -0.02917908 0.01684657 -0.01945274
v -0.03302399 0.01906645 -0.008185729
v -0.03369308 6.854534E-09 -0.01945274
v -0.03813286 7.748604E-09 -0.008185729
v -0.02917908 -0.01684656 -0.01945274
v -0.03302402 -0.01906643 -0.008185729
v -0.01684654 -0.02917911 -0.01945274
v -0.01906643 -0.03302404 -0.008185729
v 3.814697E-08 -0.03369313 -0.01945274
v 3.814697E-08 -0.03813287 -0.008185729
v 0.01684658 -0.02917912 -0.01945274
v 0.01906647 -0.03302405 -0.008185729
v 0.02917915 -0.01684659 -0.01945274
v 0.03302406 -0.01906646 -0.008185729
v 0.03369316 -2.44379E-08 -0.01945274
v 0.03813293 -2.771616E-08 -0.008185729
v 0.02917915 0.01684654 -0.01945274
v 0.0330241 0.01906641 -0.008185729
v 0.01684662 0.0291791 -0.01945274
v 0.01906651 0.03302403 -0.008185729
v 3.814697E-08 0.03369313 -0.01945274
v 3.814697E-08 0.03813288 -0.008185729
v 3.814697E-08 -0.01945274 -0.03369314
v 0.00972641 -0.01684657 -0.03369314
v 0.01684662 -0.009726382 -0.03369314
v 0.01945278 -1.341104E-08 -0.03369314
v 0.01684662 0.009726358 -0.03369314
v 0.00972641 0.01684656 -0.03369314
v 3.814697E-08 0.01945275 -0.03369314
v 3.814697E-08 1.788139E-09 -0.03890549
v 3.814697E-08 1.788139E-09 -0.03890549
v 3.814697E-08 1.788139E-09 -0.03890549
v 3.814697E-08 1.788139E-09 -0.03890549
v 3.814697E-08 1.788139E-09 -0.03890549
v 3.814697E-08 1.788139E-09 -0.03890549
v -0.009726333 -0.01684657 -0.03369314
v -0.01684654 -0.009726366 -0.03369314
v -0.0194527 4.768371E-09 -0.03369314
v -0.01684654 0.009726374 -0.03369314
v -0.009726333 0.01684657 -0.03369314
v 3.814697E-08 0.01945275 -0.03369314
v 3.814697E-08 1.788139E-09 -0.03890549
v 3.814697E-08 1.788139E-09 -0.03890549
v 3.814697E-08 1.788139E-09 -0.03890549
v 3.814697E-08 1.788139E-09 -0.03890549
v 3.814697E-08 1.788139E-09 -0.03890549
v 3.814697E-08 1.788139E-09 -0.03890549
v 3.814697E-08 0.04158484 0.005887489
v -0.02079227 0.0360136 0.005887489
v -0.0207925 0.03601346 -0.005887527
v 1.525879E-07 0.04158484 -0.005887527
v -0.03601349 0.02079243 -0.005887527
v -0.03601357 0.02079231 0.005887489
v -0.04158482 7.748604E-09 -0.005887527
v -0.04158482 7.748604E-09 0.005887489
v -0.03601349 -0.02079241 -0.005887527
v -0.03601341 -0.02079253 0.005887489
v -0.02079239 -0.03601352 -0.005887527
v -0.02079227 -0.03601359 0.005887489
v 3.814697E-08 -0.04158484 -0.005887527
v 0 -0.04158484 0.005887489
v 0.02079243 -0.03601354 -0.005887527
v 0.02079231 -0.03601361 0.005887489
v 0.03601364 -0.02079233 -0.005887527
v 0.03601364 -0.02079233 0.005887489
v 0.04158485 1.0252E-07 -0.005887527
v 0.04158485 -3.010035E-08 0.005887489
v 0.0360136 0.02079239 -0.005887527
v 0.0360136 0.02079239 0.005887489
v 0.0207925 0.03601352 -0.005887527
v 0.0207925 0.03601352 0.005887489
v 1.525879E-07 0.04158484 -0.005887527
v 3.814697E-08 0.04158484 0.005887489
v -0.01906639 0.03302405 0.008185729
v -0.02079227 0.0360136 0.005887489
v 3.814697E-08 0.04158484 0.005887489
v 3.814697E-08 0.03813288 0.008185729
v -0.03302399 0.01906644 0.008185729
v -0.03601357 0.02079231 0.005887489
v -0.03813286 7.748604E-09 0.008185729
v -0.04158482 7.748604E-09 0.005887489
v -0.03302402 -0.01906643 0.008185729
v -0.03601341 -0.02079253 0.005887489
v -0.01906643 -0.03302404 0.008185729
v -0.02079227 -0.03601359 0.005887489
v 3.814697E-08 -0.03813287 0.008185729
v 0 -0.04158484 0.005887489
v 0.01906647 -0.03302405 0.008185729
v 0.02079231 -0.03601361 0.005887489
v 0.03302406 -0.01906646 0.008185729
v 0.03601364 -0.02079233 0.005887489
v 0.03813293 -2.771616E-08 0.008185729
v 0.04158485 -3.010035E-08 0.005887489
v 0.0330241 0.01906641 0.008185729
v 0.0360136 0.02079239 0.005887489
v 0.01906651 0.03302403 0.008185729
v 0.0207925 0.03601352 0.005887489
v 3.814697E-08 0.03813288 0.008185729
v 3.814697E-08 0.04158484 0.005887489
v 3.814697E-08 0.03813288 -0.008185729
v 1.525879E-07 0.04158484 -0.005887527
v -0.0207925 0.03601346 -0.005887527
v -0.01906639 0.03302404 -0.008185729
v -0.03601349 0.02079243 -0.005887527
v -0.03302399 0.01906645 -0.008185729
v -0.04158482 7.748604E-09 -0.005887527
v -0.03813286 7.748604E-09 -0.008185729
v -0.03601349 -0.02079241 -0.005887527
v -0.03302402 -0.01906643 -0.008185729
v -0.02079239 -0.03601352 -0.005887527
v -0.01906643 -0.03302404 -0.008185729
v 3.814697E-08 -0.04158484 -0.005887527
v 3.814697E-08 -0.03813287 -0.008185729
v 0.02079243 -0.03601354 -0.005887527
v 0.01906647 -0.03302405 -0.008185729
v 0.03601364 -0.02079233 -0.005887527
v 0.03302406 -0.01906646 -0.008185729
v 0.04158485 1.0252E-07 -0.005887527
v 0.03813293 -2.771616E-08 -0.008185729
v 0.0360136 0.02079239 -0.005887527
v 0.0330241 0.01906641 -0.008185729
v 0.0207925 0.03601352 -0.005887527
v 0.01906651 0.03302403 -0.008185729
v 1.525879E-07 0.04158484 -0.005887527
v 3.814697E-08 0.03813288 -0.008185729
vt 0 1
vt 0.08333334 0.8333333
vt 0 0.8333333
vt 0.08333334 0.6666666
vt 0 0.6666666
vt 0.1666667 0.6666666
vt 0.1666667 0.8333333
vt 0.08333334 1
vt 0.25 0.6666666
vt 0.25 0.8333333
vt 0.1666667 1
vt 0.3333333 0.6666666
vt 0.3333333 0.8333333
vt 0.25 1
vt 0.4166667 0.6666666
vt 0.4166667 0.8333333
vt 0.3333333 1
vt 0.5 0.6666666
vt 0.5 0.8333333
vt 0.4166667 1
vt 0.5833333 0.6666666
vt 0.5833333 0.8333333
vt 0.5 1
vt 0.6666666 0.6666666
vt 0.6666666 0.8333333
vt 0.5833333 1
vt 0.7499999 0.6666666
vt 0.7499999 0.8333333
vt 0.6666666 1
vt 0.8333332 0.6666666
vt 0.8333332 0.8333333
vt 0.7499999 1
vt 0.9166665 0.6666666
vt 0.9166665 0.8333333
vt 0.8333332 1
vt 0.9999998 0.6666666
vt 0.9999998 0.8333333
vt 0.9166665 1
vt 0.7499999 0.5701335
vt 0.6666666 0.5701335
vt 0.8333332 0.5701335
vt 0.9166665 0.5701335
vt 0.9999998 0.5701335
vt 0.5833333 0.5701335
vt 0.5 0.5701335
vt 0.4166667 0.5701335
vt 0.3333333 0.5701335
vt 0.25 0.5701335
vt 0.1666667 0.5701335
vt 0.08333334 0.5701335
vt 0 0.5701335
vt 0 0.4298665
vt 0.08333334 0.4298665
vt 0.08333334 0.3333333
vt 0 0.3333333
vt 0.1666667 0.3333333
vt 0.1666667 0.4298665
vt 0.25 0.3333333
vt 0.25 0.4298665
vt 0.3333333 0.3333333
vt 0.3333333 0.4298665
vt 0.4166667 0.3333333
vt 0.4166667 0.4298665
vt 0.5 0.3333333
vt 0.5 0.4298665
vt 0.5833333 0.3333333
vt 0.5833333 0.4298665
vt 0.6666666 0.3333333
vt 0.6666666 0.4298665
vt 0.7499999 0.3333333
vt 0.7499999 0.4298665
vt 0.8333332 0.3333333
vt 0.8333332 0.4298665
vt 0.9166665 0.3333333
vt 0.9166665 0.4298665
vt 0.9999998 0.3333333
vt 0.9999998 0.4298665
vt 0.5 0.1666667
vt 0.5833333 0.1666667
vt 0.6666666 0.1666667
vt 0.7499999 0.1666667
vt 0.8333332 0.1666667
vt 0.9166665 0.1666667
vt 0.9999998 0.1666667
vt 0.5 5.960464E-08
vt 0.5833333 5.960464E-08
vt 0.6666666 5.960464E-08
vt 0.7499999 5.960464E-08
vt 0.8333332 5.960464E-08
vt 0.9166665 5.960464E-08
vt 0.4166667 0.1666667
vt 0.3333333 0.1666667
vt 0.25 0.1666667
vt 0.1666667 0.1666667
vt 0.08333334 0.1666667
vt 0 0.1666667
vt 0 5.960464E-08
vt 0.08333334 5.960464E-08
vt 0.1666667 5.960464E-08
vt 0.25 5.960464E-08
vt 0.3333333 5.960464E-08
vt 0.4166667 5.960464E-08
vt 0 0.5701335
vt 0.08333334 0.5701335
vt 0.08333334 0.4298665
vt 0 0.4298665
vt 0.1666667 0.4298665
vt 0.1666667 0.5701335
vt 0.25 0.4298665
vt 0.25 0.5701335
vt 0.3333333 0.4298665
vt 0.3333333 0.5701335
vt 0.4166667 0.4298665
vt 0.4166667 0.5701335
vt 0.5 0.4298665
vt 0.5 0.5701335
vt 0.5833333 0.4298665
vt 0.5833333 0.5701335
vt 0.6666666 0.4298665
vt 0.6666666 0.5701335
vt 0.7499999 0.4298665
vt 0.7499999 0.5701335
vt 0.8333332 0.4298665
vt 0.8333332 0.5701335
vt 0.9166665 0.4298665
vt 0.9166665 0.5701335
vt 0.9999998 0.4298665
vt 0.9999998 0.5701335
vt 0.08333334 0.5701335
vt 0.08333334 0.5701335
vt 0 0.5701335
vt 0 0.5701335
vt 0.1666667 0.5701335
vt 0.1666667 0.5701335
vt 0.25 0.5701335
vt 0.25 0.5701335
vt 0.3333333 0.5701335
vt 0.3333333 0.5701335
vt 0.4166667 0.5701335
vt 0.4166667 0.5701335
vt 0.5 0.5701335
vt 0.5 0.5701335
vt 0.5833333 0.5701335
vt 0.5833333 0.5701335
vt 0.6666666 0.5701335
vt 0.6666666 0.5701335
vt 0.7499999 0.5701335
vt 0.7499999 0.5701335
vt 0.8333332 0.5701335
vt 0.8333332 0.5701335
vt 0.9166665 0.5701335
vt 0.9166665 0.5701335
vt 0.9999998 0.5701335
vt 0.9999998 0.5701335
vt 0 0.4298665
vt 0 0.4298665
vt 0.08333334 0.4298665
vt 0.08333334 0.4298665
vt 0.1666667 0.4298665
vt 0.1666667 0.4298665
vt 0.25 0.4298665
vt 0.25 0.4298665
vt 0.3333333 0.4298665
vt 0.3333333 0.4298665
vt 0.4166667 0.4298665
vt 0.4166667 0.4298665
vt 0.5 0.4298665
vt 0.5 0.4298665
vt 0.5833333 0.4298665
vt 0.5833333 0.4298665
vt 0.6666666 0.4298665
vt 0.6666666 0.4298665
vt 0.7499999 0.4298665
vt 0.7499999 0.4298665
vt 0.8333332 0.4298665
vt 0.8333332 0.4298665
vt 0.9166665 0.4298665
vt 0.9166665 0.4298665
vt 0.9999998 0.4298665
vt 0.9999998 0.4298665
vn 0 0 1
vn -0.2654499 0.4597728 0.8474346
vn 2.434926E-07 0.5308999 0.8474345
vn -0.4229189 0.7325166 0.5334408
vn 2.75859E-07 0.8458372 0.5334411
vn -0.7325167 0.4229186 0.5334408
vn -0.459773 0.2654498 0.8474345
vn 0 0 1
vn -0.845837 2.962927E-07 0.5334414
vn -0.5309001 0 0.8474345
vn 0 0 1
vn -0.7325164 -0.4229182 0.5334416
vn -0.459773 -0.2654498 0.8474345
vn 0 0 1
vn -0.4229185 -0.7325165 0.5334412
vn -0.2654499 -0.4597727 0.8474346
vn 0 0 1
vn -1.839059E-07 -0.8458372 0.5334411
vn -1.572556E-07 -0.5308998 0.8474346
vn 0 0 1
vn 0.422918 -0.7325169 0.533441
vn 0.2654496 -0.459773 0.8474345
vn 0 0 1
vn 0.7325163 -0.4229189 0.5334411
vn 0.4597728 -0.2654501 0.8474345
vn 0 0 1
vn 0.845837 -3.320522E-07 0.5334414
vn 0.5309001 0 0.8474345
vn 0 0 1
vn 0.7325165 0.4229181 0.5334415
vn 0.4597732 0.2654498 0.8474344
vn 0 0 1
vn 0.422919 0.7325162 0.5334412
vn 0.2654502 0.4597726 0.8474345
vn 0 0 1
vn 2.75859E-07 0.8458372 0.5334411
vn 2.434926E-07 0.5308999 0.8474345
vn 0 0 1
vn 0.9303735 -5.51532E-07 0.3666129
vn 0.8057271 -0.4651875 0.3666121
vn 0.8057274 0.4651861 0.3666131
vn 0.4651875 0.805727 0.3666122
vn 2.393439E-07 0.930374 0.3666118
vn 0.4651867 -0.8057277 0.3666118
vn -1.873126E-07 -0.930374 0.3666117
vn -0.4651872 -0.8057272 0.3666121
vn -0.8057274 -0.4651863 0.3666131
vn -0.9303735 4.786881E-07 0.3666129
vn -0.8057275 0.4651873 0.3666115
vn -0.465187 0.8057277 0.3666113
vn 2.393439E-07 0.930374 0.3666118
vn 2.497502E-07 0.930374 -0.366612
vn -0.465187 0.8057277 -0.3666113
vn -0.422919 0.7325168 -0.5334405
vn 3.065099E-07 0.8458374 -0.5334408
vn -0.7325169 0.4229187 -0.5334406
vn -0.8057274 0.4651873 -0.3666116
vn -0.8458372 2.962927E-07 -0.5334412
vn -0.9303735 4.890944E-07 -0.366613
vn -0.7325165 -0.4229183 -0.5334414
vn -0.8057273 -0.4651863 -0.3666131
vn -0.4229187 -0.7325166 -0.5334409
vn -0.4651872 -0.8057272 -0.3666123
vn -1.583634E-07 -0.8458374 -0.5334408
vn -1.560938E-07 -0.930374 -0.3666118
vn 0.4229181 -0.7325171 -0.5334407
vn 0.4651867 -0.8057277 -0.3666119
vn 0.7325165 -0.4229191 -0.5334408
vn 0.8057271 -0.4651875 -0.3666121
vn 0.8458372 -3.473776E-07 -0.5334412
vn 0.9303735 -5.827507E-07 -0.3666129
vn 0.7325166 0.4229182 -0.5334414
vn 0.8057274 0.4651862 -0.3666132
vn 0.4229191 0.7325163 -0.533441
vn 0.4651875 0.8057269 -0.3666125
vn 3.065099E-07 0.8458374 -0.5334408
vn 2.497502E-07 0.930374 -0.366612
vn -1.572557E-07 -0.5308999 -0.8474345
vn 0.2654496 -0.459773 -0.8474345
vn 0.4597727 -0.2654501 -0.8474345
vn 0.5309 0 -0.8474345
vn 0.4597732 0.2654498 -0.8474344
vn 0.2654502 0.4597727 -0.8474345
vn 2.79002E-07 0.5308999 -0.8474345
vn 0 0 -1
vn 0 0 -1
vn 0 0 -1
vn 0 0 -1
vn 0 0 -1
vn 0 0 -1
vn -0.2654499 -0.4597727 -0.8474345
vn -0.459773 -0.2654498 -0.8474345
vn -0.5309001 0 -0.8474345
vn -0.4597731 0.2654498 -0.8474345
vn -0.2654498 0.4597728 -0.8474346
vn 2.79002E-07 0.5308999 -0.8474345
vn 0 0 -1
vn 0 0 -1
vn 0 0 -1
vn 0 0 -1
vn 0 0 -1
vn 0 0 -1
vn -8.249654E-07 1 -1.734608E-06
vn -0.4999968 0.8660273 -4.626189E-07
vn -0.5000033 0.8660235 -4.624973E-07
vn 2.366865E-06 1 -1.734571E-06
vn -0.8660247 0.5000011 9.555621E-07
vn -0.8660266 0.4999979 9.555207E-07
vn -1 -1.021386E-06 0
vn -1 -1.021386E-06 0
vn -0.8660257 -0.4999996 9.433808E-07
vn -0.8660237 -0.500003 9.433667E-07
vn -0.5000011 -0.8660248 -1.089444E-06
vn -0.4999979 -0.8660266 -1.089459E-06
vn 0 -1 -1.63722E-06
vn -1.031207E-06 -1 -1.637222E-06
vn 0.5000008 -0.866025 2.008476E-07
vn 0.4999976 -0.8660268 2.008296E-07
vn 0.8660261 -0.4999987 0
vn 0.8660261 -0.4999987 0
vn 1 2.769525E-06 0
vn 1 -9.428169E-07 0
vn 0.8660261 0.4999988 7.547043E-07
vn 0.8660261 0.4999988 7.547043E-07
vn 0.5000007 0.866025 6.512346E-07
vn 0.5000007 0.866025 6.512346E-07
vn 2.366865E-06 1 -1.734571E-06
vn -8.249654E-07 1 -1.734608E-06
vn -0.2770963 0.4799394 0.8323916
vn -0.2770916 0.4799421 0.8323916
vn 5.230531E-07 0.5541868 0.8323923
vn 6.319245E-07 0.5541868 0.8323923
vn -0.4799387 0.2770968 0.8323919
vn -0.4799419 0.2770911 0.8323919
vn -0.5541884 -1.204869E-06 0.8323913
vn -0.5541884 -1.090623E-06 0.8323913
vn -0.4799447 -0.2770933 0.8323895
vn -0.4799413 -0.2770991 0.8323895
vn -0.2770965 -0.4799389 0.8323919
vn -0.2770906 -0.4799423 0.8323919
vn 6.319246E-07 -0.5541857 0.8323931
vn -1.046106E-06 -0.5541857 0.8323931
vn 0.277097 -0.4799401 0.832391
vn 0.2770911 -0.4799435 0.832391
vn 0.4799401 -0.2770976 0.8323908
vn 0.4799433 -0.277092 0.8323908
vn 0.5541884 0 0.8323913
vn 0.5541884 0 0.8323913
vn 0.4799414 0.2770932 0.8323915
vn 0.4799415 0.2770931 0.8323914
vn 0.2770935 0.4799402 0.8323921
vn 0.277094 0.4799399 0.8323921
vn 6.319245E-07 0.5541868 0.8323923
vn 5.230531E-07 0.5541868 0.8323923
vn -2.831019E-06 0.5541824 -0.8323953
vn 2.370437E-06 0.5541825 -0.8323953
vn -0.2770938 0.4799339 -0.8323957
vn -0.2770879 0.4799373 -0.8323956
vn -0.479934 0.2770896 -0.8323969
vn -0.4799338 0.2770899 -0.8323969
vn -0.554182 0 -0.8323955
vn -0.5541821 0 -0.8323955
vn -0.4799367 -0.277092 -0.8323946
vn -0.479937 -0.2770916 -0.8323946
vn -0.2770911 -0.4799362 -0.8323951
vn -0.2770919 -0.4799357 -0.8323951
vn -1.446745E-07 -0.5541814 -0.8323959
vn -1.853644E-07 -0.5541814 -0.832396
vn 0.2770907 -0.4799361 -0.8323954
vn 0.2770916 -0.4799356 -0.8323954
vn 0.4799382 -0.2770881 -0.8323951
vn 0.479935 -0.2770935 -0.8323951
vn 0.554182 3.316376E-06 -0.8323956
vn 0.554182 -2.57825E-06 -0.8323956
vn 0.4799349 0.2770898 -0.8323963
vn 0.4799348 0.27709 -0.8323964
vn 0.2770907 0.4799336 -0.8323969
vn 0.2770903 0.4799338 -0.8323969
vn 2.370437E-06 0.5541825 -0.8323953
vn -2.831019E-06 0.5541824 -0.8323953
f 3/3/3 2/2/2 1/1/1
f 4/4/4 2/2/2 3/3/3
f 5/5/5 4/4/4 3/3/3
f 4/4/4 6/6/6 2/2/2
f 6/6/6 7/7/7 2/2/2
f 2/2/2 7/7/7 8/8/8
f 6/6/6 9/9/9 7/7/7
f 9/9/9 10/10/10 7/7/7
f 7/7/7 10/10/10 11/11/11
f 9/9/9 12/12/12 10/10/10
f 12/12/12 13/13/13 10/10/10
f 10/10/10 13/13/13 14/14/14
f 12/12/12 15/15/15 13/13/13
f 15/15/15 16/16/16 13/13/13
f 13/13/13 16/16/16 17/17/17
f 15/15/15 18/18/18 16/16/16
f 18/18/18 19/19/19 16/16/16
f 16/16/16 19/19/19 20/20/20
f 18/18/18 21/21/21 19/19/19
f 21/21/21 22/22/22 19/19/19
f 19/19/19 22/22/22 23/23/23
f 21/21/21 24/24/24 22/22/22
f 24/24/24 25/25/25 22/22/22
f 22/22/22 25/25/25 26/26/26
f 24/24/24 27/27/27 25/25/25
f 27/27/27 28/28/28 25/25/25
f 25/25/25 28/28/28 29/29/29
f 27/27/27 30/30/30 28/28/28
f 30/30/30 31/31/31 28/28/28
f 28/28/28 31/31/31 32/32/32
f 30/30/30 33/33/33 31/31/31
f 33/33/33 34/34/34 31/31/31
f 31/31/31 34/34/34 35/35/35
f 33/33/33 36/36/36 34/34/34
f 36/36/36 37/37/37 34/34/34
f 34/34/34 37/37/37 38/38/38
f 39/39/39 27/27/27 24/24/24
f 40/40/40 39/39/39 24/24/24
f 41/41/41 30/30/30 27/27/27
f 39/39/39 41/41/41 27/27/27
f 42/42/42 33/33/33 30/30/30
f 41/41/41 42/42/42 30/30/30
f 43/43/43 36/36/36 33/33/33
f 42/42/42 43/43/43 33/33/33
f 40/40/40 24/24/24 21/21/21
f 44/44/44 40/40/40 21/21/21
f 44/44/44 21/21/21 18/18/18
f 45/45/45 44/44/44 18/18/18
f 45/45/45 18/18/18 15/15/15
f 46/46/46 45/45/45 15/15/15
f 46/46/46 15/15/15 12/12/12
f 47/47/47 46/46/46 12/12/12
f 47/47/47 12/12/12 9/9/9
f 48/48/48 47/47/47 9/9/9
f 48/48/48 9/9/9 6/6/6
f 49/49/49 48/48/48 6/6/6
f 49/49/49 6/6/6 4/4/4
f 50/50/50 49/49/49 4/4/4
f 50/50/50 4/4/4 5/5/5
f 51/51/51 50/50/50 5/5/5
f 54/54/54 53/53/53 52/52/52
f 55/55/55 54/54/54 52/52/52
f 54/54/54 56/56/56 53/53/53
f 56/56/56 57/57/57 53/53/53
f 56/56/56 58/58/58 57/57/57
f 58/58/58 59/59/59 57/57/57
f 58/58/58 60/60/60 59/59/59
f 60/60/60 61/61/61 59/59/59
f 60/60/60 62/62/62 61/61/61
f 62/62/62 63/63/63 61/61/61
f 62/62/62 64/64/64 63/63/63
f 64/64/64 65/65/65 63/63/63
f 64/64/64 66/66/66 65/65/65
f 66/66/66 67/67/67 65/65/65
f 66/66/66 68/68/68 67/67/67
f 68/68/68 69/69/69 67/67/67
f 68/68/68 70/70/70 69/69/69
f 70/70/70 71/71/71 69/69/69
f 70/70/70 72/72/72 71/71/71
f 72/72/72 73/73/73 71/71/71
f 72/72/72 74/74/74 73/73/73
f 74/74/74 75/75/75 73/73/73
f 74/74/74 76/76/76 75/75/75
f 76/76/76 77/77/77 75/75/75
f 78/78/78 64/64/64 62/62/62
f 79/79/79 66/66/66 64/64/64
f 78/78/78 79/79/79 64/64/64
f 80/80/80 68/68/68 66/66/66
f 79/79/79 80/80/80 66/66/66
f 81/81/81 70/70/70 68/68/68
f 80/80/80 81/81/81 68/68/68
f 82/82/82 72/72/72 70/70/70
f 81/81/81 82/82/82 70/70/70
f 83/83/83 74/74/74 72/72/72
f 82/82/82 83/83/83 72/72/72
f 84/84/84 76/76/76 74/74/74
f 83/83/83 84/84/84 74/74/74
f 79/79/79 78/78/78 85/85/85
f 80/80/80 79/79/79 86/86/86
f 81/81/81 80/80/80 87/87/87
f 82/82/82 81/81/81 88/88/88
f 83/83/83 82/82/82 89/89/89
f 84/84/84 83/83/83 90/90/90
f 91/91/91 78/78/78 62/62/62
f 91/91/91 62/62/62 60/60/60
f 92/92/92 91/91/91 60/60/60
f 92/92/92 60/60/60 58/58/58
f 93/93/93 92/92/92 58/58/58
f 93/93/93 58/58/58 56/56/56
f 94/94/94 93/93/93 56/56/56
f 94/94/94 56/56/56 54/54/54
f 95/95/95 94/94/94 54/54/54
f 95/95/95 54/54/54 55/55/55
f 96/96/96 95/95/95 55/55/55
f 95/95/95 96/96/96 97/97/97
f 94/94/94 95/95/95 98/98/98
f 93/93/93 94/94/94 99/99/99
f 92/92/92 93/93/93 100/100/100
f 91/91/91 92/92/92 101/101/101
f 78/78/78 91/91/91 102/102/102
f 105/105/105 104/104/104 103/103/103
f 106/106/106 105/105/105 103/103/103
f 105/105/105 107/107/107 104/104/104
f 107/107/107 108/108/108 104/104/104
f 107/107/107 109/109/109 108/108/108
f 109/109/109 110/110/110 108/108/108
f 109/109/109 111/111/111 110/110/110
f 111/111/111 112/112/112 110/110/110
f 111/111/111 113/113/113 112/112/112
f 113/113/113 114/114/114 112/112/112
f 113/113/113 115/115/115 114/114/114
f 115/115/115 116/116/116 114/114/114
f 115/115/115 117/117/117 116/116/116
f 117/117/117 118/118/118 116/116/116
f 117/117/117 119/119/119 118/118/118
f 119/119/119 120/120/120 118/118/118
f 119/119/119 121/121/121 120/120/120
f 121/121/121 122/122/122 120/120/120
f 121/121/121 123/123/123 122/122/122
f 123/123/123 124/124/124 122/122/122
f 123/123/123 125/125/125 124/124/124
f 125/125/125 126/126/126 124/124/124
f 125/125/125 127/127/127 126/126/126
f 127/127/127 128/128/128 126/126/126
f 131/131/131 130/130/130 129/129/129
f 132/132/132 131/131/131 129/129/129
f 129/129/129 130/130/130 133/133/133
f 130/130/130 134/134/134 133/133/133
f 133/133/133 134/134/134 135/135/135
f 134/134/134 136/136/136 135/135/135
f 135/135/135 136/136/136 137/137/137
f 136/136/136 138/138/138 137/137/137
f 137/137/137 138/138/138 139/139/139
f 138/138/138 140/140/140 139/139/139
f 139/139/139 140/140/140 141/141/141
f 140/140/140 142/142/142 141/141/141
f 141/141/141 142/142/142 143/143/143
f 142/142/142 144/144/144 143/143/143
f 143/143/143 144/144/144 145/145/145
f 144/144/144 146/146/146 145/145/145
f 145/145/145 146/146/146 147/147/147
f 146/146/146 148/148/148 147/147/147
f 147/147/147 148/148/148 149/149/149
f 148/148/148 150/150/150 149/149/149
f 149/149/149 150/150/150 151/151/151
f 150/150/150 152/152/152 151/151/151
f 151/151/151 152/152/152 153/153/153
f 152/152/152 154/154/154 153/153/153
f 157/157/157 156/156/156 155/155/155
f 158/158/158 157/157/157 155/155/155
f 159/159/159 157/157/157 158/158/158
f 160/160/160 159/159/159 158/158/158
f 161/161/161 159/159/159 160/160/160
f 162/162/162 161/161/161 160/160/160
f 163/163/163 161/161/161 162/162/162
f 164/164/164 163/163/163 162/162/162
f 165/165/165 163/163/163 164/164/164
f 166/166/166 165/165/165 164/164/164
f 167/167/167 165/165/165 166/166/166
f 168/168/168 167/167/167 166/166/166
f 169/169/169 167/167/167 168/168/168
f 170/170/170 169/169/169 168/168/168
f 171/171/171 169/169/169 170/170/170
f 172/172/172 171/171/171 170/170/170
f 173/173/173 171/171/171 172/172/172
f 174/174/174 173/173/173 172/172/172
f 175/175/175 173/173/173 174/174/174
f 176/176/176 175/175/175 174/174/174
f 177/177/177 175/175/175 176/176/176
f 178/178/178 177/177/177 176/176/176
f 179/179/179 177/177/177 178/178/178
f 180/180/180 179/179/179 178/178/178
