g Meteo_01A
v 0 0 0.9022955
v 0.1465868 0.4511478 0.7675384
v 0.4743648 0 0.7675384
v 0.6209515 0.4511478 0.4743648
v 0.8070377 0 0.4035188
v 0.2493883 0.7675384 0.4035188
v -0.3837692 0.2788246 0.7675384
v -0.2371824 0.7299724 0.4743648
v -0.6529073 0.4743648 0.4035188
v -0.3837692 -0.2788247 0.7675384
v -0.7675384 -8.529921E-08 0.4743648
v -0.6529071 -0.4743649 0.4035188
v 0.1465869 -0.4511477 0.7675384
v -0.2371823 -0.7299724 0.4743648
v 0.2493884 -0.7675384 0.4035188
v 0.6209517 -0.4511477 0.4743648
v 0.530356 0.7299724 0
v -3.198721E-08 0.9022955 0
v 0.2371824 0.7299724 -0.4743648
v 0.6529072 0.4743648 -0.4035188
v -0.2493884 0.7675384 -0.4035188
v 0.858134 0.2788246 0
v 0.7675384 -4.264961E-08 -0.4743648
v 0.858134 -0.2788247 0
v 0.6529071 -0.4743649 -0.4035188
v -0.530356 0.7299724 0
v -0.6209515 0.4511477 -0.4743648
v -0.858134 0.2788245 0
v -0.8070377 -7.055347E-08 -0.4035188
v -0.858134 -0.2788247 0
v -0.6209515 -0.4511479 -0.4743649
v -0.5303558 -0.7299725 0
v -0.2493881 -0.7675385 -0.4035188
v 2.239105E-07 -0.9022955 0
v 0.2371825 -0.7299724 -0.4743647
v 0.530356 -0.7299724 0
v -0.1465866 -0.4511478 -0.7675384
v -0.4743648 -4.147029E-08 -0.7675384
v 0 0 -0.9022955
v -0.1465868 0.4511477 -0.7675384
v 0.3837692 0.2788246 -0.7675384
v 0.3837692 -0.2788247 -0.7675384
vt 0.5010417 0.9923854
vt 0.7509349 0.9923854
vt 0.5 0.9083123
vt 0.7399999 0.7523508
vt 0.5 0.7146624
vt 0.9083123 0.7146624
vt 0.6483281 0.9083123
vt 1.002914 0.9923854
vt 0.7523508 0.7146624
vt 0.3516718 0.9083123
vt 0.4999999 0.7523508
vt 0.247649 0.7146624
vt 0.2511484 0.9923854
vt 0.0002134896 0.9923854
vt 0.07502096 0.8125792
vt 0.26 0.7523508
vt 0.8466614 0.2979166
vt 1.002914 0.4916666
vt 1.002914 0.002574438
vt 0.7523508 0.2853375
vt 0.931229 0.1999208
vt 0.6483281 0.5
vt 0.4999999 0.2476491
vt 0.3516718 0.5
vt 0.247649 0.2853375
vt 0.8883281 0.5
vt 0.7399999 0.2476491
vt 0.6483281 0.5
vt 0.4999999 0.2853375
vt 0.3516718 0.5
vt 0.2599999 0.247649
vt 0.1116718 0.5
vt 0.09168755 0.2853375
vt 0.0002134896 0.4979166
vt 0.0002134896 0.002574438
vt 0.1116718 0.5
vt 0.2511484 0.002574438
vt 0.4999999 0.09168763
vt 0.503125 0.002574438
vt 0.7551015 0.002574438
vt 0.6483281 0.09168763
vt 0.3516718 0.09168763
vn 0 0 1
vn 0.1624598 0.5 0.8506508
vn 0.5257311 0 0.8506508
vn 0.6881909 0.5 0.5257311
vn 0.8944272 0 0.4472136
vn 0.2763931 0.8506508 0.4472136
vn -0.4253255 0.309017 0.8506508
vn -0.2628656 0.8090169 0.5257311
vn -0.7236069 0.525731 0.4472136
vn -0.4253253 -0.309017 0.8506508
vn -0.8506508 -1.061171E-07 0.5257311
vn -0.7236067 -0.5257312 0.4472137
vn 0.1624599 -0.5 0.8506508
vn -0.2628655 -0.809017 0.5257311
vn 0.2763933 -0.8506507 0.4472136
vn 0.6881911 -0.5 0.5257311
vn 0.5877852 0.8090169 0
vn 0 1 0
vn 0.2628655 0.8090169 -0.5257312
vn 0.7236068 0.525731 -0.4472137
vn -0.2763933 0.8506508 -0.4472136
vn 0.9510565 0.309017 0
vn 0.8506508 0 -0.5257312
vn 0.9510565 -0.309017 0
vn 0.7236068 -0.5257311 -0.4472136
vn -0.5877853 0.8090169 0
vn -0.6881909 0.4999999 -0.5257311
vn -0.9510565 0.3090169 0
vn -0.8944272 0 -0.4472136
vn -0.9510565 -0.3090171 0
vn -0.6881908 -0.5000001 -0.5257312
vn -0.5877851 -0.8090171 0
vn -0.2763929 -0.8506509 -0.4472136
vn 1.803991E-07 -1 0
vn 0.2628656 -0.8090169 -0.5257311
vn 0.5877854 -0.8090169 0
vn -0.1624597 -0.5000001 -0.8506508
vn -0.5257311 0 -0.8506508
vn 0 0 -1
vn -0.1624599 0.5 -0.8506508
vn 0.4253254 0.309017 -0.8506508
vn 0.4253254 -0.309017 -0.8506508
f 3/3/3 2/2/2 1/1/1
f 4/4/4 2/2/2 3/3/3
f 5/5/5 4/4/4 3/3/3
f 4/4/4 6/6/6 2/2/2
f 2/2/2 7/7/7 1/1/1
f 6/6/6 8/8/8 2/2/2
f 8/8/8 7/7/7 2/2/2
f 8/8/8 9/9/9 7/7/7
f 7/7/7 10/10/10 1/1/1
f 9/9/9 11/11/11 7/7/7
f 11/11/11 10/10/10 7/7/7
f 11/11/11 12/12/12 10/10/10
f 10/10/10 13/13/13 1/1/1
f 13/13/13 3/3/3 1/1/1
f 12/12/12 14/14/14 10/10/10
f 14/14/14 13/13/13 10/10/10
f 14/14/14 15/15/15 13/13/13
f 15/15/15 16/16/16 13/13/13
f 16/16/16 3/3/3 13/13/13
f 16/16/16 5/5/5 3/3/3
f 6/6/6 4/4/4 17/17/17
f 17/17/17 18/18/18 6/6/6
f 8/8/8 6/6/6 18/18/18
f 19/19/19 18/18/18 17/17/17
f 20/20/20 19/19/19 17/17/17
f 19/19/19 21/21/21 18/18/18
f 17/17/17 22/22/22 20/20/20
f 23/23/23 20/20/20 22/22/22
f 23/23/23 22/22/22 24/24/24
f 24/24/24 22/22/22 5/5/5
f 5/5/5 16/16/16 24/24/24
f 25/25/25 23/23/23 24/24/24
f 4/4/4 22/22/22 17/17/17
f 4/4/4 5/5/5 22/22/22
f 26/26/26 18/18/18 21/21/21
f 21/21/21 27/27/27 26/26/26
f 27/27/27 28/28/28 26/26/26
f 26/26/26 28/28/28 9/9/9
f 27/27/27 29/29/29 28/28/28
f 9/9/9 8/8/8 26/26/26
f 8/8/8 18/18/18 26/26/26
f 30/30/30 28/28/28 29/29/29
f 29/29/29 31/31/31 30/30/30
f 31/31/31 32/32/32 30/30/30
f 30/30/30 32/32/32 12/12/12
f 31/31/31 33/33/33 32/32/32
f 12/12/12 11/11/11 30/30/30
f 11/11/11 28/28/28 30/30/30
f 11/11/11 9/9/9 28/28/28
f 34/34/34 32/32/32 33/33/33
f 33/33/33 35/35/35 34/34/34
f 35/35/35 36/36/36 34/34/34
f 34/34/34 36/36/36 15/15/15
f 35/35/35 25/25/25 36/36/36
f 15/15/15 14/14/14 34/34/34
f 14/14/14 32/32/32 34/34/34
f 14/14/14 12/12/12 32/32/32
f 24/24/24 36/36/36 25/25/25
f 16/16/16 36/36/36 24/24/24
f 16/16/16 15/15/15 36/36/36
f 33/33/33 31/31/31 37/37/37
f 35/35/35 33/33/33 37/37/37
f 31/31/31 38/38/38 37/37/37
f 37/37/37 38/38/38 39/39/39
f 38/38/38 40/40/40 39/39/39
f 40/40/40 41/41/41 39/39/39
f 19/19/19 41/41/41 40/40/40
f 21/21/21 19/19/19 40/40/40
f 19/19/19 20/20/20 41/41/41
f 27/27/27 40/40/40 38/38/38
f 27/27/27 21/21/21 40/40/40
f 29/29/29 27/27/27 38/38/38
f 31/31/31 29/29/29 38/38/38
f 42/42/42 37/37/37 39/39/39
f 41/41/41 42/42/42 39/39/39
f 25/25/25 35/35/35 42/42/42
f 35/35/35 37/37/37 42/42/42
f 20/20/20 23/23/23 41/41/41
f 23/23/23 42/42/42 41/41/41
f 23/23/23 25/25/25 42/42/42
