g Caven_Stone_02A
v 0.010532 -0.1016955 0.2846716
v 0.03794479 -0.08935561 0.248529
v 0.010532 -0.1023746 0.2466365
v 0.010532 -0.09470589 0.1212669
v -0.05294807 -0.06781572 0.2841034
v -0.05679275 -0.05127377 0.2436257
v -0.1243454 0 0.2406048
v -0.1277174 0 0.1553037
v -0.0771685 0 0.04581508
v -0.0551796 0 -0.07623676
v 0.010532 -0.06877228 -0.06447361
v -0.0302504 0 -0.2048562
v 0.05519836 -0.04975397 -0.2098206
v 0.05361374 0 -0.1956854
v 0.07625259 0 -0.0613332
v -0.0132785 0 -0.2653553
v 0.010532 0 -0.3101092
v 0.04659386 0 -0.2648523
v 0.09894378 0 0.0756448
v 0.06996689 -0.04735295 0.1384103
v -0.1362234 0 0.3101092
v 0.1032611 0 0.1289174
v 0.1362233 0 0.1821899
v 0.07144119 -0.04467781 0.2482137
v 0.1186064 0 0.2478984
v 0.05519836 0.04975397 -0.2098206
v 0.04659386 0 -0.2648523
v 0.05519836 -0.04975397 -0.2098206
v 0.05361374 0 -0.1956854
v 0.04659386 0 -0.2648523
v 0.010532 0.06877228 -0.06447361
v 0.05519836 0.04975397 -0.2098206
v -0.0302504 0 -0.2048562
v -0.0551796 0 -0.07623676
v 0.07625259 0 -0.0613332
v -0.0132785 0 -0.2653553
v 0.010532 0 -0.3101092
v 0.04659386 0 -0.2648523
v 0.010532 0.09470589 0.1212669
v -0.0771685 0 0.04581508
v -0.1277174 0 0.1553037
v 0.09894378 0 0.0756448
v 0.06996689 0.04735295 0.1384103
v -0.05679275 0.05127377 0.2436257
v -0.1243454 0 0.2406048
v -0.05294807 0.06781572 0.2841034
v 0.010532 0.1023746 0.2466365
v 0.03794479 0.08935561 0.248529
v 0.010532 0.1016955 0.2846716
v -0.1362234 0 0.3101092
v 0.07144119 0.04467781 0.2482137
v 0.1362233 0 0.1821899
v 0.1186064 0 0.2478984
v 0.1032611 0 0.1289174
v 0.010532 -0.1016955 0.2846716
v 0.010532 -0.05840857 0.3100446
v 0.02793266 -0.05990127 0.2741895
v 0.03536957 0 0.2598318
v 0.010532 0 0.2846716
v -0.02120804 0 0.3040216
v 0.03794479 -0.08935561 0.248529
v 0.02793266 -0.05990127 0.2741895
v 0.07144119 -0.04467781 0.2482137
v 0.03536957 0 0.2598318
v 0.07698806 0 0.2725509
v 0.1186064 0 0.2478984
v -0.05294807 -0.06781572 0.2841034
v -0.05294807 -0.03390786 0.2841034
v 0.010532 -0.05840857 0.3100446
v -0.1362234 0 0.3101092
v -0.02120804 0 0.3040216
v -0.05294807 0 0.3018961
v 0.010532 -0.1016955 0.2846716
v 0.010532 0.1016955 0.2846716
v 0.02793266 0.05990127 0.2741895
v 0.010532 0.05840857 0.3100446
v 0.03536957 0 0.2598318
v 0.010532 0 0.2846716
v -0.02120804 0 0.3040216
v 0.03794479 0.08935561 0.248529
v 0.07144119 0.04467781 0.2482137
v 0.02793266 0.05990127 0.2741895
v 0.03536957 0 0.2598318
v 0.07698806 0 0.2725509
v 0.1186064 0 0.2478984
v -0.05294807 0.06781572 0.2841034
v 0.010532 0.05840857 0.3100446
v -0.05294807 0.03390786 0.2841034
v -0.1362234 0 0.3101092
v -0.02120804 0 0.3040216
v -0.05294807 0 0.3018961
v 0.010532 0.1016955 0.2846716
vt 0.4202205 0.3850945
vt 0.4271566 0.3658529
vt 0.4202205 0.3658993
vt 0.4202205 0.302629
vt 0.3879062 0.3846886
vt 0.3862437 0.3643799
vt 0.3521519 0.3628553
vt 0.3504502 0.3198064
vt 0.3759607 0.2645507
vt 0.3870578 0.2029548
vt 0.4202205 0.2088914
vt 0.3996388 0.1380445
vt 0.4427623 0.1355391
vt 0.4419626 0.1426727
vt 0.4533877 0.2104762
vt 0.4082041 0.1075124
vt 0.4202205 0.08492647
vt 0.4384198 0.1077663
vt 0.4648393 0.2796049
vt 0.4502155 0.3112807
vt 0.3392894 0.397932
vt 0.476768 0.3064899
vt 0.4836531 0.333375
vt 0.4509595 0.3656938
vt 0.4747624 0.3655346
vt 0.4427623 0.1355391
vt 0.4384198 0.1077663
vt 0.4427623 0.1355391
vt 0.4419626 0.1426727
vt 0.4384198 0.1077663
vt 0.4202205 0.2088914
vt 0.4427623 0.1355391
vt 0.3996388 0.1380445
vt 0.3870578 0.2029548
vt 0.4533877 0.2104762
vt 0.4082041 0.1075124
vt 0.4202205 0.08492647
vt 0.4384198 0.1077663
vt 0.4202205 0.302629
vt 0.3759607 0.2645507
vt 0.3504502 0.3198064
vt 0.4648393 0.2796049
vt 0.4502155 0.3112807
vt 0.3862437 0.3643799
vt 0.3521519 0.3628553
vt 0.3879062 0.3846886
vt 0.4202205 0.3658993
vt 0.4271566 0.3658529
vt 0.4202205 0.3850945
vt 0.3392894 0.397932
vt 0.4509595 0.3656938
vt 0.4836531 0.333375
vt 0.4747624 0.3655346
vt 0.476768 0.3064899
vt 0.9403563 0.6432909
vt 0.9638552 0.6479911
vt 0.961962 0.6280615
vt 0.9943456 0.6207003
vt 0.9943456 0.6420411
vt 0.9943456 0.6649223
vt 0.9435658 0.6174926
vt 0.961962 0.6280615
vt 0.9686808 0.6007215
vt 0.9943456 0.6207003
vt 0.9943456 0.6002015
vt 0.9943456 0.5751156
vt 0.9551558 0.6823489
vt 0.9741206 0.6834452
vt 0.9638552 0.6479911
vt 0.9943456 0.7285061
vt 0.9943456 0.6649223
vt 0.9943456 0.6834859
vt 0.9403563 0.6432909
vt 0.9403563 0.6432909
vt 0.961962 0.6280615
vt 0.9638552 0.6479911
vt 0.9943456 0.6207003
vt 0.9943456 0.6420411
vt 0.9943456 0.6649223
vt 0.9435658 0.6174926
vt 0.9686808 0.6007215
vt 0.961962 0.6280615
vt 0.9943456 0.6207003
vt 0.9943456 0.6002015
vt 0.9943456 0.5751156
vt 0.9551558 0.6823489
vt 0.9638552 0.6479911
vt 0.9741206 0.6834452
vt 0.9943456 0.7285061
vt 0.9943456 0.6649223
vt 0.9943456 0.6834859
vt 0.9403563 0.6432909
vn -0.2679249 -0.95777 -0.104368
vn 0.5593431 -0.8278695 -0.04203947
vn -0.07905298 -0.9945544 -0.06791312
vn 0.03782026 -0.9878906 -0.150472
vn -0.5703012 -0.8044071 -0.1663908
vn -0.5781536 -0.8074006 -0.1176551
vn -0.9949797 0 -0.1000771
vn -0.9852632 0 -0.171045
vn -0.96556 0 -0.2601805
vn -0.9716185 0 -0.2365533
vn 0.02943226 -0.9883072 -0.1496084
vn -0.9524279 0 -0.3047639
vn 0.4166388 -0.8785809 -0.2334687
vn 0.9997572 0 -0.02203434
vn 0.9986147 0 -0.05261717
vn -0.921976 0 -0.3872472
vn -0.1845323 0 -0.9828265
vn 0.8666167 0 -0.4989745
vn 0.9865088 0 -0.163708
vn 0.6860416 -0.7109964 -0.1543733
vn -0.9857097 0 -0.1684532
vn 0.9487633 0 -0.3159879
vn 0.9953884 0 -0.09592644
vn 0.6684523 -0.7436306 0.01360159
vn 0.9658878 0 0.2589608
vn 0.4166388 0.8785809 -0.2334687
vn 0.8666167 0 -0.4989745
vn 0.4166388 -0.8785809 -0.2334687
vn 0.9997572 0 -0.02203434
vn 0.8666167 0 -0.4989745
vn 0.02943226 0.9883072 -0.1496084
vn 0.4166388 0.8785809 -0.2334687
vn -0.9524279 0 -0.3047639
vn -0.9716185 0 -0.2365533
vn 0.9986147 0 -0.05261717
vn -0.921976 0 -0.3872472
vn -0.1845323 0 -0.9828265
vn 0.8666167 0 -0.4989745
vn 0.03782024 0.9878906 -0.150472
vn -0.96556 0 -0.2601805
vn -0.9852632 0 -0.171045
vn 0.9865088 0 -0.163708
vn 0.6860416 0.7109964 -0.1543733
vn -0.5781536 0.8074006 -0.1176551
vn -0.9949797 0 -0.1000771
vn -0.5703012 0.8044071 -0.1663908
vn -0.07905296 0.9945544 -0.06791312
vn 0.5593432 0.8278695 -0.04203948
vn -0.2679249 0.95777 -0.104368
vn -0.9857097 0 -0.1684532
vn 0.6684523 0.7436306 0.01360159
vn 0.9953884 0 -0.09592644
vn 0.9658878 0 0.2589608
vn 0.9487633 0 -0.3159879
vn 0.8406383 -0.2266218 0.4919043
vn 0.818674 0.01901806 0.5739435
vn 0.7440688 -0.1988889 0.6378125
vn 0.4818616 0 0.8762473
vn 0.633414 0 0.7738132
vn 0.5205363 0 0.8538396
vn 0.7018132 -0.3171477 0.6378679
vn 0.7440688 -0.1988889 0.6378125
vn 0.3480214 -0.2866572 0.8925855
vn 0.4818616 0 0.8762473
vn 0.3433079 0 0.9392229
vn 0.509645 0 0.8603848
vn -0.1627492 -0.1236328 0.978891
vn -0.05088604 -0.1728222 0.9836377
vn -0.3426547 -0.2955276 0.8917685
vn 0.1789091 -0.2832473 0.9422115
vn -0.2850699 -0.2729017 0.9188361
vn 0.01427229 -0.4646047 0.8854032
vn -0.2674956 -0.487261 0.8312778
vn 0.8406383 0.2266218 0.4919043
vn 0.7440687 0.1988889 0.6378126
vn 0.818674 -0.01901806 0.5739435
vn 0.4818616 0 0.8762473
vn 0.633414 0 0.7738132
vn 0.5205363 0 0.8538396
vn 0.7018132 0.3171477 0.6378679
vn 0.3480214 0.2866572 0.8925855
vn 0.7440687 0.1988889 0.6378126
vn 0.4818616 0 0.8762473
vn 0.3433079 0 0.9392229
vn 0.509645 0 0.8603848
vn -0.1627492 0.1236328 0.978891
vn -0.3426547 0.2955276 0.8917685
vn -0.05088604 0.1728222 0.9836377
vn 0.1789091 0.2832473 0.9422115
vn -0.2850699 0.2729017 0.9188361
vn 0.01427229 0.4646047 0.8854032
vn -0.2674956 0.487261 0.8312778
f 3/3/3 2/2/2 1/1/1
f 2/2/2 3/3/3 4/4/4
f 3/3/3 1/1/1 5/5/5
f 6/6/6 3/3/3 5/5/5
f 3/3/3 6/6/6 4/4/4
f 6/6/6 5/5/5 7/7/7
f 8/8/8 6/6/6 7/7/7
f 4/4/4 6/6/6 8/8/8
f 9/9/9 4/4/4 8/8/8
f 4/4/4 9/9/9 10/10/10
f 11/11/11 4/4/4 10/10/10
f 11/11/11 10/10/10 12/12/12
f 13/13/13 11/11/11 12/12/12
f 13/13/13 14/14/14 11/11/11
f 14/14/14 15/15/15 11/11/11
f 11/11/11 15/15/15 4/4/4
f 16/16/16 13/13/13 12/12/12
f 17/17/17 13/13/13 16/16/16
f 17/17/17 18/18/18 13/13/13
f 15/15/15 19/19/19 4/4/4
f 19/19/19 20/20/20 4/4/4
f 7/7/7 5/5/5 21/21/21
f 22/22/22 20/20/20 19/19/19
f 22/22/22 23/23/23 20/20/20
f 23/23/23 24/24/24 20/20/20
f 20/20/20 24/24/24 4/4/4
f 24/24/24 2/2/2 4/4/4
f 25/25/25 24/24/24 23/23/23
f 14/14/14 27/27/27 26/26/26
f 30/30/30 29/29/29 28/28/28
f 29/29/29 32/32/32 31/31/31
f 31/31/31 32/32/32 33/33/33
f 34/34/34 31/31/31 33/33/33
f 35/35/35 29/29/29 31/31/31
f 32/32/32 36/36/36 33/33/33
f 32/32/32 37/37/37 36/36/36
f 38/38/38 37/37/37 32/32/32
f 39/39/39 31/31/31 34/34/34
f 35/35/35 31/31/31 39/39/39
f 40/40/40 39/39/39 34/34/34
f 39/39/39 40/40/40 41/41/41
f 42/42/42 35/35/35 39/39/39
f 43/43/43 42/42/42 39/39/39
f 44/44/44 39/39/39 41/41/41
f 44/44/44 41/41/41 45/45/45
f 46/46/46 44/44/44 45/45/45
f 47/47/47 44/44/44 46/46/46
f 44/44/44 47/47/47 39/39/39
f 47/47/47 48/48/48 39/39/39
f 48/48/48 47/47/47 49/49/49
f 49/49/49 47/47/47 46/46/46
f 46/46/46 45/45/45 50/50/50
f 51/51/51 43/43/43 39/39/39
f 48/48/48 51/51/51 39/39/39
f 51/51/51 52/52/52 43/43/43
f 51/51/51 53/53/53 52/52/52
f 52/52/52 54/54/54 43/43/43
f 43/43/43 54/54/54 42/42/42
f 57/57/57 56/56/56 55/55/55
f 58/58/58 56/56/56 57/57/57
f 59/59/59 56/56/56 58/58/58
f 59/59/59 60/60/60 56/56/56
f 61/61/61 57/57/57 55/55/55
f 63/63/63 62/62/62 61/61/61
f 64/64/64 62/62/62 63/63/63
f 65/65/65 64/64/64 63/63/63
f 66/66/66 65/65/65 63/63/63
f 69/69/69 68/68/68 67/67/67
f 68/68/68 70/70/70 67/67/67
f 71/71/71 68/68/68 69/69/69
f 72/72/72 68/68/68 71/71/71
f 72/72/72 70/70/70 68/68/68
f 73/73/73 69/69/69 67/67/67
f 76/76/76 75/75/75 74/74/74
f 76/76/76 77/77/77 75/75/75
f 76/76/76 78/78/78 77/77/77
f 79/79/79 78/78/78 76/76/76
f 75/75/75 80/80/80 74/74/74
f 82/82/82 81/81/81 80/80/80
f 82/82/82 83/83/83 81/81/81
f 83/83/83 84/84/84 81/81/81
f 84/84/84 85/85/85 81/81/81
f 88/88/88 87/87/87 86/86/86
f 89/89/89 88/88/88 86/86/86
f 88/88/88 90/90/90 87/87/87
f 88/88/88 91/91/91 90/90/90
f 89/89/89 91/91/91 88/88/88
f 87/87/87 92/92/92 86/86/86
