g Thorn_01A
v -0.0197551 -0.01969101 0.0008947944
v -0.02045741 -0.01970022 0.0008943939
v -0.01866226 -0.01816515 0.09093281
v 0.02090023 -0.0191577 0.0009178161
v 0.01896389 -0.01767168 0.09095421
v 0.01849305 0.01822511 0.09106125
v 0.020383 0.02029901 0.001035385
v -0.01913303 0.01773157 0.09103996
v -0.02097518 0.01975649 0.001012268
v -0.01866226 -0.01816515 0.09093281
v -0.02045741 -0.01970022 0.0008943939
v -0.01451072 -0.01428892 0.1675139
v 0.01462548 -0.01390684 0.1675306
v -0.01487571 0.01350832 0.1675971
v -0.01451072 -0.01428892 0.1675139
v 0.01426102 0.01389048 0.1676135
v 0.009671253 -0.009503232 0.225208
v -0.009738803 -0.009757863 0.2251973
v -0.0001872593 -0.0005525029 0.2856042
v 0.009428372 0.0090143 0.2252634
v -0.009981647 0.008759593 0.2252526
v -0.009738803 -0.009757863 0.2251973
v 0.000293227 0.0002015358 -0.04166504
v -0.0197551 -0.01969101 0.0008947944
v 0.02090023 -0.0191577 0.0009178161
v 0.020383 0.02029901 0.001035385
v 0.000293227 0.0002015358 -0.04166504
v 0.02090023 -0.0191577 0.0009178161
v -0.0197551 -0.01969101 0.0008947944
v 0.000293227 0.0002015358 -0.04166504
v -0.02097518 0.01975649 0.001012268
v -0.02045741 -0.01970022 0.0008943939
v 0.000293227 0.0002015358 -0.04166504
v 0.020383 0.02029901 0.001035385
v -0.02097518 0.01975649 0.001012268
vt 0.8607069 0.6309206
vt 0.860496 0.630879
vt 0.862953 0.659388
vt 0.872912 0.633333
vt 0.874199 0.661455
vt 0.883132 0.656771
vt 0.883129 0.628468
vt 0.894333 0.654486
vt 0.895527 0.625677
vt 0.90335 0.659236
vt 0.905529 0.630722
vt 0.867542 0.6837
vt 0.87645 0.684635
vt 0.892087 0.679337
vt 0.898745 0.683508
vt 0.883342 0.680825
vt 0.879079 0.701773
vt 0.873164 0.701608
vt 0.883452 0.718775
vt 0.883345 0.698865
vt 0.889221 0.698361
vt 0.893451 0.701459
vt 0.8711108 0.6746457
vt 0.8718728 0.6875488
vt 0.8732021 0.6808232
vt 0.8705212 0.6751933
vt 0.8711108 0.6746457
vt 0.8732021 0.6808232
vt 0.8718728 0.6875488
vt 0.8711108 0.6746457
vt 0.8689833 0.6683615
vt 0.8718498 0.687665
vt 0.8711108 0.6746457
vt 0.8705212 0.6751933
vt 0.8689833 0.6683615
vn 0.01310406 -0.9997733 0.01678332
vn -0.6977136 -0.7159006 0.02611697
vn -0.6970106 -0.7153533 0.0494567
vn 0.7162189 -0.6973564 0.02691433
vn 0.7154756 -0.6968278 0.05025539
vn 0.6969572 0.7150409 0.05447156
vn 0.6976848 0.715728 0.0311336
vn -0.7155316 0.6965154 0.05367288
vn -0.7162504 0.6971837 0.03033606
vn -0.6970106 -0.7153533 0.0494567
vn -0.6977136 -0.7159006 0.02611697
vn -0.6947175 -0.7132781 0.09274691
vn 0.7130798 -0.6948143 0.09354305
vn -0.713186 0.6942381 0.09695045
vn -0.6947175 -0.7132781 0.09274691
vn 0.69462 0.7127053 0.09774621
vn 0.7068161 -0.6887963 0.161154
vn -0.6886874 -0.7071017 0.1603643
vn -0.0005290271 -0.002992594 0.9999954
vn 0.6885177 0.7061251 0.1653201
vn -0.7069882 0.6878211 0.1645291
vn -0.6886874 -0.7071017 0.1603643
vn 0.01214874 -0.908044 -0.4186987
vn 0.01214874 -0.908044 -0.4186986
vn 0.01214874 -0.908044 -0.4186987
vn 0.9023865 0.01311275 -0.4307281
vn 0.9023865 0.01311275 -0.4307281
vn 0.9023865 0.01311275 -0.430728
vn -0.8936405 -0.02630544 -0.448012
vn -0.8936405 -0.02630544 -0.448012
vn -0.8936405 -0.02630544 -0.448012
vn -0.8936405 -0.02630544 -0.448012
vn -0.01166014 0.906834 -0.4213266
vn -0.01166014 0.906834 -0.4213266
vn -0.01166014 0.9068341 -0.4213266
f 3/3/3 2/2/2 1/1/1
f 1/1/1 4/4/4 3/3/3
f 4/4/4 5/5/5 3/3/3
f 6/6/6 5/5/5 4/4/4
f 7/7/7 6/6/6 4/4/4
f 8/8/8 6/6/6 7/7/7
f 9/9/9 8/8/8 7/7/7
f 10/10/10 8/8/8 9/9/9
f 11/11/11 10/10/10 9/9/9
f 3/3/3 5/5/5 12/12/12
f 5/5/5 13/13/13 12/12/12
f 5/5/5 6/6/6 13/13/13
f 8/8/8 10/10/10 14/14/14
f 10/10/10 15/15/15 14/14/14
f 8/8/8 14/14/14 16/16/16
f 6/6/6 8/8/8 16/16/16
f 6/6/6 16/16/16 13/13/13
f 13/13/13 17/17/17 12/12/12
f 17/17/17 18/18/18 12/12/12
f 17/17/17 19/19/19 18/18/18
f 20/20/20 19/19/19 17/17/17
f 20/20/20 17/17/17 13/13/13
f 16/16/16 20/20/20 13/13/13
f 21/21/21 19/19/19 20/20/20
f 21/21/21 20/20/20 16/16/16
f 14/14/14 21/21/21 16/16/16
f 22/22/22 19/19/19 21/21/21
f 22/22/22 21/21/21 14/14/14
f 15/15/15 22/22/22 14/14/14
f 25/25/25 24/24/24 23/23/23
f 28/28/28 27/27/27 26/26/26
f 31/31/31 30/30/30 29/29/29
f 32/32/32 31/31/31 29/29/29
f 35/35/35 34/34/34 33/33/33
