g Cylinder
v 0.4330127 -0.05 -0.25
v 0.5 -0.05 0
v 0.5 0.05 0
v 0.4330127 0.05 -0.25
v 0.25 -0.05 -0.4330127
v 0.25 0.05 -0.4330127
v -2.18557E-08 -0.05 -0.5
v -2.18557E-08 0.05 -0.5
v -0.25 -0.05 -0.4330127
v -0.25 0.05 -0.4330127
v -0.4330128 -0.05 -0.2499999
v -0.4330128 0.05 -0.2499999
v -0.5 -0.05 4.371139E-08
v -0.5 0.05 4.371139E-08
v -0.4330126 -0.05 0.2500001
v -0.4330126 0.05 0.2500001
v -0.25 -0.05 0.4330127
v -0.25 0.05 0.4330127
v 5.962441E-09 -0.05 0.5
v 5.962441E-09 0.05 0.5
v 0.2500002 -0.05 0.4330126
v 0.2500002 0.05 0.4330126
v 0.4330128 -0.05 0.2499999
v 0.4330128 0.05 0.2499999
v 0.5 -0.05 0
v 0.5 0.05 0
vt 0.08333334 0
vt 0 0
vt 0 1
vt 0.08333334 1
vt 0.1666667 0
vt 0.1666667 1
vt 0.25 0
vt 0.25 1
vt 0.3333333 0
vt 0.3333333 1
vt 0.4166667 0
vt 0.4166667 1
vt 0.5 0
vt 0.5 1
vt 0.5833333 0
vt 0.5833333 1
vt 0.6666667 0
vt 0.6666667 1
vt 0.75 0
vt 0.75 1
vt 0.8333333 0
vt 0.8333333 1
vt 0.9166667 0
vt 0.9166667 1
vt 1 0
vt 1 1
vn 0.8660253 0 -0.5000001
vn 1 0 0
vn 1 0 0
vn 0.8660253 0 -0.5000001
vn 0.5000001 0 -0.8660253
vn 0.5000001 0 -0.8660253
vn 0 0 -1
vn 0 0 -1
vn -0.5000001 0 -0.8660253
vn -0.5000001 0 -0.8660253
vn -0.8660254 0 -0.4999999
vn -0.8660254 0 -0.4999999
vn -1 0 0
vn -1 0 0
vn -0.8660253 0 0.5000002
vn -0.8660253 0 0.5000002
vn -0.4999999 0 0.8660254
vn -0.4999999 0 0.8660254
vn 0 0 1
vn 0 0 1
vn 0.5000003 0 0.8660253
vn 0.5000003 0 0.8660253
vn 0.8660255 0 0.4999998
vn 0.8660255 0 0.4999998
vn 1 0 0
vn 1 0 0
f 3/3/3 2/2/2 1/1/1
f 4/4/4 3/3/3 1/1/1
f 4/4/4 1/1/1 5/5/5
f 6/6/6 4/4/4 5/5/5
f 6/6/6 5/5/5 7/7/7
f 8/8/8 6/6/6 7/7/7
f 8/8/8 7/7/7 9/9/9
f 10/10/10 8/8/8 9/9/9
f 10/10/10 9/9/9 11/11/11
f 12/12/12 10/10/10 11/11/11
f 12/12/12 11/11/11 13/13/13
f 14/14/14 12/12/12 13/13/13
f 14/14/14 13/13/13 15/15/15
f 16/16/16 14/14/14 15/15/15
f 16/16/16 15/15/15 17/17/17
f 18/18/18 16/16/16 17/17/17
f 18/18/18 17/17/17 19/19/19
f 20/20/20 18/18/18 19/19/19
f 20/20/20 19/19/19 21/21/21
f 22/22/22 20/20/20 21/21/21
f 22/22/22 21/21/21 23/23/23
f 24/24/24 22/22/22 23/23/23
f 24/24/24 23/23/23 25/25/25
f 26/26/26 24/24/24 25/25/25
