g Hohenheim_GasShell_01A
v 0.08035278 0.01905571 -0.01950798
v 0.08035278 0.02713619 1.525879E-07
v 0.02483826 0.0271514 1.525879E-07
v 0.02483833 0.01906647 -0.01951874
v 0.08035278 0 -0.02739922
v 0.02483833 0 -0.0274144
v 0.02483833 0.01906647 0.01951881
v 0.08035278 0.01905571 0.01950806
v 0.02483833 0 0.0274147
v 0.08035278 0 0.02739952
v 0.00959671 0.01907722 -0.0195295
v 0.009596634 0.02716661 7.629394E-08
v 0.00959671 0 -0.02742966
v -0.027556 0 -0.02746017
v -0.02755607 0.01909873 -0.01955101
v -0.06470878 0 -0.02749062
v -0.06470886 0.01912024 -0.01957252
v -0.08035271 0 -0.02752106
v -0.08035286 0.01914174 -0.01959404
v -0.06470894 0.02722743 0
v -0.08035286 0.02725784 0
v -0.06470886 0.01912023 0.0195726
v -0.08035286 0.01914174 0.01959412
v -0.06470878 0 0.02749069
v -0.027556 0 0.02746033
v -0.02755607 0.01909873 0.01955109
v -0.08035271 0 0.02752113
v 0.00959671 0 0.02742996
v 0.00959671 0.01907722 0.01952957
v 0.08035278 0.02713619 1.525879E-07
v 0.08035278 0.01905571 -0.01950798
v 0.08035278 0.01905571 0.01950806
v 0.08035278 0 0.02739952
v 0.08035278 0 -0.02739922
v -0.08035286 0.01914174 -0.01959404
v -0.08035286 0.02725784 0
v -0.08035286 0.01914174 0.01959412
v -0.08035271 0 -0.02752106
v -0.08035271 0 0.02752113
v 0.00959671 0.01907722 -0.0195295
v 0.009596634 0 -0.0195295
v -0.02755607 0 -0.01955101
v -0.02755607 0.01909873 -0.01955101
v -0.06470894 0 -0.01957252
v -0.06470886 0.01912024 -0.01957252
v 0.009596634 0 1.525879E-07
v 0.009596634 0.02716661 7.629394E-08
v 0.00959671 0.01907722 0.01952957
v 0.009596634 0 0.01952957
v -0.02755607 0.01909873 0.01955109
v -0.02755615 0 0.01955109
v -0.06470886 0.01912023 0.0195726
v -0.06470894 0 0.0195726
v -0.06470894 0 0
v -0.06470894 0.02722743 0
v -0.06470886 0.01912024 -0.01957252
v -0.06470894 0 -0.01957252
v 0.02483826 -0.0271514 1.525879E-07
v 0.08035278 -0.02713619 1.525879E-07
v 0.08035278 -0.01905571 -0.01950798
v 0.02483833 -0.01906647 -0.01951874
v 0.08035278 0 -0.02739922
v 0.02483833 0 -0.0274144
v 0.02483833 -0.01906647 0.01951881
v 0.08035278 -0.01905571 0.01950806
v 0.02483833 0 0.0274147
v 0.08035278 0 0.02739952
v 0.00959671 -0.01907722 -0.0195295
v 0.009596634 -0.0271666 7.629394E-08
v 0.00959671 0 -0.02742966
v -0.027556 0 -0.02746017
v -0.02755607 -0.01909873 -0.01955101
v -0.06470878 0 -0.02749062
v -0.06470886 -0.01912023 -0.01957252
v -0.08035271 0 -0.02752106
v -0.08035286 -0.01914174 -0.01959404
v -0.06470894 -0.02722743 0
v -0.08035286 -0.02725784 0
v -0.06470886 -0.01912023 0.0195726
v -0.08035286 -0.01914174 0.01959412
v -0.06470878 0 0.02749069
v -0.027556 0 0.02746033
v -0.02755607 -0.01909873 0.01955109
v -0.08035271 0 0.02752113
v 0.00959671 0 0.02742996
v 0.00959671 -0.01907722 0.01952957
v 0.08035278 -0.02713619 1.525879E-07
v 0.08035278 -0.01905571 0.01950806
v 0.08035278 -0.01905571 -0.01950798
v 0.08035278 0 0.02739952
v 0.08035278 0 -0.02739922
v -0.08035286 -0.01914174 -0.01959404
v -0.08035286 -0.01914174 0.01959412
v -0.08035286 -0.02725784 0
v -0.08035271 0 -0.02752106
v -0.08035271 0 0.02752113
v -0.02755607 0 -0.01955101
v 0.009596634 0 -0.0195295
v 0.00959671 -0.01907722 -0.0195295
v -0.02755607 -0.01909873 -0.01955101
v -0.06470894 0 -0.01957252
v -0.06470886 -0.01912023 -0.01957252
v 0.009596634 0 1.525879E-07
v 0.009596634 -0.0271666 7.629394E-08
v 0.00959671 -0.01907722 0.01952957
v 0.009596634 0 0.01952957
v -0.02755607 -0.01909873 0.01955109
v -0.02755615 0 0.01955109
v -0.06470886 -0.01912023 0.0195726
v -0.06470894 0 0.0195726
v -0.06470894 0 0
v -0.06470894 -0.02722743 0
v -0.06470886 -0.01912023 -0.01957252
v -0.06470894 0 -0.01957252
vt 0.8548954 0.543789
vt 0.8548992 0.5356945
vt 0.8336281 0.5356918
vt 0.8336237 0.5437866
vt 0.8548935 0.551693
vt 0.8336212 0.5516938
vt 0.8336331 0.5275969
vt 0.8549027 0.5275978
vt 0.8336321 0.5196894
vt 0.8549027 0.5196914
vt 0.8277827 0.5437841
vt 0.8277883 0.5356889
vt 0.8277797 0.5516948
vt 0.8135433 0.5516949
vt 0.8135458 0.5437743
vt 0.7993073 0.5516948
vt 0.7993098 0.5437652
vt 0.7933574 0.5517979
vt 0.7933629 0.543864
vt 0.7993482 0.5357376
vt 0.793354 0.5357456
vt 0.7993324 0.5276157
vt 0.7933394 0.5276232
vt 0.7993274 0.5196858
vt 0.8135615 0.5196858
vt 0.8135639 0.5276064
vt 0.7933332 0.5196856
vt 0.8277939 0.5196865
vt 0.8277957 0.5275961
vt 0.8043235 0.6207312
vt 0.7999715 0.6138899
vt 0.8025633 0.628646
vt 0.7958806 0.6328964
vt 0.7922405 0.6121712
vt 0.8145736 0.6961846
vt 0.8160387 0.6881735
vt 0.8114101 0.6814728
vt 0.8080274 0.7007056
vt 0.8035841 0.6800421
vt 0.8018762 0.3984662
vt 0.8087247 0.3967769
vt 0.805423 0.3834395
vt 0.7985686 0.3851372
vt 0.8021171 0.3701058
vt 0.7952554 0.3718069
vt 0.8104508 0.4037953
vt 0.8006948 0.4061855
vt 0.8053115 0.412483
vt 0.8121657 0.4108179
vt 0.808529 0.42583
vt 0.8153945 0.4241777
vt 0.8117203 0.4391859
vt 0.8185956 0.4375417
vt 0.8202758 0.4445826
vt 0.8104838 0.4469196
vt 0.8150786 0.4532627
vt 0.8219549 0.4516222
vt 0.8336281 0.5356918
vt 0.8548992 0.5356945
vt 0.8548954 0.543789
vt 0.8336237 0.5437866
vt 0.8548935 0.551693
vt 0.8336212 0.5516938
vt 0.8336331 0.5275969
vt 0.8549027 0.5275978
vt 0.8336321 0.5196894
vt 0.8549027 0.5196914
vt 0.8277827 0.5437841
vt 0.8277883 0.5356889
vt 0.8277797 0.5516948
vt 0.8135433 0.5516949
vt 0.8135458 0.5437743
vt 0.7993073 0.5516948
vt 0.7993098 0.5437652
vt 0.7933574 0.5517979
vt 0.7933629 0.543864
vt 0.7993482 0.5357376
vt 0.793354 0.5357456
vt 0.7993324 0.5276157
vt 0.7933394 0.5276232
vt 0.7993274 0.5196858
vt 0.8135615 0.5196858
vt 0.8135639 0.5276064
vt 0.7933332 0.5196856
vt 0.8277939 0.5196865
vt 0.8277957 0.5275961
vt 0.8043235 0.6207312
vt 0.8025633 0.628646
vt 0.7999715 0.6138899
vt 0.7958806 0.6328964
vt 0.7922405 0.6121712
vt 0.8145736 0.6961846
vt 0.8114101 0.6814728
vt 0.8160387 0.6881735
vt 0.8080274 0.7007056
vt 0.8035841 0.6800421
vt 0.805423 0.3834395
vt 0.8087247 0.3967769
vt 0.8018762 0.3984662
vt 0.7985686 0.3851372
vt 0.8021171 0.3701058
vt 0.7952554 0.3718069
vt 0.8104508 0.4037953
vt 0.8006948 0.4061855
vt 0.8053115 0.412483
vt 0.8121657 0.4108179
vt 0.808529 0.42583
vt 0.8153945 0.4241777
vt 0.8117203 0.4391859
vt 0.8185956 0.4375417
vt 0.8202758 0.4445826
vt 0.8104838 0.4469196
vt 0.8150786 0.4532627
vt 0.8219549 0.4516222
vn 0.0002738544 0.7070772 -0.7071363
vn 0.0002739471 0.9999999 2.156131E-06
vn 0.0006359087 0.9999998 2.423028E-06
vn 0.0006365835 0.7070772 -0.707136
vn 0.0002737391 0 -0.9999999
vn 0.0006367103 0 -0.9999998
vn 0.0006360625 0.7070796 0.7071337
vn 0.000273853 0.7070794 0.7071341
vn 0.0006366957 0 0.9999998
vn 0.0002737406 0 0.9999999
vn 0.0009306655 0.6036705 -0.7972333
vn 0.0009977565 0.9999995 2.875738E-07
vn 0.000909818 0 -0.9999996
vn 0.0008195945 0 -0.9999996
vn 0.0007572377 0.3826086 -0.9239102
vn 0.001382358 0 -0.999999
vn 0.001555001 0.603752 -0.7971707
vn 0.001945257 0 -0.9999981
vn 0.001944798 0.7070785 -0.7071324
vn 0.001944252 0.9999981 -6.568374E-07
vn 0.001944251 0.9999981 -6.574613E-07
vn 0.00155468 0.6037528 0.7971701
vn 0.001944824 0.707079 0.7071319
vn 0.001381835 0 0.999999
vn 0.000818064 0 0.9999996
vn 0.0007558151 0.3826127 0.9239085
vn 0.001945237 0 0.9999981
vn 0.0009087851 0 0.9999996
vn 0.0009293001 0.6036746 0.7972302
vn 1 0 0
vn 1 0 0
vn 1 0 0
vn 1 0 0
vn 1 0 0
vn -1 -6.642852E-06 0
vn -1 0 0
vn -1 -6.642855E-06 0
vn -1 0 0
vn -1 0 0
vn -0.7808992 1.28846E-06 0.624657
vn -0.7073114 0 0.7069021
vn -0.0005790922 0 0.9999998
vn -0.0005790923 0 0.9999998
vn 0.7069021 0 0.7073114
vn 0.7808383 -1.285234E-06 0.6247332
vn -1 0 0
vn -1 1.649819E-06 0
vn -0.7808995 1.289185E-06 -0.6246568
vn -0.7073114 0 -0.7069021
vn -0.0005790922 0 -0.9999998
vn -0.0005790923 0 -0.9999998
vn 0.7808381 -1.284496E-06 -0.6247334
vn 0.7069021 0 -0.7073114
vn 1 0 0
vn 1 -1.646123E-06 0
vn 0.7808383 -1.285234E-06 0.6247332
vn 0.7069021 0 0.7073114
vn 0.0006358864 -0.9999998 2.38196E-06
vn 0.0002739801 -0.9999999 2.094527E-06
vn 0.0002738687 -0.7070772 -0.7071363
vn 0.0006366061 -0.7070771 -0.7071361
vn 0.0002737391 0 -0.9999999
vn 0.0006367103 0 -0.9999998
vn 0.0006360308 -0.7070796 0.7071337
vn 0.0002738674 -0.7070794 0.7071341
vn 0.0006366957 0 0.9999998
vn 0.0002737406 0 0.9999999
vn 0.0009306811 -0.6036706 -0.7972333
vn 0.000997679 -0.9999995 2.464919E-07
vn 0.000909818 0 -0.9999996
vn 0.0008195945 0 -0.9999996
vn 0.000757226 -0.3826086 -0.9239102
vn 0.001382358 0 -0.999999
vn 0.001555048 -0.603752 -0.7971708
vn 0.001945257 0 -0.9999981
vn 0.001944874 -0.7070786 -0.7071323
vn 0.001944264 -0.9999981 -6.568374E-07
vn 0.001944264 -0.9999981 -6.369157E-07
vn 0.001554641 -0.6037528 0.7971701
vn 0.00194477 -0.707079 0.7071319
vn 0.001381835 0 0.999999
vn 0.000818064 0 0.9999996
vn 0.0007558182 -0.3826127 0.9239086
vn 0.001945237 0 0.9999981
vn 0.0009087851 0 0.9999996
vn 0.0009292546 -0.6036746 0.7972302
vn 1 0 0
vn 1 0 0
vn 1 0 0
vn 1 0 0
vn 1 0 0
vn -1 6.642852E-06 0
vn -1 6.642856E-06 0
vn -1 0 0
vn -1 0 0
vn -1 0 0
vn -0.0005790922 0 0.9999998
vn -0.7073114 0 0.7069021
vn -0.7808992 -1.28846E-06 0.624657
vn -0.0005790923 0 0.9999998
vn 0.7069021 0 0.7073114
vn 0.7808383 1.285234E-06 0.6247332
vn -1 0 0
vn -1 -1.649819E-06 0
vn -0.7808994 -1.289205E-06 -0.6246568
vn -0.7073114 0 -0.7069021
vn -0.0005790923 0 -0.9999998
vn -0.0005790923 0 -0.9999998
vn 0.7808381 1.284517E-06 -0.6247334
vn 0.7069021 0 -0.7073114
vn 1 0 0
vn 1 1.646123E-06 0
vn 0.7808383 1.285234E-06 0.6247332
vn 0.7069021 0 0.7073114
f 3/3/3 2/2/2 1/1/1
f 4/4/4 3/3/3 1/1/1
f 4/4/4 1/1/1 5/5/5
f 6/6/6 4/4/4 5/5/5
f 3/3/3 7/7/7 2/2/2
f 7/7/7 8/8/8 2/2/2
f 7/7/7 9/9/9 8/8/8
f 9/9/9 10/10/10 8/8/8
f 3/3/3 4/4/4 11/11/11
f 12/12/12 3/3/3 11/11/11
f 7/7/7 3/3/3 12/12/12
f 4/4/4 6/6/6 13/13/13
f 11/11/11 4/4/4 13/13/13
f 11/11/11 13/13/13 14/14/14
f 15/15/15 11/11/11 14/14/14
f 15/15/15 14/14/14 16/16/16
f 17/17/17 15/15/15 16/16/16
f 17/17/17 16/16/16 18/18/18
f 19/19/19 17/17/17 18/18/18
f 20/20/20 17/17/17 19/19/19
f 21/21/21 20/20/20 19/19/19
f 22/22/22 20/20/20 21/21/21
f 23/23/23 22/22/22 21/21/21
f 24/24/24 22/22/22 23/23/23
f 24/24/24 25/25/25 22/22/22
f 25/25/25 26/26/26 22/22/22
f 27/27/27 24/24/24 23/23/23
f 25/25/25 28/28/28 26/26/26
f 28/28/28 29/29/29 26/26/26
f 28/28/28 9/9/9 29/29/29
f 9/9/9 7/7/7 29/29/29
f 29/29/29 7/7/7 12/12/12
f 32/32/32 31/31/31 30/30/30
f 31/31/31 32/32/32 33/33/33
f 34/34/34 31/31/31 33/33/33
f 37/37/37 36/36/36 35/35/35
f 37/37/37 35/35/35 38/38/38
f 39/39/39 37/37/37 38/38/38
f 42/42/42 41/41/41 40/40/40
f 43/43/43 42/42/42 40/40/40
f 44/44/44 42/42/42 43/43/43
f 45/45/45 44/44/44 43/43/43
f 40/40/40 41/41/41 46/46/46
f 47/47/47 40/40/40 46/46/46
f 47/47/47 46/46/46 48/48/48
f 46/46/46 49/49/49 48/48/48
f 48/48/48 49/49/49 50/50/50
f 49/49/49 51/51/51 50/50/50
f 50/50/50 51/51/51 52/52/52
f 51/51/51 53/53/53 52/52/52
f 52/52/52 53/53/53 54/54/54
f 55/55/55 52/52/52 54/54/54
f 55/55/55 54/54/54 56/56/56
f 54/54/54 57/57/57 56/56/56
f 60/60/60 59/59/59 58/58/58
f 61/61/61 60/60/60 58/58/58
f 62/62/62 60/60/60 61/61/61
f 63/63/63 62/62/62 61/61/61
f 58/58/58 59/59/59 64/64/64
f 59/59/59 65/65/65 64/64/64
f 64/64/64 65/65/65 66/66/66
f 65/65/65 67/67/67 66/66/66
f 68/68/68 61/61/61 58/58/58
f 69/69/69 68/68/68 58/58/58
f 69/69/69 58/58/58 64/64/64
f 70/70/70 63/63/63 61/61/61
f 68/68/68 70/70/70 61/61/61
f 71/71/71 70/70/70 68/68/68
f 72/72/72 71/71/71 68/68/68
f 73/73/73 71/71/71 72/72/72
f 74/74/74 73/73/73 72/72/72
f 75/75/75 73/73/73 74/74/74
f 76/76/76 75/75/75 74/74/74
f 76/76/76 74/74/74 77/77/77
f 78/78/78 76/76/76 77/77/77
f 78/78/78 77/77/77 79/79/79
f 80/80/80 78/78/78 79/79/79
f 80/80/80 79/79/79 81/81/81
f 81/81/81 79/79/79 82/82/82
f 79/79/79 83/83/83 82/82/82
f 84/84/84 80/80/80 81/81/81
f 82/82/82 83/83/83 85/85/85
f 83/83/83 86/86/86 85/85/85
f 85/85/85 86/86/86 66/66/66
f 86/86/86 64/64/64 66/66/66
f 86/86/86 69/69/69 64/64/64
f 89/89/89 88/88/88 87/87/87
f 90/90/90 88/88/88 89/89/89
f 91/91/91 90/90/90 89/89/89
f 94/94/94 93/93/93 92/92/92
f 95/95/95 92/92/92 93/93/93
f 96/96/96 95/95/95 93/93/93
f 99/99/99 98/98/98 97/97/97
f 100/100/100 99/99/99 97/97/97
f 100/100/100 97/97/97 101/101/101
f 102/102/102 100/100/100 101/101/101
f 98/98/98 99/99/99 103/103/103
f 99/99/99 104/104/104 103/103/103
f 104/104/104 105/105/105 103/103/103
f 105/105/105 106/106/106 103/103/103
f 105/105/105 107/107/107 106/106/106
f 107/107/107 108/108/108 106/106/106
f 107/107/107 109/109/109 108/108/108
f 109/109/109 110/110/110 108/108/108
f 110/110/110 109/109/109 111/111/111
f 109/109/109 112/112/112 111/111/111
f 112/112/112 113/113/113 111/111/111
f 113/113/113 114/114/114 111/111/111
