g Caven_StoneDebris_02A
v -0.08422294 -0.002193919 0.19591
v -0.04583557 -0.002193911 0.2471991
v -0.04464859 -0.05649016 0.2275048
v -0.1399472 -9.067547E-09 0.1346894
v -0.08283295 -0.1238114 0.104911
v -0.08778465 -0.1238114 0.03145698
v -0.1476535 7.934629E-10 -0.05026947
v -0.08787979 -0.08259334 -0.08468414
v 0.002902374 -0.0779456 0.2591002
v 0.0005284119 1.559042E-08 0.2984886
v 0.08604363 2.978721E-09 0.2609235
v 0.1530453 6.404794E-09 0.1369737
v 0.01452347 -0.157745 0.113574
v 0.1741392 1.477732E-09 0.009708481
v 0.01433342 -0.1154183 -0.1449065
v 0.1265522 -1.499695E-10 -0.2219391
v 0.003640518 0.0779456 0.2591002
v -0.03616081 -0.08259334 -0.185312
v -0.1224204 2.354933E-10 -0.125089
v -0.07867844 -0.002193923 -0.2257171
v 0.003640518 0.0779456 0.2591002
v 0.0005284119 1.559042E-08 0.2984886
v -0.04583557 -0.002193911 0.2471991
v -0.04427956 0.05210232 0.2275048
v -0.08422294 -0.002193919 0.19591
v -0.1399472 -9.067547E-09 0.1346894
v -0.08283295 0.1194235 0.104911
v -0.08778465 0.1194235 0.03145698
v -0.1476535 7.934629E-10 -0.05026947
v -0.08787979 0.07820549 -0.09504119
v 0.01433342 0.1154183 -0.1656203
v 0.01452347 0.1575633 0.04216255
v 0.1530453 6.404794E-09 0.1369737
v 0.1741392 1.477732E-09 0.009708481
v 0.1265522 -1.499695E-10 -0.2219391
v 0.08604363 2.978721E-09 0.2609235
v -0.03616081 0.07820549 -0.1956688
v -0.1224204 2.354933E-10 -0.125089
v -0.07867844 -0.002193923 -0.2257171
v 0.1265522 -1.499695E-10 -0.2219391
v -0.005714569 -4.781031E-09 -0.2609129
v 0.01433342 -0.1154183 -0.1449065
v -0.03616081 -0.08259334 -0.185312
v 0.01433342 -0.1154183 -0.1449065
v -0.005714569 -4.781031E-09 -0.2609129
v -0.04618523 -0.002193927 -0.243315
v 0.01433342 0.1154183 -0.1656203
v -0.005714569 -4.781031E-09 -0.2609129
v 0.1265522 -1.499695E-10 -0.2219391
v -0.07867844 -0.002193923 -0.2257171
v -0.04618523 -0.002193927 -0.243315
v -0.03616081 0.07820549 -0.1956688
v -0.03616081 -0.08259334 -0.185312
v -0.04618523 -0.002193927 -0.243315
v -0.07867844 -0.002193923 -0.2257171
v -0.03616081 0.07820549 -0.1956688
v -0.04618523 -0.002193927 -0.243315
v -0.005714569 -4.781031E-09 -0.2609129
v 0.01433342 0.1154183 -0.1656203
vt 0.3863378 0.6547405
vt 0.4025812 0.687267
vt 0.3982176 0.669547
vt 0.379222 0.619103
vt 0.4018012 0.6017913
vt 0.3873952 0.5750623
vt 0.3489172 0.5371664
vt 0.3868526 0.5263828
vt 0.4076555 0.6879828
vt 0.4204632 0.7210088
vt 0.4398623 0.6861647
vt 0.4409026 0.62249
vt 0.4215698 0.6086454
vt 0.4717921 0.567366
vt 0.4237432 0.498464
vt 0.4779083 0.4519894
vt 0.4435151 0.7168656
vt 0.4041659 0.4765469
vt 0.3598282 0.4975674
vt 0.3754629 0.4482301
vt 0.4145898 0.6870205
vt 0.3865622 0.7482085
vt 0.3854407 0.7024296
vt 0.4045929 0.6681404
vt 0.3865334 0.6571355
vt 0.3772391 0.6180653
vt 0.4018617 0.5993789
vt 0.3879565 0.5742413
vt 0.3455558 0.5375054
vt 0.3837595 0.5227787
vt 0.4188659 0.4902804
vt 0.4264686 0.5821643
vt 0.4408343 0.6237859
vt 0.4729332 0.5649623
vt 0.4721685 0.445951
vt 0.4344337 0.6850442
vt 0.3961565 0.4692442
vt 0.3545671 0.4953032
vt 0.3641572 0.4422529
vt 0.03434997 0.3889539
vt 0.03471268 0.3650669
vt 0.006471421 0.3689463
vt 0.0176507 0.3604518
vt 0.006471421 0.3689463
vt 0.03471268 0.3650669
vt 0.03465435 0.3571547
vt 0.06187413 0.3688707
vt 0.03471268 0.3650669
vt 0.03434997 0.3889539
vt 0.03492016 0.350611
vt 0.03465435 0.3571547
vt 0.05122886 0.3600942
vt 0.0176507 0.3604518
vt 0.03465435 0.3571547
vt 0.03492016 0.350611
vt 0.05122886 0.3600942
vt 0.03465435 0.3571547
vt 0.03471268 0.3650669
vt 0.06187413 0.3688707
vn -0.8110436 -0.0003210656 0.5849856
vn -0.7489173 -0.002382513 0.6626592
vn -0.6469963 -0.4949427 0.5800237
vn -0.9415849 0.008460262 0.3366695
vn -0.6558953 -0.7138152 0.2454978
vn -0.6327676 -0.7689987 -0.09080826
vn -0.9872928 0.003585112 -0.1588717
vn -0.6374438 -0.7259538 -0.258179
vn 0.003021559 -0.7068123 0.7073947
vn -0.1700558 0.003352952 0.9854288
vn 0.7445594 0.02777391 0.6669781
vn 0.9447007 0.02907931 0.3266421
vn 0.1748805 -0.9651239 0.1948145
vn 0.9989369 -0.003491243 -0.04596505
vn 0.1670214 -0.9656757 -0.1989327
vn 0.9789333 0.03532717 -0.2011007
vn 0.03225409 0.7565786 0.6531067
vn -0.6272878 -0.718001 -0.3016366
vn -0.9244067 -0.00646719 -0.3813534
vn -0.9035133 -2.259932E-05 -0.4285601
vn 0.03225409 0.7565786 0.6531067
vn -0.1700558 0.003352952 0.9854288
vn -0.7489173 -0.002382513 0.6626592
vn -0.6217269 0.537019 0.5701458
vn -0.8110436 -0.0003210656 0.5849856
vn -0.9415849 0.008460262 0.3366695
vn -0.6251391 0.7316613 0.2717956
vn -0.6618137 0.7464135 -0.06978081
vn -0.9872928 0.003585112 -0.1588717
vn -0.6696205 0.6934182 -0.2660444
vn 0.1328975 0.9643977 -0.2286378
vn 0.176076 0.9831746 0.04863169
vn 0.9447007 0.02907931 0.3266421
vn 0.9989369 -0.003491243 -0.04596505
vn 0.9789333 0.03532717 -0.2011007
vn 0.7445594 0.02777391 0.6669781
vn -0.6474729 0.6919132 -0.319429
vn -0.9244067 -0.00646719 -0.3813534
vn -0.9035133 -2.259932E-05 -0.4285601
vn 0.2085246 -0.6750626 -0.7076779
vn 0.2085246 -0.6750626 -0.7076779
vn 0.2085246 -0.6750626 -0.7076779
vn -0.03805731 -0.6670335 -0.744055
vn -0.0380573 -0.6670335 -0.744055
vn -0.03805731 -0.6670335 -0.744055
vn -0.03805731 -0.6670335 -0.744055
vn 0.2268907 0.5963293 -0.7700077
vn 0.2268907 0.5963293 -0.7700078
vn 0.2268907 0.5963293 -0.7700077
vn -0.4118668 0.5020284 -0.7604822
vn -0.4118669 0.5020285 -0.7604822
vn -0.4118668 0.5020285 -0.7604822
vn -0.3912869 -0.5700115 -0.7224828
vn -0.3912869 -0.5700115 -0.7224828
vn -0.3912869 -0.5700116 -0.7224828
vn -0.1512486 0.5978552 -0.7872058
vn -0.1512486 0.5978552 -0.7872058
vn -0.1512486 0.5978552 -0.7872058
vn -0.1512486 0.5978552 -0.7872058
f 3/3/3 2/2/2 1/1/1
f 1/1/1 4/4/4 3/3/3
f 4/4/4 5/5/5 3/3/3
f 6/6/6 5/5/5 4/4/4
f 7/7/7 6/6/6 4/4/4
f 8/8/8 6/6/6 7/7/7
f 2/2/2 3/3/3 9/9/9
f 9/9/9 3/3/3 5/5/5
f 10/10/10 2/2/2 9/9/9
f 11/11/11 10/10/10 9/9/9
f 11/11/11 9/9/9 12/12/12
f 9/9/9 13/13/13 12/12/12
f 13/13/13 6/6/6 8/8/8
f 13/13/13 9/9/9 5/5/5
f 13/13/13 5/5/5 6/6/6
f 12/12/12 13/13/13 14/14/14
f 13/13/13 15/15/15 14/14/14
f 15/15/15 13/13/13 8/8/8
f 14/14/14 15/15/15 16/16/16
f 17/17/17 10/10/10 11/11/11
f 15/15/15 8/8/8 18/18/18
f 18/18/18 8/8/8 19/19/19
f 7/7/7 19/19/19 8/8/8
f 20/20/20 18/18/18 19/19/19
f 23/23/23 22/22/22 21/21/21
f 24/24/24 23/23/23 21/21/21
f 25/25/25 23/23/23 24/24/24
f 26/26/26 25/25/25 24/24/24
f 27/27/27 26/26/26 24/24/24
f 27/27/27 24/24/24 21/21/21
f 27/27/27 28/28/28 26/26/26
f 28/28/28 29/29/29 26/26/26
f 28/28/28 30/30/30 29/29/29
f 31/31/31 30/30/30 28/28/28
f 32/32/32 31/31/31 28/28/28
f 32/32/32 27/27/27 21/21/21
f 32/32/32 28/28/28 27/27/27
f 32/32/32 21/21/21 33/33/33
f 32/32/32 33/33/33 34/34/34
f 31/31/31 32/32/32 34/34/34
f 31/31/31 34/34/34 35/35/35
f 21/21/21 36/36/36 33/33/33
f 31/31/31 37/37/37 30/30/30
f 38/38/38 30/30/30 37/37/37
f 29/29/29 30/30/30 38/38/38
f 39/39/39 38/38/38 37/37/37
f 42/42/42 41/41/41 40/40/40
f 45/45/45 44/44/44 43/43/43
f 46/46/46 45/45/45 43/43/43
f 49/49/49 48/48/48 47/47/47
f 52/52/52 51/51/51 50/50/50
f 55/55/55 54/54/54 53/53/53
f 58/58/58 57/57/57 56/56/56
f 59/59/59 58/58/58 56/56/56
