g ice_01A
v 0.2980168 3.576278E-08 -0.2494134
v 0.3692084 3.695488E-08 -0.2005513
v 0.2283951 0.2111217 -0.1359818
v 0.349233 3.695488E-08 -0.1070242
v 0.1874562 0.2712635 0.04076805
v 0.3117892 3.457069E-08 0.006141357
v 0.2446546 3.218651E-08 0.1992572
v 0.1766644 0.1876766 0.2021242
v 0.1601121 0.2426392 -0.2695124
v -1.558103E-08 0.3089364 -0.1151231
v -7.445924E-09 0.3368938 -0.296103
v 0.2307607 3.457069E-08 -0.3353796
v 0.1356403 0.1624811 -0.4057199
v -9.727664E-09 0.2157379 -0.4292034
v 0.141288 2.861023E-08 -0.385711
v 0.0667032 2.264976E-08 -0.4525997
v 0.05932791 0.1276148 0.3475595
v 0.112024 2.980232E-08 0.3724182
v 0.002323329 0.236958 0.2534595
v -0.04855732 2.145767E-08 0.4345965
v -2.613757E-08 2.026558E-08 -0.4858374
v -0.174651 0.2426392 -0.2952344
v -0.2189849 0.2111216 -0.1025755
v -0.1251365 0.1624811 -0.3775542
v -0.2642129 8.34465E-09 -0.351095
v -0.3144841 4.768371E-09 -0.2237415
v -0.386033 2.384186E-09 -0.09130264
v -0.327238 5.960464E-09 -0.05415802
v -0.2716002 0.2712634 0.09245842
v -0.1911587 1.311302E-08 -0.4091456
v -0.08123173 1.788139E-08 -0.4574807
v -0.3352682 8.34465E-09 0.1017854
v -0.2506279 1.072884E-08 0.2005299
v -0.1812626 0.1876765 0.1857104
v -0.1259446 0.1278292 0.3742607
v -0.1724645 1.192093E-08 0.3659715
v -2.859626E-08 0.3516726 0.04643517
v 0.2980168 3.576278E-08 -0.2494134
v 0.2283951 -0.1970779 -0.1359818
v 0.3692084 3.695488E-08 -0.2005513
v 0.349233 3.695488E-08 -0.1070242
v 0.1874562 -0.1943095 0.04076805
v 0.3117892 3.457069E-08 0.006141357
v 0.2446546 3.218651E-08 0.1992572
v 0.1766644 -0.2154684 0.2021242
v 0.160112 -0.2317154 -0.2695125
v -3.267079E-08 -0.2948926 -0.1151231
v -2.161134E-08 -0.3259699 -0.296103
v 0.2307607 3.457069E-08 -0.3353796
v 0.1356403 -0.1624811 -0.4057199
v -1.942739E-08 -0.2157378 -0.4292034
v 0.141288 2.861023E-08 -0.385711
v 0.0667032 2.264976E-08 -0.4525997
v 0.05932791 -0.1276148 0.3475595
v 0.112024 2.980232E-08 0.3724182
v 0.002323319 -0.2647499 0.2534595
v -0.04855732 2.145767E-08 0.4345965
v -2.613757E-08 2.026558E-08 -0.4858374
v -0.174651 -0.2317154 -0.2952344
v -0.2189849 -0.1970779 -0.1025755
v -0.1251366 -0.1624811 -0.3775542
v -0.2642129 8.34465E-09 -0.351095
v -0.3144841 4.768371E-09 -0.2237415
v -0.386033 2.384186E-09 -0.09130264
v -0.327238 5.960464E-09 -0.05415802
v -0.2716002 -0.1943095 0.09245842
v -0.1911587 1.311302E-08 -0.4091456
v -0.08123173 1.788139E-08 -0.4574807
v -0.3352682 8.34465E-09 0.1017854
v -0.2506279 1.072884E-08 0.2005299
v -0.1812626 -0.2154683 0.1857104
v -0.1259446 -0.1278292 0.3742605
v -0.1724645 1.192093E-08 0.3659715
v -4.25335E-08 -0.2747186 0.04643517
vt 0.1393113 0.2977682
vt 0.1105761 0.4094115
vt 0.3144065 0.4524869
vt 0.1210373 0.5218093
vt 0.3340135 0.5610659
vt 0.1741071 0.6243094
vt 0.2767965 0.7832131
vt 0.4003804 0.74096
vt 0.3471479 0.3316133
vt 0.5189109 0.4633088
vt 0.5190442 0.3554699
vt 0.2196244 0.1929548
vt 0.4021278 0.2304667
vt 0.5192096 0.2526225
vt 0.3117805 0.1350979
vt 0.4389495 0.09479952
vt 0.4515224 0.8497214
vt 0.375635 0.8844446
vt 0.518699 0.7817034
vt 0.5090141 0.9386951
vt 0.520681 0.08725318
vt 0.6722646 0.332705
vt 0.7045312 0.4535478
vt 0.617878 0.2315487
vt 0.7704153 0.194814
vt 0.8499858 0.2993044
vt 0.8783422 0.4102778
vt 0.867955 0.5219179
vt 0.685101 0.561855
vt 0.7092041 0.1368681
vt 0.6019022 0.09560144
vt 0.8148164 0.6249545
vt 0.7192513 0.7782558
vt 0.6183236 0.7413685
vt 0.5856929 0.8499407
vt 0.6275939 0.8754715
vt 0.5188991 0.5557369
vt 0.1393113 0.2977682
vt 0.3144065 0.4524869
vt 0.1105761 0.4094115
vt 0.1210373 0.5218093
vt 0.3340135 0.5610659
vt 0.1741071 0.6243094
vt 0.2767965 0.7832131
vt 0.4003804 0.74096
vt 0.3471479 0.3316133
vt 0.5189109 0.4633088
vt 0.5190442 0.3554699
vt 0.2196244 0.1929548
vt 0.4021278 0.2304667
vt 0.5192096 0.2526225
vt 0.3117805 0.1350979
vt 0.4389495 0.09479952
vt 0.4515224 0.8497214
vt 0.375635 0.8844446
vt 0.518699 0.7817034
vt 0.5090141 0.9386951
vt 0.520681 0.08725318
vt 0.6722646 0.332705
vt 0.7045312 0.4535478
vt 0.617878 0.2315487
vt 0.7704153 0.194814
vt 0.8499858 0.2993044
vt 0.8783422 0.4102778
vt 0.867955 0.5219179
vt 0.685101 0.561855
vt 0.7092041 0.1368681
vt 0.6019022 0.09560144
vt 0.8148164 0.6249545
vt 0.7192513 0.7782558
vt 0.6183236 0.7413685
vt 0.5856929 0.8499407
vt 0.6275939 0.8754715
vt 0.5188991 0.5557369
vn 0.7349577 -0.01339195 -0.6779808
vn 0.9256982 -0.01386628 -0.3780087
vn 0.7194303 0.6822632 -0.1301425
vn 0.9728211 -0.03163636 0.2293868
vn 0.6372865 0.7564019 0.147384
vn 0.956991 -0.04992712 0.2857893
vn 0.8945296 -0.01038401 0.4468881
vn 0.6682944 0.5622342 0.4871092
vn 0.6425574 0.7110857 -0.2854418
vn 0.003657655 0.9942988 -0.1065668
vn 0.003739531 0.9529089 -0.3032337
vn 0.7450224 -0.005518457 -0.6670167
vn 0.6047194 0.3608422 -0.7100052
vn -0.007454682 0.5366328 -0.843783
vn 0.5768687 0 -0.816837
vn 0.450922 0 -0.8925633
vn 0.3246198 0.5358915 0.7793859
vn 0.5973682 0.007954103 0.8019277
vn 0.06026021 0.802931 0.5930182
vn -0.009608614 0.009602235 0.9999077
vn -0.05675535 0 -0.9983882
vn -0.6345567 0.6909147 -0.3463738
vn -0.6889372 0.699864 -0.1885624
vn -0.4753842 0.4244885 -0.7705968
vn -0.8084038 -0.005590925 -0.5886017
vn -0.93374 -0.01281499 -0.3577226
vn -0.9760492 -0.0135677 0.2171261
vn -0.9149497 -0.03527049 0.4020237
vn -0.6928827 0.6909939 0.2060121
vn -0.5317683 0 -0.8468899
vn -0.4154285 0 -0.9096258
vn -0.9406309 -0.03249209 0.3378723
vn -0.8199608 -0.00532284 0.5723948
vn -0.5592595 0.5796639 0.5926369
vn -0.3840356 0.5582072 0.7354736
vn -0.7694636 0.00826661 0.6386372
vn 0.02614919 0.9934508 0.1112285
vn 0.7349577 -0.01339195 -0.6779808
vn 0.6976027 -0.7163967 -0.01122834
vn 0.9256982 -0.01386628 -0.3780087
vn 0.9728211 -0.03163636 0.2293868
vn 0.6604742 -0.7393758 0.1307567
vn 0.956991 -0.04992712 0.2857893
vn 0.8945296 -0.01038401 0.4468881
vn 0.6496929 -0.6796333 0.3405842
vn 0.6439071 -0.7199057 -0.2590741
vn 0.01561632 -0.995926 0.08881203
vn 0.003748725 -0.9616665 -0.2741962
vn 0.7450224 -0.005518457 -0.6670167
vn 0.6081417 -0.3767446 -0.6987326
vn -0.007750572 -0.5584303 -0.8295153
vn 0.5768687 0 -0.816837
vn 0.450922 0 -0.8925633
vn 0.358558 -0.4764667 0.802755
vn 0.5973682 0.007954103 0.8019277
vn 0.04930326 -0.9022005 0.4284898
vn -0.009608614 0.009602235 0.9999077
vn -0.05675535 0 -0.9983882
vn -0.6346362 -0.7014304 -0.3243951
vn -0.6582887 -0.7509494 -0.05225865
vn -0.4830223 -0.4430287 -0.7552582
vn -0.8084038 -0.005590925 -0.5886017
vn -0.93374 -0.01281499 -0.3577226
vn -0.9760492 -0.0135677 0.2171261
vn -0.9149497 -0.03527049 0.4020237
vn -0.7348958 -0.6473204 0.2022481
vn -0.5317683 0 -0.8468899
vn -0.4154285 0 -0.9096258
vn -0.9406309 -0.03249209 0.3378723
vn -0.8199608 -0.00532284 0.5723948
vn -0.5614611 -0.7502834 0.3490504
vn -0.4075388 -0.5065199 0.7598353
vn -0.7694636 0.00826661 0.6386372
vn 0.02832407 -0.9988524 0.03862004
f 3/3/3 2/2/2 1/1/1
f 3/3/3 4/4/4 2/2/2
f 5/5/5 4/4/4 3/3/3
f 6/6/6 4/4/4 5/5/5
f 7/7/7 6/6/6 5/5/5
f 8/8/8 7/7/7 5/5/5
f 9/9/9 3/3/3 1/1/1
f 10/10/10 3/3/3 9/9/9
f 11/11/11 10/10/10 9/9/9
f 1/1/1 12/12/12 9/9/9
f 13/13/13 9/9/9 12/12/12
f 14/14/14 11/11/11 9/9/9
f 13/13/13 14/14/14 9/9/9
f 15/15/15 13/13/13 12/12/12
f 15/15/15 16/16/16 13/13/13
f 13/13/13 16/16/16 14/14/14
f 8/8/8 17/17/17 7/7/7
f 17/17/17 18/18/18 7/7/7
f 19/19/19 17/17/17 8/8/8
f 8/8/8 5/5/5 19/19/19
f 20/20/20 18/18/18 17/17/17
f 17/17/17 19/19/19 20/20/20
f 16/16/16 21/21/21 14/14/14
f 10/10/10 11/11/11 22/22/22
f 11/11/11 14/14/14 22/22/22
f 23/23/23 10/10/10 22/22/22
f 14/14/14 24/24/24 22/22/22
f 22/22/22 24/24/24 25/25/25
f 25/25/25 26/26/26 22/22/22
f 23/23/23 22/22/22 26/26/26
f 27/27/27 23/23/23 26/26/26
f 28/28/28 23/23/23 27/27/27
f 28/28/28 29/29/29 23/23/23
f 24/24/24 30/30/30 25/25/25
f 31/31/31 30/30/30 24/24/24
f 28/28/28 32/32/32 29/29/29
f 32/32/32 33/33/33 29/29/29
f 33/33/33 34/34/34 29/29/29
f 29/29/29 34/34/34 19/19/19
f 35/35/35 34/34/34 33/33/33
f 36/36/36 35/35/35 33/33/33
f 35/35/35 19/19/19 34/34/34
f 36/36/36 20/20/20 35/35/35
f 19/19/19 35/35/35 20/20/20
f 31/31/31 24/24/24 14/14/14
f 21/21/21 31/31/31 14/14/14
f 37/37/37 29/29/29 19/19/19
f 5/5/5 37/37/37 19/19/19
f 5/5/5 3/3/3 37/37/37
f 3/3/3 10/10/10 37/37/37
f 23/23/23 29/29/29 37/37/37
f 10/10/10 23/23/23 37/37/37
f 40/40/40 39/39/39 38/38/38
f 41/41/41 39/39/39 40/40/40
f 41/41/41 42/42/42 39/39/39
f 41/41/41 43/43/43 42/42/42
f 43/43/43 44/44/44 42/42/42
f 44/44/44 45/45/45 42/42/42
f 39/39/39 46/46/46 38/38/38
f 39/39/39 47/47/47 46/46/46
f 47/47/47 48/48/48 46/46/46
f 49/49/49 38/38/38 46/46/46
f 46/46/46 50/50/50 49/49/49
f 51/51/51 50/50/50 46/46/46
f 48/48/48 51/51/51 46/46/46
f 50/50/50 52/52/52 49/49/49
f 53/53/53 52/52/52 50/50/50
f 53/53/53 50/50/50 51/51/51
f 54/54/54 45/45/45 44/44/44
f 55/55/55 54/54/54 44/44/44
f 54/54/54 56/56/56 45/45/45
f 42/42/42 45/45/45 56/56/56
f 55/55/55 57/57/57 54/54/54
f 56/56/56 54/54/54 57/57/57
f 58/58/58 53/53/53 51/51/51
f 48/48/48 47/47/47 59/59/59
f 51/51/51 48/48/48 59/59/59
f 47/47/47 60/60/60 59/59/59
f 61/61/61 51/51/51 59/59/59
f 61/61/61 59/59/59 62/62/62
f 63/63/63 62/62/62 59/59/59
f 59/59/59 60/60/60 63/63/63
f 60/60/60 64/64/64 63/63/63
f 60/60/60 65/65/65 64/64/64
f 66/66/66 65/65/65 60/60/60
f 67/67/67 61/61/61 62/62/62
f 67/67/67 68/68/68 61/61/61
f 69/69/69 65/65/65 66/66/66
f 70/70/70 69/69/69 66/66/66
f 71/71/71 70/70/70 66/66/66
f 71/71/71 66/66/66 56/56/56
f 71/71/71 72/72/72 70/70/70
f 72/72/72 73/73/73 70/70/70
f 56/56/56 72/72/72 71/71/71
f 57/57/57 73/73/73 72/72/72
f 72/72/72 56/56/56 57/57/57
f 61/61/61 68/68/68 51/51/51
f 68/68/68 58/58/58 51/51/51
f 66/66/66 74/74/74 56/56/56
f 74/74/74 42/42/42 56/56/56
f 39/39/39 42/42/42 74/74/74
f 47/47/47 39/39/39 74/74/74
f 60/60/60 47/47/47 74/74/74
f 66/66/66 60/60/60 74/74/74
