g Plane001
v -0.1432707 0.02209949 0.05670486
v -0.0477569 -0.004860578 0.05670486
v -0.1432707 0.08650995 0.1701146
v -0.0477569 0.02410488 0.1701146
v 0.04775688 -0.01595023 0.05670486
v 0.0477569 -0.007439177 0.1701146
v 0.1432707 -0.01116945 0.05670487
v 0.1432707 -0.008122198 0.1701146
v -0.04775691 -0.01929253 -0.05670486
v -0.1432707 -0.0154607 -0.05670486
v 0.04775688 -0.01107771 -0.05670486
v 0.1432707 0.009183774 -0.05670483
v -0.04775692 -0.01919098 -0.1701146
v -0.1432707 -0.02617063 -0.1701145
v 0.04775686 0.007178385 -0.1701145
v 0.1432706 0.05293747 -0.1701145
vt 0 0.3333333
vt 0.3333333 0.3333333
vt 0 0
vt 0.3333333 0
vt 0.6666667 0.3333333
vt 0.6666667 0
vt 1 0.3333333
vt 1 0
vt 0.3333333 0.6666667
vt 0 0.6666667
vt 0.6666667 0.6666667
vt 1 0.6666667
vt 0.3333333 1
vt 0 1
vt 0.6666667 1
vt 1 1
vn 0.2082094 0.9102712 -0.3578479
vn 0.1996318 0.9606813 -0.192973
vn 0.4092538 0.847466 -0.3381018
vn 0.3959715 0.8995152 -0.1846054
vn 0.03770412 0.999066 -0.02110712
vn 0.1506423 0.9867287 -0.06060768
vn -0.03714233 0.9973753 0.06215264
vn 0.007148263 0.9996137 -0.02685905
vn -0.01803509 0.9975163 -0.06808844
vn 0.01417269 0.9835141 -0.1802753
vn -0.1494678 0.9833606 0.1032533
vn -0.1682974 0.9575112 0.2341973
vn -0.1454668 0.9890292 -0.02570124
vn -0.07255945 0.9929463 -0.09376966
vn -0.3138428 0.9430872 0.1099507
vn -0.3264062 0.9139876 0.2410095
f 3/3/3 2/2/2 1/1/1
f 2/2/2 3/3/3 4/4/4
f 4/4/4 5/5/5 2/2/2
f 5/5/5 4/4/4 6/6/6
f 6/6/6 7/7/7 5/5/5
f 7/7/7 6/6/6 8/8/8
f 9/9/9 1/1/1 2/2/2
f 1/1/1 9/9/9 10/10/10
f 2/2/2 11/11/11 9/9/9
f 11/11/11 2/2/2 5/5/5
f 5/5/5 12/12/12 11/11/11
f 12/12/12 5/5/5 7/7/7
f 13/13/13 10/10/10 9/9/9
f 10/10/10 13/13/13 14/14/14
f 9/9/9 15/15/15 13/13/13
f 15/15/15 9/9/9 11/11/11
f 11/11/11 16/16/16 15/15/15
f 16/16/16 11/11/11 12/12/12
