g PT_Venus_Heart_01A
v -0.06305864 0.01667395 0.001632328
v -0.05906671 0.02629595 0.009589481
v -0.05903406 0.01667395 0.01047525
v -0.04670328 0.03333986 0.01771494
v -0.04635946 0.01667395 0.01820307
v -0.04761938 0.0455401 0.01038782
v -0.05935375 0.0345875 0.005350284
v -0.04761938 0.0500057 0.001632328
v -0.05935375 0.03716573 0.001632328
v -0.02968586 0.0359181 0.02085917
v -0.02965654 0.01667395 0.02237085
v -0.02983505 0.05005617 0.01470591
v -0.02968586 0.05516218 0.001632328
v -0.01267118 0.03333986 0.02084635
v -0.01274683 0.01667391 0.02317926
v -0.01272318 0.05000582 0.001632328
v -0.01272318 0.0455401 0.01423685
v -4.386902E-07 0.01684271 0.02049356
v -4.386902E-07 0.03343489 0.001632328
v -0.01902883 -0.003736591 0.0214242
v -4.386902E-07 -0.003612995 0.02228708
v -0.01731512 -0.01947443 0.01812479
v -4.386902E-07 -0.01998743 0.01842279
v -5.245209E-06 -0.04166887 0.009514561
v -4.386902E-07 0.02855547 0.01322092
v -0.04314888 -0.00367197 0.0161828
v -0.05552124 -0.001811466 0.009613132
v -0.05854149 -0.0005358696 0.001632328
v -0.03866459 -0.01934965 0.01158609
v -0.04661779 -0.01845533 0.001632328
v -0.02960974 -0.03324465 0.001632328
v -0.02678984 -0.03099569 0.01033762
v -0.01180414 -0.0422333 0.007722874
v -5.245209E-06 -0.05516218 0.001632328
v -0.01614378 -0.0438685 0.001632328
v 0.0118033 -0.0422333 0.007722874
v 0.01614286 -0.0438685 0.001632328
v 0.02960886 -0.03324465 0.001632328
v 0.026789 -0.03099565 0.01033762
v 0.0173142 -0.01947443 0.01812479
v 0.03866365 -0.01934965 0.01158609
v 0.04661692 -0.01845533 0.001632328
v 0.05552038 -0.001811466 0.009613132
v 0.04314798 -0.003671932 0.0161828
v 0.04635859 0.01667395 0.01820307
v 0.05903314 0.01667395 0.01047525
v 0.0467024 0.03333986 0.01771494
v 0.05906584 0.02629595 0.009589481
v 0.06305773 0.01667402 0.001632328
v 0.0476185 0.0455401 0.01038782
v 0.05935289 0.0345875 0.005350284
v 0.0476185 0.05000582 0.001632328
v 0.05935289 0.03716573 0.001632328
v 0.029685 0.03591799 0.02085917
v 0.02965567 0.01667395 0.02237085
v 0.02983412 0.05005617 0.01470591
v 0.029685 0.05516206 0.001632328
v 0.01267027 0.03333986 0.02084635
v 0.01274595 0.01667391 0.02317926
v 0.01272226 0.0500057 0.001632328
v 0.01272226 0.0455401 0.01423685
v 0.01902799 -0.003736591 0.0214242
v 0.05854063 -0.0005358696 0.001632328
v -0.06305774 0.01667402 -0.001632481
v -0.05903322 0.01667402 -0.01047541
v -0.05906587 0.02629595 -0.009589481
v -0.04670246 0.03333986 -0.01771494
v -0.04635854 0.01667402 -0.01820307
v -0.04761852 0.0455401 -0.01038782
v -0.05935291 0.0345875 -0.005350284
v -0.04761852 0.05000566 -0.001632481
v -0.05935291 0.03716573 -0.001632481
v -0.029685 0.0359181 -0.02085932
v -0.02965569 0.01667402 -0.02237085
v -0.02983414 0.05005617 -0.01470606
v -0.029685 0.05516218 -0.001632481
v -0.01267027 0.03333986 -0.02084635
v -0.01274603 0.01667391 -0.02317926
v -0.01272226 0.05000578 -0.001632481
v -0.01272226 0.0455401 -0.01423685
v 4.386902E-07 0.01684271 -0.02049356
v 4.386902E-07 0.03343489 -0.001632481
v -0.01902799 -0.003736591 -0.0214242
v 4.386902E-07 -0.003612995 -0.02228723
v -0.0173142 -0.01947443 -0.01812479
v 4.386902E-07 -0.01998743 -0.01842279
v -5.245209E-06 -0.04166887 -0.009514561
v 4.386902E-07 0.02855535 -0.01322092
v -0.04314802 -0.00367197 -0.01618296
v -0.05552036 -0.001811352 -0.009613132
v -0.05854065 -0.0005358696 -0.001632481
v -0.03866367 -0.01934961 -0.01158625
v -0.04661693 -0.01845533 -0.001632481
v -0.02960888 -0.03324465 -0.001632481
v -0.02678904 -0.03099569 -0.01033762
v -0.0118033 -0.0422333 -0.007722874
v -5.245209E-06 -0.05516218 -0.001632481
v -0.01614286 -0.04386862 -0.001632481
v 0.0118041 -0.0422333 -0.007722874
v 0.0161437 -0.04386862 -0.001632481
v 0.02960978 -0.03324465 -0.001632481
v 0.02678987 -0.03099558 -0.01033762
v 0.01731512 -0.01947443 -0.01812479
v 0.03866453 -0.01934961 -0.01158625
v 0.04661783 -0.01845533 -0.001632481
v 0.05552122 -0.001811352 -0.009613132
v 0.04314886 -0.003671818 -0.01618296
v 0.04635946 0.01667402 -0.01820307
v 0.05903406 0.01667402 -0.01047541
v 0.04670328 0.03333986 -0.01771494
v 0.05906671 0.02629595 -0.009589481
v 0.06305864 0.01667402 -0.001632481
v 0.0476193 0.0455401 -0.01038782
v 0.05935381 0.0345875 -0.005350284
v 0.0476193 0.05000578 -0.001632481
v 0.05935381 0.03716573 -0.001632481
v 0.02968584 0.03591799 -0.02085932
v 0.02965658 0.01667402 -0.02237085
v 0.02983503 0.05005617 -0.01470606
v 0.02968584 0.05516206 -0.001632481
v 0.01267118 0.03333986 -0.02084635
v 0.01274683 0.01667391 -0.02317926
v 0.01272318 0.05000566 -0.001632481
v 0.01272318 0.0455401 -0.01423685
v 0.01902887 -0.003736591 -0.0214242
v 0.05854147 -0.0005358696 -0.001632481
v -4.386902E-07 0.03343489 0.001632328
v 4.386902E-07 0.03343489 -0.001632481
v 0.01272318 0.05000566 -0.001632481
v 0.01272226 0.0500057 0.001632328
v 0.02968584 0.05516206 -0.001632481
v 0.029685 0.05516206 0.001632328
v 0.0476193 0.05000578 -0.001632481
v 0.0476185 0.05000582 0.001632328
v 0.05935381 0.03716573 -0.001632481
v 0.05935289 0.03716573 0.001632328
v 0.06305864 0.01667402 -0.001632481
v 0.06305773 0.01667402 0.001632328
v 0.05854147 -0.0005358696 -0.001632481
v 0.05854063 -0.0005358696 0.001632328
v 0.04661783 -0.01845533 -0.001632481
v 0.04661692 -0.01845533 0.001632328
v 0.02960978 -0.03324465 -0.001632481
v 0.02960886 -0.03324465 0.001632328
v 0.0161437 -0.04386862 -0.001632481
v 0.01614286 -0.0438685 0.001632328
v -5.245209E-06 -0.05516218 -0.001632481
v -5.245209E-06 -0.05516218 0.001632328
v -5.245209E-06 -0.05516218 0.001632328
v -5.245209E-06 -0.05516218 -0.001632481
v -0.01614286 -0.04386862 -0.001632481
v -0.01614378 -0.0438685 0.001632328
v -0.02960888 -0.03324465 -0.001632481
v -0.02960974 -0.03324465 0.001632328
v -0.04661693 -0.01845533 -0.001632481
v -0.04661779 -0.01845533 0.001632328
v -0.05854065 -0.0005358696 -0.001632481
v -0.05854149 -0.0005358696 0.001632328
v -0.06305774 0.01667402 -0.001632481
v -0.06305864 0.01667395 0.001632328
v -0.05935291 0.03716573 -0.001632481
v -0.05935375 0.03716573 0.001632328
v -0.04761852 0.05000566 -0.001632481
v -0.04761938 0.0500057 0.001632328
v -0.029685 0.05516218 -0.001632481
v -0.02968586 0.05516218 0.001632328
v -0.01272226 0.05000578 -0.001632481
v -0.01272318 0.05000582 0.001632328
v 4.386902E-07 0.03343489 -0.001632481
v -4.386902E-07 0.03343489 0.001632328
vt 1 0.6511356
vt 0.9683475 0.7383512
vt 0.9680886 0.6511356
vt 0.8703163 0.8021985
vt 0.8675901 0.6511356
vt 0.8775802 0.9127837
vt 0.9706235 0.8135073
vt 0.8775802 0.9532607
vt 0.9706235 0.8368769
vt 0.735383 0.8255681
vt 0.7351506 0.6511356
vt 0.736566 0.9537181
vt 0.735383 0.9999999
vt 0.6004715 0.8021985
vt 0.6010714 0.6511353
vt 0.6008837 0.9532618
vt 0.6008838 0.9127837
vt 0.5000036 0.6526654
vt 0.5000036 0.8030599
vt 0.6508821 0.4661308
vt 0.5000036 0.4672511
vt 0.6372938 0.3234802
vt 0.5000036 0.3188303
vt 0.5000416 0.1223058
vt 0.5000036 0.758832
vt 0.842133 0.4667165
vt 0.940235 0.4835805
vt 0.9641829 0.4951427
vt 0.8065765 0.3246112
vt 0.8696384 0.3327174
vt 0.7347794 0.1986644
vt 0.7124201 0.2190494
vt 0.5935966 0.1171897
vt 0.5000416 -2.185883E-08
vt 0.6280061 0.1023679
vt 0.4064101 0.1171898
vt 0.3720012 0.1023679
vt 0.2652276 0.1986645
vt 0.2875867 0.2190498
vt 0.3627135 0.3234802
vt 0.193431 0.3246112
vt 0.1303686 0.3327175
vt 0.05977196 0.4835805
vt 0.1578743 0.4667169
vt 0.132417 0.6511357
vt 0.03191882 0.6511357
vt 0.1296908 0.8021985
vt 0.03165954 0.7383512
vt 7.331371E-06 0.6511364
vt 0.1224269 0.9127837
vt 0.02938342 0.8135073
vt 0.1224269 0.9532618
vt 0.02938342 0.836877
vt 0.2646239 0.8255671
vt 0.2648566 0.6511357
vt 0.2634416 0.9537182
vt 0.2646239 0.9999989
vt 0.399536 0.8021985
vt 0.3989359 0.6511353
vt 0.3991236 0.9532608
vt 0.3991237 0.9127837
vt 0.3491247 0.4661309
vt 0.035824 0.4951428
vt 0.9999929 0.6511363
vt 0.968082 0.6511363
vt 0.9683408 0.7383512
vt 0.8703098 0.8021985
vt 0.8675828 0.6511363
vt 0.8775734 0.9127837
vt 0.9706169 0.8135073
vt 0.8775734 0.9532604
vt 0.9706169 0.8368769
vt 0.7353762 0.8255681
vt 0.7351437 0.6511363
vt 0.7365587 0.9537181
vt 0.7353762 0.9999999
vt 0.6004642 0.8021985
vt 0.6010649 0.6511353
vt 0.6008765 0.9532614
vt 0.6008765 0.9127837
vt 0.4999965 0.6526654
vt 0.4999966 0.8030599
vt 0.6508753 0.4661308
vt 0.4999965 0.4672512
vt 0.6372865 0.3234802
vt 0.4999965 0.3188303
vt 0.5000416 0.1223058
vt 0.4999965 0.7588309
vt 0.8421261 0.4667165
vt 0.940228 0.4835815
vt 0.9641763 0.4951427
vt 0.8065692 0.3246115
vt 0.8696316 0.3327174
vt 0.7347726 0.1986644
vt 0.7124137 0.2190494
vt 0.5935899 0.1171897
vt 0.5000416 -2.185883E-08
vt 0.6279988 0.1023669
vt 0.4064038 0.1171898
vt 0.3719945 0.1023669
vt 0.2652203 0.1986645
vt 0.2875797 0.2190505
vt 0.3627062 0.3234802
vt 0.193424 0.3246116
vt 0.1303613 0.3327175
vt 0.05976522 0.4835816
vt 0.1578673 0.466718
vt 0.13241 0.6511364
vt 0.03191143 0.6511364
vt 0.1296838 0.8021985
vt 0.03165251 0.7383512
vt 5.960464E-08 0.6511364
vt 0.1224205 0.9127837
vt 0.02937621 0.8135073
vt 0.1224205 0.9532614
vt 0.02937621 0.836877
vt 0.2646172 0.8255671
vt 0.2648492 0.6511364
vt 0.2634342 0.9537182
vt 0.2646173 0.9999989
vt 0.3995286 0.8021985
vt 0.3989288 0.6511353
vt 0.3991163 0.9532604
vt 0.3991163 0.9127837
vt 0.3491177 0.4661309
vt 0.03581733 0.4951428
vt 0.5000036 0.8030599
vt 0.4999966 0.8030599
vt 0.3991163 0.9532604
vt 0.3991236 0.9532608
vt 0.2646173 0.9999989
vt 0.2646239 0.9999989
vt 0.1224205 0.9532614
vt 0.1224269 0.9532618
vt 0.02937621 0.836877
vt 0.02938342 0.836877
vt 5.960464E-08 0.6511364
vt 7.331371E-06 0.6511364
vt 0.03581733 0.4951428
vt 0.035824 0.4951428
vt 0.1303613 0.3327175
vt 0.1303686 0.3327175
vt 0.2652203 0.1986645
vt 0.2652276 0.1986645
vt 0.3719945 0.1023669
vt 0.3720012 0.1023679
vt 0.5000416 -2.185883E-08
vt 0.5000416 -2.185883E-08
vt 0.5000416 -2.185883E-08
vt 0.5000416 -2.185883E-08
vt 0.6279988 0.1023669
vt 0.6280061 0.1023679
vt 0.7347726 0.1986644
vt 0.7347794 0.1986644
vt 0.8696316 0.3327174
vt 0.8696384 0.3327174
vt 0.9641763 0.4951427
vt 0.9641829 0.4951427
vt 0.9999929 0.6511363
vt 1 0.6511356
vt 0.9706169 0.8368769
vt 0.9706235 0.8368769
vt 0.8775734 0.9532604
vt 0.8775802 0.9532607
vt 0.7353762 0.9999999
vt 0.735383 0.9999999
vt 0.6008765 0.9532614
vt 0.6008837 0.9532618
vt 0.4999966 0.8030599
vt 0.5000036 0.8030599
vn -0.9313306 -0.06312447 0.3586623
vn -0.7774224 0.1455159 0.6119147
vn -0.7559562 -0.07659233 0.650126
vn -0.4217241 0.2373624 0.8751045
vn -0.3833314 -0.04916445 0.9223015
vn -0.4941932 0.6288811 0.6002347
vn -0.8434495 0.3519356 0.4058747
vn -0.4744467 0.7936981 0.3807147
vn -0.822261 0.4922149 0.285677
vn -0.1107042 0.2663617 0.9574947
vn -0.1397722 -0.01965621 0.9899886
vn -0.04710672 0.7422875 0.6684237
vn -0.01051688 0.9268976 0.3751669
vn 0.261301 0.313496 0.9129304
vn 0.06407992 0.04991572 0.9966956
vn 0.5109019 0.8068519 0.296596
vn 0.4721358 0.6728932 0.5694755
vn 0 0.1978702 0.9802282
vn -2.532833E-07 0.9291738 0.3696434
vn -0.1148917 -0.1613735 0.9801829
vn 0 -0.1172881 0.9930979
vn -0.140297 -0.3233522 0.9358205
vn 1.858482E-06 -0.301988 0.9533117
vn -4.071457E-05 -0.4580316 0.8889359
vn -8.070514E-07 0.6764546 0.7364843
vn -0.36814 -0.2477912 0.8961431
vn -0.7333158 -0.3512409 0.582132
vn -0.8827904 -0.3525623 0.3104527
vn -0.4895042 -0.526566 0.6950639
vn -0.6642329 -0.6158694 0.4236737
vn -0.5711145 -0.7155676 0.4022328
vn -0.4284776 -0.6096202 0.6669109
vn -0.3122813 -0.5928865 0.7422708
vn -7.959846E-05 -0.6115103 0.7912365
vn -0.505866 -0.6719912 0.540858
vn 0.3122267 -0.5929452 0.7422469
vn 0.505804 -0.6720629 0.5408268
vn 0.571115 -0.7155669 0.4022332
vn 0.4284788 -0.609619 0.6669111
vn 0.1402948 -0.3233553 0.9358198
vn 0.4895033 -0.5265654 0.6950651
vn 0.6642315 -0.6158695 0.4236758
vn 0.7333158 -0.3512406 0.5821322
vn 0.3681395 -0.2477911 0.8961434
vn 0.3833314 -0.04916465 0.9223014
vn 0.7559561 -0.07659281 0.6501262
vn 0.4217238 0.2373623 0.8751047
vn 0.7774227 0.1455143 0.6119147
vn 0.9313308 -0.0631237 0.358662
vn 0.4941916 0.6288804 0.6002367
vn 0.8434498 0.351934 0.4058754
vn 0.4744432 0.7936987 0.3807178
vn 0.8222614 0.4922127 0.2856796
vn 0.110705 0.2663599 0.957495
vn 0.1397723 -0.01965613 0.9899885
vn 0.0471043 0.7422885 0.6684228
vn 0.01051519 0.926899 0.3751635
vn -0.2613014 0.313496 0.9129304
vn -0.06407979 0.04991572 0.9966956
vn -0.5109028 0.806854 0.296589
vn -0.4721362 0.6728952 0.5694729
vn 0.1148922 -0.1613737 0.9801828
vn 0.8827911 -0.3525608 0.3104525
vn -0.9313302 -0.06312349 -0.3586634
vn -0.7559547 -0.07658987 -0.6501281
vn -0.7774225 0.1455182 -0.611914
vn -0.4217265 0.2373619 -0.8751035
vn -0.3833311 -0.04916279 -0.9223017
vn -0.4941943 0.62888 -0.6002349
vn -0.8434497 0.3519337 -0.4058761
vn -0.4744464 0.7936967 -0.380718
vn -0.822258 0.4922161 -0.2856838
vn -0.1107039 0.2663596 -0.9574953
vn -0.1397713 -0.01965628 -0.9899887
vn -0.04710603 0.7422864 -0.668425
vn -0.01051759 0.9268972 -0.3751678
vn 0.2613048 0.3134946 -0.9129298
vn 0.06407899 0.04991572 -0.9966957
vn 0.5109028 0.8068514 -0.2965961
vn 0.4721391 0.6728922 -0.5694741
vn -4.134749E-07 0.1978742 -0.9802274
vn 1.393051E-06 0.9291704 -0.3696518
vn -0.114892 -0.1613736 -0.9801828
vn 0 -0.1172883 -0.9930979
vn -0.1402958 -0.3233535 -0.9358203
vn 2.152333E-06 -0.3019903 -0.953311
vn -4.776054E-05 -0.4580282 -0.8889377
vn 8.307914E-07 0.6764535 -0.7364853
vn -0.3681414 -0.2477911 -0.8961425
vn -0.7333149 -0.3512392 -0.5821342
vn -0.8827876 -0.3525626 -0.3104603
vn -0.4895015 -0.5265644 -0.695067
vn -0.6642315 -0.6158656 -0.4236815
vn -0.5711135 -0.715566 -0.402237
vn -0.4284766 -0.6096204 -0.6669114
vn -0.3122837 -0.5928762 -0.7422781
vn -9.374185E-05 -0.6115002 -0.7912443
vn -0.5058665 -0.6719775 -0.5408746
vn 0.3122177 -0.5929432 -0.7422523
vn 0.5057902 -0.6720586 -0.5408452
vn 0.5711098 -0.7155643 -0.4022453
vn 0.4284738 -0.6096185 -0.6669149
vn 0.1402943 -0.3233576 -0.9358191
vn 0.4895005 -0.5265633 -0.6950685
vn 0.6642315 -0.6158647 -0.4236829
vn 0.7333148 -0.3512392 -0.5821344
vn 0.3681404 -0.2477895 -0.8961434
vn 0.3833319 -0.04916284 -0.9223013
vn 0.755954 -0.07658991 -0.6501288
vn 0.4217257 0.2373625 -0.8751037
vn 0.7774201 0.1455183 -0.611917
vn 0.931329 -0.06312425 -0.3586664
vn 0.494192 0.6288798 -0.600237
vn 0.8434484 0.3519336 -0.4058789
vn 0.4744424 0.7936979 -0.3807204
vn 0.8222565 0.4922162 -0.2856878
vn 0.1107043 0.2663581 -0.9574957
vn 0.1397716 -0.01965639 -0.9899886
vn 0.04710541 0.7422873 -0.668424
vn 0.01051455 0.9268987 -0.3751642
vn -0.2613038 0.3134949 -0.9129301
vn -0.06407978 0.04991626 -0.9966956
vn -0.5109031 0.8068534 -0.29659
vn -0.4721383 0.6728944 -0.5694721
vn 0.1148925 -0.1613736 -0.9801828
vn 0.8827879 -0.3525627 -0.3104595
vn -0.7931799 0.6089874 -0.0002213532
vn -0.7931799 0.6089874 -0.0002213532
vn -0.569187 0.822208 -0.0001602115
vn -0.5692586 0.8221585 -0.0001602312
vn -0.007522226 0.9999717 -1.040569E-05
vn -0.007615032 0.999971 -1.042984E-05
vn 0.5271143 0.8497944 0.0001319333
vn 0.5270512 0.8498335 0.000131916
vn 0.8962169 0.443616 0.0002425632
vn 0.8961975 0.4436553 0.0002425563
vn 0.9992431 -0.03889808 0.000274429
vn 0.999243 -0.03890108 0.0002744289
vn 0.9123148 -0.4094895 0.0002451269
vn 0.9123057 -0.4095096 0.0002451244
vn 0.7510935 -0.6601958 0.0002056984
vn 0.7510727 -0.6602195 0.0002056937
vn 0.6379635 -0.7700666 0.00018217
vn 0.6379584 -0.7700708 0.0001821695
vn 0.596499 -0.8026139 0.0001341685
vn 0.5964935 -0.8026178 0.0001341576
vn 0.5731098 -0.8194786 8.801377E-05
vn 0.5731098 -0.8194786 8.801377E-05
vn -0.573359 -0.8193042 -6.596951E-05
vn -0.573359 -0.8193042 -6.596951E-05
vn -0.5966154 -0.8025273 -0.0001102047
vn -0.5966226 -0.802522 -0.0001102186
vn -0.6379593 -0.7700701 -0.0001634933
vn -0.637964 -0.7700662 -0.0001634956
vn -0.751073 -0.6602191 -0.000196253
vn -0.7510925 -0.660197 -0.0001962579
vn -0.9123055 -0.4095102 -0.0002415673
vn -0.9123146 -0.40949 -0.0002415702
vn -0.9992431 -0.03889731 -0.0002660814
vn -0.999243 -0.0389008 -0.0002660814
vn -0.8961977 0.4436549 -0.0002369245
vn -0.8962155 0.4436189 -0.0002369292
vn -0.5270548 0.8498312 -0.0001423845
vn -0.5271188 0.8497916 -0.0001424008
vn 0.007610444 0.999971 -2.542282E-06
vn 0.007515529 0.9999717 -2.567661E-06
vn 0.569262 0.8221562 0.0001509386
vn 0.5691862 0.8222086 0.0001509174
vn 0.793182 0.6089847 0.0002140554
vn 0.7931819 0.6089848 0.0002140554
f 3/3/3 2/2/2 1/1/1
f 4/4/4 2/2/2 3/3/3
f 5/5/5 4/4/4 3/3/3
f 4/4/4 6/6/6 2/2/2
f 6/6/6 7/7/7 2/2/2
f 7/7/7 1/1/1 2/2/2
f 6/6/6 8/8/8 7/7/7
f 8/8/8 9/9/9 7/7/7
f 7/7/7 9/9/9 1/1/1
f 10/10/10 4/4/4 5/5/5
f 11/11/11 10/10/10 5/5/5
f 12/12/12 6/6/6 4/4/4
f 10/10/10 12/12/12 4/4/4
f 13/13/13 8/8/8 6/6/6
f 12/12/12 13/13/13 6/6/6
f 14/14/14 10/10/10 11/11/11
f 14/14/14 12/12/12 10/10/10
f 15/15/15 14/14/14 11/11/11
f 16/16/16 13/13/13 12/12/12
f 17/17/17 16/16/16 12/12/12
f 17/17/17 12/12/12 14/14/14
f 18/18/18 14/14/14 15/15/15
f 18/18/18 17/17/17 14/14/14
f 19/19/19 16/16/16 17/17/17
f 11/11/11 20/20/20 15/15/15
f 21/21/21 18/18/18 15/15/15
f 20/20/20 21/21/21 15/15/15
f 21/21/21 20/20/20 22/22/22
f 23/23/23 21/21/21 22/22/22
f 24/24/24 23/23/23 22/22/22
f 18/18/18 25/25/25 17/17/17
f 17/17/17 25/25/25 19/19/19
f 26/26/26 20/20/20 11/11/11
f 26/26/26 22/22/22 20/20/20
f 5/5/5 26/26/26 11/11/11
f 27/27/27 26/26/26 5/5/5
f 3/3/3 27/27/27 5/5/5
f 28/28/28 27/27/27 3/3/3
f 1/1/1 28/28/28 3/3/3
f 27/27/27 29/29/29 26/26/26
f 29/29/29 22/22/22 26/26/26
f 30/30/30 29/29/29 27/27/27
f 28/28/28 30/30/30 27/27/27
f 31/31/31 29/29/29 30/30/30
f 29/29/29 32/32/32 22/22/22
f 29/29/29 31/31/31 32/32/32
f 33/33/33 32/32/32 31/31/31
f 32/32/32 33/33/33 22/22/22
f 33/33/33 24/24/24 22/22/22
f 34/34/34 24/24/24 33/33/33
f 35/35/35 34/34/34 33/33/33
f 33/33/33 31/31/31 35/35/35
f 24/24/24 34/34/34 36/36/36
f 34/34/34 37/37/37 36/36/36
f 38/38/38 36/36/36 37/37/37
f 39/39/39 36/36/36 38/38/38
f 36/36/36 39/39/39 40/40/40
f 39/39/39 41/41/41 40/40/40
f 38/38/38 41/41/41 39/39/39
f 41/41/41 38/38/38 42/42/42
f 41/41/41 42/42/42 43/43/43
f 41/41/41 43/43/43 44/44/44
f 40/40/40 41/41/41 44/44/44
f 44/44/44 43/43/43 45/45/45
f 43/43/43 46/46/46 45/45/45
f 47/47/47 45/45/45 46/46/46
f 48/48/48 47/47/47 46/46/46
f 48/48/48 46/46/46 49/49/49
f 50/50/50 47/47/47 48/48/48
f 51/51/51 50/50/50 48/48/48
f 49/49/49 51/51/51 48/48/48
f 52/52/52 50/50/50 51/51/51
f 53/53/53 52/52/52 51/51/51
f 53/53/53 51/51/51 49/49/49
f 47/47/47 54/54/54 45/45/45
f 54/54/54 55/55/55 45/45/45
f 44/44/44 45/45/45 55/55/55
f 56/56/56 54/54/54 47/47/47
f 50/50/50 56/56/56 47/47/47
f 57/57/57 56/56/56 50/50/50
f 52/52/52 57/57/57 50/50/50
f 54/54/54 58/58/58 55/55/55
f 56/56/56 58/58/58 54/54/54
f 58/58/58 59/59/59 55/55/55
f 57/57/57 60/60/60 56/56/56
f 60/60/60 61/61/61 56/56/56
f 56/56/56 61/61/61 58/58/58
f 58/58/58 18/18/18 59/59/59
f 61/61/61 18/18/18 58/58/58
f 60/60/60 19/19/19 61/61/61
f 62/62/62 55/55/55 59/59/59
f 18/18/18 21/21/21 59/59/59
f 21/21/21 62/62/62 59/59/59
f 40/40/40 62/62/62 21/21/21
f 23/23/23 40/40/40 21/21/21
f 23/23/23 24/24/24 40/40/40
f 25/25/25 18/18/18 61/61/61
f 25/25/25 61/61/61 19/19/19
f 62/62/62 44/44/44 55/55/55
f 40/40/40 44/44/44 62/62/62
f 24/24/24 36/36/36 40/40/40
f 63/63/63 49/49/49 46/46/46
f 43/43/43 63/63/63 46/46/46
f 42/42/42 63/63/63 43/43/43
f 66/66/66 65/65/65 64/64/64
f 66/66/66 67/67/67 65/65/65
f 67/67/67 68/68/68 65/65/65
f 69/69/69 67/67/67 66/66/66
f 70/70/70 69/69/69 66/66/66
f 64/64/64 70/70/70 66/66/66
f 71/71/71 69/69/69 70/70/70
f 72/72/72 71/71/71 70/70/70
f 72/72/72 70/70/70 64/64/64
f 67/67/67 73/73/73 68/68/68
f 73/73/73 74/74/74 68/68/68
f 75/75/75 73/73/73 67/67/67
f 69/69/69 75/75/75 67/67/67
f 76/76/76 75/75/75 69/69/69
f 71/71/71 76/76/76 69/69/69
f 73/73/73 77/77/77 74/74/74
f 75/75/75 77/77/77 73/73/73
f 77/77/77 78/78/78 74/74/74
f 76/76/76 79/79/79 75/75/75
f 79/79/79 80/80/80 75/75/75
f 75/75/75 80/80/80 77/77/77
f 77/77/77 81/81/81 78/78/78
f 80/80/80 81/81/81 77/77/77
f 79/79/79 82/82/82 80/80/80
f 83/83/83 74/74/74 78/78/78
f 81/81/81 84/84/84 78/78/78
f 84/84/84 83/83/83 78/78/78
f 85/85/85 83/83/83 84/84/84
f 86/86/86 85/85/85 84/84/84
f 86/86/86 87/87/87 85/85/85
f 88/88/88 81/81/81 80/80/80
f 88/88/88 80/80/80 82/82/82
f 83/83/83 89/89/89 74/74/74
f 85/85/85 89/89/89 83/83/83
f 89/89/89 68/68/68 74/74/74
f 89/89/89 90/90/90 68/68/68
f 90/90/90 65/65/65 68/68/68
f 90/90/90 91/91/91 65/65/65
f 91/91/91 64/64/64 65/65/65
f 92/92/92 90/90/90 89/89/89
f 85/85/85 92/92/92 89/89/89
f 92/92/92 93/93/93 90/90/90
f 93/93/93 91/91/91 90/90/90
f 92/92/92 94/94/94 93/93/93
f 95/95/95 92/92/92 85/85/85
f 94/94/94 92/92/92 95/95/95
f 95/95/95 96/96/96 94/94/94
f 96/96/96 95/95/95 85/85/85
f 87/87/87 96/96/96 85/85/85
f 87/87/87 97/97/97 96/96/96
f 97/97/97 98/98/98 96/96/96
f 94/94/94 96/96/96 98/98/98
f 97/97/97 87/87/87 99/99/99
f 100/100/100 97/97/97 99/99/99
f 99/99/99 101/101/101 100/100/100
f 99/99/99 102/102/102 101/101/101
f 102/102/102 99/99/99 103/103/103
f 104/104/104 102/102/102 103/103/103
f 104/104/104 101/101/101 102/102/102
f 101/101/101 104/104/104 105/105/105
f 105/105/105 104/104/104 106/106/106
f 106/106/106 104/104/104 107/107/107
f 104/104/104 103/103/103 107/107/107
f 106/106/106 107/107/107 108/108/108
f 109/109/109 106/106/106 108/108/108
f 108/108/108 110/110/110 109/109/109
f 110/110/110 111/111/111 109/109/109
f 109/109/109 111/111/111 112/112/112
f 110/110/110 113/113/113 111/111/111
f 113/113/113 114/114/114 111/111/111
f 114/114/114 112/112/112 111/111/111
f 113/113/113 115/115/115 114/114/114
f 115/115/115 116/116/116 114/114/114
f 114/114/114 116/116/116 112/112/112
f 117/117/117 110/110/110 108/108/108
f 118/118/118 117/117/117 108/108/108
f 108/108/108 107/107/107 118/118/118
f 119/119/119 113/113/113 110/110/110
f 117/117/117 119/119/119 110/110/110
f 120/120/120 115/115/115 113/113/113
f 119/119/119 120/120/120 113/113/113
f 121/121/121 117/117/117 118/118/118
f 121/121/121 119/119/119 117/117/117
f 122/122/122 121/121/121 118/118/118
f 123/123/123 120/120/120 119/119/119
f 124/124/124 123/123/123 119/119/119
f 124/124/124 119/119/119 121/121/121
f 81/81/81 121/121/121 122/122/122
f 81/81/81 124/124/124 121/121/121
f 82/82/82 123/123/123 124/124/124
f 118/118/118 125/125/125 122/122/122
f 84/84/84 81/81/81 122/122/122
f 125/125/125 84/84/84 122/122/122
f 84/84/84 125/125/125 103/103/103
f 86/86/86 84/84/84 103/103/103
f 87/87/87 86/86/86 103/103/103
f 81/81/81 88/88/88 124/124/124
f 124/124/124 88/88/88 82/82/82
f 107/107/107 125/125/125 118/118/118
f 107/107/107 103/103/103 125/125/125
f 99/99/99 87/87/87 103/103/103
f 126/126/126 106/106/106 109/109/109
f 112/112/112 126/126/126 109/109/109
f 126/126/126 105/105/105 106/106/106
f 129/129/129 128/128/128 127/127/127
f 130/130/130 129/129/129 127/127/127
f 131/131/131 129/129/129 130/130/130
f 132/132/132 131/131/131 130/130/130
f 133/133/133 131/131/131 132/132/132
f 134/134/134 133/133/133 132/132/132
f 135/135/135 133/133/133 134/134/134
f 136/136/136 135/135/135 134/134/134
f 137/137/137 135/135/135 136/136/136
f 138/138/138 137/137/137 136/136/136
f 139/139/139 137/137/137 138/138/138
f 140/140/140 139/139/139 138/138/138
f 141/141/141 139/139/139 140/140/140
f 142/142/142 141/141/141 140/140/140
f 143/143/143 141/141/141 142/142/142
f 144/144/144 143/143/143 142/142/142
f 145/145/145 143/143/143 144/144/144
f 146/146/146 145/145/145 144/144/144
f 147/147/147 145/145/145 146/146/146
f 148/148/148 147/147/147 146/146/146
f 151/151/151 150/150/150 149/149/149
f 152/152/152 151/151/151 149/149/149
f 153/153/153 151/151/151 152/152/152
f 154/154/154 153/153/153 152/152/152
f 155/155/155 153/153/153 154/154/154
f 156/156/156 155/155/155 154/154/154
f 157/157/157 155/155/155 156/156/156
f 158/158/158 157/157/157 156/156/156
f 159/159/159 157/157/157 158/158/158
f 160/160/160 159/159/159 158/158/158
f 161/161/161 159/159/159 160/160/160
f 162/162/162 161/161/161 160/160/160
f 163/163/163 161/161/161 162/162/162
f 164/164/164 163/163/163 162/162/162
f 165/165/165 163/163/163 164/164/164
f 166/166/166 165/165/165 164/164/164
f 167/167/167 165/165/165 166/166/166
f 168/168/168 167/167/167 166/166/166
f 169/169/169 167/167/167 168/168/168
f 170/170/170 169/169/169 168/168/168
