g Circle
v -8.742278E-08 -1.509958E-07 0.5000002
v -4.371141E-08 -7.549794E-08 0.2500003
v 0.4666667 -7.108612E-08 0.2353912
v 0.4000001 -1.41178E-07 0.4674899
v -0.4666667 -6.984335E-08 0.231276
v -0.4000001 -1.406809E-07 0.465844
v -0.7333333 -1.101089E-07 0.3646093
v -0.9333333 -5.915558E-08 0.195885
v -2.05447E-14 -3.832678E-14 2.96316E-07
v -0.5 9.320398E-10 -0.003086141
v -0.4666665 7.158317E-08 -0.2370368
v -1 1.864155E-09 -0.006172703
v -0.9333333 6.263529E-08 -0.2074072
v -0.7333333 1.128429E-07 -0.3736623
v -0.3999999 1.421722E-07 -0.4707817
v 4.371137E-08 7.549786E-08 -0.2499997
v 0.4666668 6.934619E-08 -0.2296294
v 8.742278E-08 1.509958E-07 -0.4999998
v 0.4000002 1.396866E-07 -0.4625513
v 0.7333335 1.086175E-07 -0.3596705
v 0.9333335 5.816132E-08 -0.1925924
v 0.5000002 -9.321164E-10 0.003086734
v 1 -1.864157E-09 0.006173046
v 0.9333335 -6.164111E-08 0.2041155
v 0.7333334 -1.113517E-07 0.3687246
vt 0.5 0.9901961
vt 0.5 0.7450982
vt 0.2712418 0.7307755
vt 0.3039215 0.9583232
vt 0.7287582 0.726741
vt 0.6960784 0.9567095
vt 0.8594771 0.8574599
vt 0.9575163 0.692044
vt 0.5 0.5000002
vt 0.7450981 0.4969742
vt 0.7287582 0.2676109
vt 0.9901961 0.4939482
vt 0.9575163 0.2966596
vt 0.8594771 0.1336644
vt 0.6960784 0.03844917
vt 0.5 0.2549021
vt 0.2712418 0.274873
vt 0.5 0.009803891
vt 0.3039215 0.04651821
vt 0.1405229 0.1473817
vt 0.04248358 0.3111838
vt 0.2549019 0.5030261
vt 0.009803921 0.5060518
vt 0.04248358 0.7001131
vt 0.1405229 0.8614944
vn 0 1 0
vn 0 1 0
vn 0 1 0
vn 0 1 0
vn 0 1 0
vn 0 1 0
vn 0 1 0
vn 0 1 0
vn 0 1 0
vn 0 1 0
vn 0 1 0
vn 0 1 0
vn 0 1 0
vn 0 1 0
vn 0 1 0
vn 0 1 0
vn 0 1 0
vn 0 1 0
vn 0 1 0
vn 0 1 0
vn 0 1 0
vn 0 1 0
vn 0 1 0
vn 0 1 0
vn 0 1 0
f 3/3/3 2/2/2 1/1/1
f 4/4/4 3/3/3 1/1/1
f 2/2/2 5/5/5 1/1/1
f 5/5/5 6/6/6 1/1/1
f 6/6/6 5/5/5 7/7/7
f 5/5/5 8/8/8 7/7/7
f 5/5/5 2/2/2 9/9/9
f 2/2/2 3/3/3 9/9/9
f 10/10/10 5/5/5 9/9/9
f 11/11/11 10/10/10 9/9/9
f 10/10/10 11/11/11 12/12/12
f 5/5/5 10/10/10 12/12/12
f 8/8/8 5/5/5 12/12/12
f 11/11/11 13/13/13 12/12/12
f 13/13/13 11/11/11 14/14/14
f 11/11/11 15/15/15 14/14/14
f 16/16/16 11/11/11 9/9/9
f 17/17/17 16/16/16 9/9/9
f 16/16/16 17/17/17 18/18/18
f 11/11/11 16/16/16 18/18/18
f 15/15/15 11/11/11 18/18/18
f 17/17/17 19/19/19 18/18/18
f 19/19/19 17/17/17 20/20/20
f 17/17/17 21/21/21 20/20/20
f 22/22/22 17/17/17 9/9/9
f 17/17/17 22/22/22 23/23/23
f 21/21/21 17/17/17 23/23/23
f 22/22/22 3/3/3 23/23/23
f 3/3/3 22/22/22 9/9/9
f 3/3/3 24/24/24 23/23/23
f 24/24/24 3/3/3 25/25/25
f 3/3/3 4/4/4 25/25/25
