g Caven_StoneDebris_02A
v -0.02446373 0 0.2298698
v -0.007137146 0 0.3274551
v 0.06372673 -0.04579124 0.1268684
v -0.0449723 0 0.08454208
v 0.0347271 0 0.3451224
v -0.05730514 0 -0.06070228
v 0.01906036 -0.06877243 -0.07483566
v 0.05323479 0 -0.04110458
v 0.07941414 0 -0.1407642
v 0.07915474 0 0.1279394
v -0.09288131 0 -0.162673
v 0.01906036 -0.0947059 -0.3451224
v 0.1097111 0 -0.3183639
v -0.1097111 0 -0.3056311
v -0.02446373 0 0.2298698
v 0.06372673 0.04579124 0.1268684
v -0.007137146 0 0.3274551
v -0.0449723 0 0.08454208
v -0.05730514 0 -0.06070228
v 0.01906036 0.06877243 -0.07483566
v 0.05323479 0 -0.04110458
v 0.07941414 0 -0.1407642
v 0.07915474 0 0.1279394
v -0.09288131 0 -0.162673
v 0.01906036 0.09470589 -0.3451224
v 0.1097111 0 -0.3183639
v -0.1097111 0 -0.3056311
v 0.0347271 0 0.3451224
v 0.1097111 0 -0.3183639
v 0.009530258 -2.840055E-09 -0.3600011
v 0.01906036 -0.0947059 -0.3451224
v 0.01906036 -0.0947059 -0.3451224
v 0.009530258 -2.840055E-09 -0.3600011
v -0.1097111 0 -0.3056311
v 0.01906036 0.09470589 -0.3451224
v 0.009530258 -2.840055E-09 -0.3600011
v 0.1097111 0 -0.3183639
v -0.1097111 0 -0.3056311
v 0.009530258 -2.840055E-09 -0.3600011
v 0.01906036 0.09470589 -0.3451224
vt 0.3982552 0.7566726
vt 0.4069994 0.805921
vt 0.4190149 0.7046909
vt 0.3879052 0.6833301
vt 0.4281271 0.8148371
vt 0.3816811 0.6100296
vt 0.4202205 0.6028969
vt 0.4374673 0.61992
vt 0.4506793 0.5696248
vt 0.434102 0.7052314
vt 0.3637269 0.5585681
vt 0.4202205 0.4664914
vt 0.4659693 0.4799955
vt 0.3552334 0.4864214
vt 0.3982552 0.7566726
vt 0.4190149 0.7046909
vt 0.4069994 0.805921
vt 0.3879052 0.6833301
vt 0.3816811 0.6100296
vt 0.4202205 0.6028969
vt 0.4374673 0.61992
vt 0.4506793 0.5696248
vt 0.434102 0.7052314
vt 0.3637269 0.5585681
vt 0.4202205 0.4664914
vt 0.4659693 0.4799955
vt 0.3552334 0.4864214
vt 0.4281271 0.8148371
vt 0.03506156 0.3946445
vt 0.03506156 0.3654533
vt 0.003132784 0.368817
vt 0.003132784 0.368817
vt 0.03506156 0.3654533
vt 0.03506162 0.3307869
vt 0.06699034 0.368817
vt 0.03506156 0.3654533
vt 0.03506156 0.3946445
vt 0.03506162 0.3307869
vt 0.03506156 0.3654533
vt 0.06699034 0.368817
vn -0.9863649 0 0.1645731
vn -0.7036503 0 0.7105465
vn 0.4346189 -0.8978403 0.0706348
vn -0.9745765 0 0.2240553
vn 0.3025076 0 0.9531469
vn -0.9547003 0 0.2975692
vn 0.1615633 -0.9766886 0.1413395
vn 0.9999232 0 -0.01238988
vn 0.9897369 0 0.1429023
vn 0.9997739 0 0.02126292
vn -0.9828254 0 0.1845378
vn 0.1117532 -0.9870909 0.1147285
vn 0.9857594 1.014665E-07 0.1681617
vn -0.9931417 0 0.1169177
vn -0.9863649 0 0.1645731
vn 0.4346189 0.8978402 0.07063481
vn -0.7036503 0 0.7105465
vn -0.9745765 0 0.2240553
vn -0.9547003 0 0.2975692
vn 0.1615633 0.9766886 0.1413395
vn 0.9999232 0 -0.01238988
vn 0.9897369 0 0.1429023
vn 0.9997739 0 0.02126292
vn -0.9828254 0 0.1845378
vn 0.1117533 0.9870909 0.1147285
vn 0.9857594 1.014665E-07 0.1681617
vn -0.9931417 0 0.1169177
vn 0.3025076 0 0.9531469
vn 0.3816357 -0.1058553 -0.9182314
vn 0.3816357 -0.1058553 -0.9182314
vn 0.3816357 -0.1058553 -0.9182314
vn -0.407974 -0.1816228 -0.8947459
vn -0.407974 -0.1816228 -0.8947459
vn -0.407974 -0.1816228 -0.8947459
vn 0.3816357 0.1058553 -0.9182314
vn 0.3816357 0.1058553 -0.9182314
vn 0.3816357 0.1058553 -0.9182314
vn -0.4079741 0.1816228 -0.8947459
vn -0.4079741 0.1816228 -0.8947459
vn -0.4079741 0.1816229 -0.8947459
f 3/3/3 2/2/2 1/1/1
f 4/4/4 3/3/3 1/1/1
f 3/3/3 5/5/5 2/2/2
f 3/3/3 4/4/4 6/6/6
f 7/7/7 3/3/3 6/6/6
f 3/3/3 7/7/7 8/8/8
f 8/8/8 7/7/7 9/9/9
f 10/10/10 3/3/3 8/8/8
f 10/10/10 5/5/5 3/3/3
f 11/11/11 7/7/7 6/6/6
f 12/12/12 7/7/7 11/11/11
f 7/7/7 12/12/12 9/9/9
f 9/9/9 12/12/12 13/13/13
f 14/14/14 12/12/12 11/11/11
f 17/17/17 16/16/16 15/15/15
f 16/16/16 18/18/18 15/15/15
f 18/18/18 16/16/16 19/19/19
f 16/16/16 20/20/20 19/19/19
f 20/20/20 16/16/16 21/21/21
f 20/20/20 21/21/21 22/22/22
f 16/16/16 23/23/23 21/21/21
f 20/20/20 24/24/24 19/19/19
f 20/20/20 25/25/25 24/24/24
f 25/25/25 20/20/20 22/22/22
f 25/25/25 22/22/22 26/26/26
f 25/25/25 27/27/27 24/24/24
f 16/16/16 17/17/17 28/28/28
f 28/28/28 23/23/23 16/16/16
f 31/31/31 30/30/30 29/29/29
f 34/34/34 33/33/33 32/32/32
f 37/37/37 36/36/36 35/35/35
f 40/40/40 39/39/39 38/38/38
