g Plane01
v -1.2 -1.09813 -1.306132E-08
v -0.992636 -0.8968534 -1.06673E-08
v -0.992636 -0.4484267 -5.333652E-09
v -1.2 -0.5490652 -6.530662E-09
v -1.058592 -1.2 -1.427298E-08
v -0.8595401 -0.998723 -1.187896E-08
v -0.992636 8.950045E-22 0
v -1.2 8.950045E-22 0
v -0.992636 0.4484267 5.333652E-09
v -1.2 0.5490652 6.530662E-09
v -0.992636 0.8968534 1.06673E-08
v -1.2 1.09813 1.306132E-08
v -0.8567681 0.998723 1.187896E-08
v -1.058592 1.2 1.427298E-08
v 0 0.998723 1.187896E-08
v 0 1.2 1.427298E-08
v 0.8539996 0.998723 1.187896E-08
v 1.058592 1.2 1.427298E-08
v 0.9926384 0.8968534 1.06673E-08
v 1.2 1.09813 1.306132E-08
v 0.9926384 0.4484267 5.333652E-09
v 1.2 0.5490652 6.530662E-09
v 0.9926384 8.950045E-22 0
v 1.2 8.950045E-22 0
v 0.9926384 -0.4484267 -5.333652E-09
v 1.2 -0.5490652 -6.530662E-09
v 0.9926384 -0.8968534 -1.06673E-08
v 1.2 -1.09813 -1.306132E-08
v 1.058592 -1.2 -1.427298E-08
v 0.8539987 -0.998723 -1.187896E-08
v 0 -0.998723 -1.187896E-08
v 0 -1.2 -1.427298E-08
v 1.2 -1.09813 -1.306132E-08
v 0.9926384 -0.8968534 -1.06673E-08
vt 0.01680581 0.7688747
vt 0.982115 0.7688747
vt 0.982115 0.699728
vt 0.01680581 0.699728
vt 0.01680581 0.7984175
vt 0.982115 0.7984175
vt 0.982115 0.6305811
vt 0.01680581 0.6305811
vt 0.982115 0.5614343
vt 0.01680581 0.5614343
vt 0.982115 0.4947757
vt 0.01680581 0.4947757
vt 0.982115 0.4714414
vt 0.01680581 0.4714414
vt 0.982115 0.4045312
vt 0.01680581 0.4045312
vt 0.982115 0.2795078
vt 0.01680581 0.2795078
vt 0.982115 0.2558769
vt 0.01680581 0.2558769
vt 0.982115 0.2048546
vt 0.01680581 0.2048546
vt 0.982115 0.1359398
vt 0.01680581 0.1359398
vt 0.982115 0.06702518
vt 0.01680581 0.06702518
vt 0.982115 -0.001889467
vt 0.01680581 -0.001889467
vt 0.01680581 0.9755362
vt 0.982115 0.9755362
vt 0.982115 0.8504664
vt 0.01680581 0.8504664
vt 0.01680581 0.9992834
vt 0.982115 0.9992834
vn 0 0 -1
vn 0 0 -1
vn 0 0 -1
vn 0 0 -1
vn 0 0 -1
vn 0 0 -1
vn 0 0 -1
vn 0 0 -1
vn 0 0 -1
vn 0 0 -1
vn 0 0 -1
vn 0 0 -1
vn 0 0 -1
vn 0 0 -1
vn 0 0 -1
vn 0 0 -1
vn 0 0 -1
vn 0 0 -1
vn 0 0 -1
vn 0 0 -1
vn 0 0 -1
vn 0 0 -1
vn 0 0 -1
vn 0 0 -1
vn 0 0 -1
vn 0 0 -1
vn 0 0 -1
vn 0 0 -1
vn 0 0 -1
vn 0 0 -1
vn 0 0 -1
vn 0 0 -1
vn 0 0 -1
vn 0 0 -1
f 3/3/3 2/2/2 1/1/1
f 4/4/4 3/3/3 1/1/1
f 1/1/1 2/2/2 5/5/5
f 2/2/2 6/6/6 5/5/5
f 7/7/7 3/3/3 4/4/4
f 8/8/8 7/7/7 4/4/4
f 9/9/9 7/7/7 8/8/8
f 10/10/10 9/9/9 8/8/8
f 11/11/11 9/9/9 10/10/10
f 12/12/12 11/11/11 10/10/10
f 13/13/13 11/11/11 12/12/12
f 14/14/14 13/13/13 12/12/12
f 15/15/15 13/13/13 14/14/14
f 16/16/16 15/15/15 14/14/14
f 17/17/17 15/15/15 16/16/16
f 18/18/18 17/17/17 16/16/16
f 19/19/19 17/17/17 18/18/18
f 20/20/20 19/19/19 18/18/18
f 21/21/21 19/19/19 20/20/20
f 22/22/22 21/21/21 20/20/20
f 23/23/23 21/21/21 22/22/22
f 24/24/24 23/23/23 22/22/22
f 25/25/25 23/23/23 24/24/24
f 26/26/26 25/25/25 24/24/24
f 27/27/27 25/25/25 26/26/26
f 28/28/28 27/27/27 26/26/26
f 31/31/31 30/30/30 29/29/29
f 32/32/32 31/31/31 29/29/29
f 29/29/29 30/30/30 33/33/33
f 30/30/30 34/34/34 33/33/33
f 6/6/6 31/31/31 32/32/32
f 5/5/5 6/6/6 32/32/32
