g Tripitakahand_R
v 0.1886618 0.08779693 -0.8959039
v 0.2358835 -0.12692 -0.6499426
v 0.2556784 0.09987304 -0.6826224
v 0.1763595 -0.1279301 -0.8302338
v 0.134725 0.2792544 -0.8577151
v 0.1973203 0.3152048 -0.6594988
v 0.05041473 0.4235387 -0.7591482
v 0.1886618 0.08779693 -0.8959039
v 0.04782257 -0.1128218 -0.8943717
v 0.05226349 0.08841369 -0.9598442
v 0.134725 0.2792544 -0.8577151
v 0.0466098 0.2825217 -0.9148027
v 0.1763595 -0.1279301 -0.8302338
v 0.04782257 -0.1128218 -0.8943717
v 0.0370871 -0.2856557 -0.7650378
v -0.1143295 -0.1439102 -0.8392987
v -0.1157199 0.07792801 -0.8999506
v 0.05226349 0.08841369 -0.9598442
v -0.1260147 0.3447083 -0.82363
v 0.0466098 0.2825217 -0.9148027
v 0.05041473 0.4235387 -0.7591482
v 0.1765866 -0.2266748 -0.6115175
v 0.2358835 -0.12692 -0.6499426
v -0.2209732 -0.2265314 -0.02299263
v -0.185535 -0.243736 -0.3138629
v -0.2290689 -0.01171036 -0.01360901
v -0.00740509 -0.1193031 0.04795898
v -0.2208121 0.05374984 -0.3064777
v -0.2254373 0.07034683 -0.6354536
v -0.2182327 -0.185695 -0.6395024
v -0.2010287 -0.4426895 -0.4357028
v -0.1143295 -0.1439102 -0.8392987
v -0.1947964 -0.3225517 -0.6373351
v -0.1157199 0.07792801 -0.8999506
v -0.1260147 0.3447083 -0.82363
v -0.1981296 0.3873025 -0.6071851
v 0.05041473 0.4235387 -0.7591482
v -0.01680817 0.5112393 -0.5431759
v -0.2250461 0.1937559 -0.03259537
v 0.001860657 0.09268905 0.02887947
v -0.2365945 0.3972646 -0.3172011
v -0.25082 0.4047314 -0.06088348
v -0.01761261 0.300389 0.00179184
v -0.0917514 0.5024251 -0.05877785
v -0.011987 -0.5112393 -0.4305551
v 0.01414703 -0.3877743 -0.633197
v 0.1765866 -0.2266748 -0.6115175
v 0.137836 -0.2935765 -0.3828461
v 0.1831992 -0.160365 -0.3371837
v 0.2358835 -0.12692 -0.6499426
v 0.2556784 0.09987304 -0.6826224
v 0.2065335 0.08324798 -0.3542758
v 0.1973203 0.3152048 -0.6594988
v 0.1473538 0.3492071 -0.3891606
v 0.1076096 -0.01174408 0.04662224
v 0.07667205 -0.2124968 0.04977348
v 0.06505707 -0.3211818 -0.1598347
v 0.08753448 0.1912862 0.0103138
v 0.04246368 0.3884405 -0.01818977
v -0.00740509 -0.1193031 0.04795898
v -0.01680817 0.5112393 -0.5431759
v -0.0917514 0.5024251 -0.05877785
v -0.01761261 0.300389 0.00179184
v 0.001860657 0.09268905 0.02887947
v 0.0001602173 -0.3346374 -0.00686943
v 0.05041473 0.4235387 -0.7591482
v -0.2373221 -0.2292534 0.3726765
v -0.00740509 -0.1193031 0.04795898
v -0.04195465 -0.1197346 0.3724333
v -0.2209732 -0.2265314 -0.02299263
v -0.241116 -0.2250139 0.6412258
v -0.06071319 -0.1251826 0.6193712
v -0.07195343 -0.1342285 0.8215949
v -0.04971527 -0.3360045 0.3690591
v 0.0001602173 -0.3346374 -0.00686943
v -0.0694162 -0.3218722 0.6177451
v -0.08225372 -0.306272 0.8189093
v 0.07667205 -0.2124968 0.04977348
v 0.0114328 -0.2311676 0.3648445
v -0.02154327 -0.2269876 0.6163581
v -0.06071319 -0.1251826 0.6193712
v -0.04195465 -0.1197346 0.3724333
v -0.00740509 -0.1193031 0.04795898
v -0.07195343 -0.1342285 0.8215949
v -0.1954141 -0.2193852 0.8218297
v -0.07450958 -0.2153995 0.8701543
v -0.04703949 -0.2196576 0.8179519
v -0.07450958 -0.2153995 0.8701543
v -0.2526456 -0.01438034 0.3862389
v 0.001860657 0.09268905 0.02887947
v -0.03419159 0.09122955 0.3578891
v -0.2290689 -0.01171036 -0.01360901
v -0.2377353 -0.01450607 0.7518508
v -0.07001556 0.08856583 0.669593
v -0.08971344 0.07425857 0.9103001
v -0.03042267 -0.1259724 0.3571704
v -0.00740509 -0.1193031 0.04795898
v -0.06745331 -0.124511 0.6694321
v -0.0952243 -0.1107951 0.9080555
v 0.1076096 -0.01174408 0.04662224
v 0.03422455 -0.01495285 0.3586501
v -0.01170746 -0.01505493 0.6663228
v -0.07001556 0.08856583 0.669593
v -0.03419159 0.09122955 0.3578891
v 0.001860657 0.09268905 0.02887947
v -0.08971344 0.07425857 0.9103001
v -0.1931686 -0.01407227 0.9093429
v -0.08138824 -0.01452713 0.9598442
v -0.06338593 -0.01455414 0.9169214
v -0.08138824 -0.01452713 0.9598442
v -0.2436856 0.1902641 0.3581339
v -0.01761261 0.300389 0.00179184
v -0.06096649 0.2948268 0.3517092
v -0.2250461 0.1937559 -0.03259537
v -0.1005643 0.284036 0.5988592
v -0.2382382 0.1901613 0.660179
v -0.0855429 0.2694404 0.7849091
v -0.03937103 0.08904007 0.3516653
v 0.001860657 0.09268905 0.02887947
v -0.06945831 0.0903743 0.598787
v -0.09852874 0.1026712 0.7846525
v 0.08753448 0.1912862 0.0103138
v 0.01300384 0.1898589 0.353438
v -0.02712494 0.1897464 0.593554
v -0.1005643 0.284036 0.5988592
v -0.06096649 0.2948268 0.3517092
v -0.01761261 0.300389 0.00179184
v -0.0855429 0.2694404 0.7849091
v -0.2043625 0.1895113 0.7853866
v -0.08074921 0.1901179 0.8298455
v -0.05222259 0.1892242 0.7842051
v -0.08074921 0.1901179 0.8298455
v -0.2556784 0.385527 0.2975116
v -0.0917514 0.5024251 -0.05877785
v -0.1145413 0.4810857 0.2909615
v -0.25082 0.4047314 -0.06088348
v -0.1148428 0.470374 0.4587867
v -0.2504916 0.379759 0.5003045
v -0.1162717 0.4482101 0.6511976
v -0.06320709 0.2990036 0.2921737
v -0.01761261 0.300389 0.00179184
v -0.08345978 0.2958236 0.4588378
v -0.1018008 0.3011238 0.6521714
v -0.02238068 0.3850217 0.2960372
v -0.04539825 0.3833029 0.4564178
v -0.08345978 0.2958236 0.4588378
v -0.06320709 0.2990036 0.2921737
v -0.1018008 0.3011238 0.6521714
v 0.04246368 0.3884405 -0.01818977
v -0.01761261 0.300389 0.00179184
v -0.2054977 0.3799213 0.659367
v -0.1112906 0.3790132 0.6758716
v -0.07489044 0.3791733 0.6360591
v -0.1112906 0.3790132 0.6758716
v 0.03457611 -0.3481368 -0.04522873
v -0.1315793 -0.2982875 -0.1325548
v 0.06505707 -0.3211818 -0.1598347
v -0.1211038 -0.3335379 -0.01720993
v -0.1841275 -0.4211647 -0.05871536
v -0.1928622 -0.4143927 -0.1968748
v 0.001809997 -0.3989366 0.1149972
v -0.05507477 -0.4884005 0.1089387
v -0.05081024 -0.4728973 -0.06796028
v -0.05211456 -0.4789342 0.1586039
v -0.1600253 -0.4519391 0.1247528
v -0.09258453 -0.3924193 0.1335387
v -0.05211456 -0.4789342 0.1586039
v -0.1600253 -0.4519391 0.1247528
v -0.1841275 -0.4211647 -0.05871536
v -0.1928622 -0.4143927 -0.1968748
v -0.04074921 -0.4873441 -0.1978081
v -0.011987 -0.5112393 -0.4305551
v -0.2010287 -0.4426895 -0.4357028
v 0.137836 -0.2935765 -0.3828461
v -0.185535 -0.243736 -0.3138629
v -0.2010287 -0.4426895 -0.4357028
v -0.2209732 -0.2265314 -0.02299263
v 0.0001602173 -0.3346374 -0.00686943
v -0.185535 -0.243736 -0.3138629
v -0.1315793 -0.2982875 -0.1325548
v -0.185535 -0.243736 -0.3138629
v 0.06505707 -0.3211818 -0.1598347
v -0.185535 -0.243736 -0.3138629
v 0.0001602173 -0.3346374 -0.00686943
v 0.06505707 -0.3211818 -0.1598347
v 0.0370871 -0.2856557 -0.7650378
vt 0.2327671 0.1109461
vt 0.3078174 0.1746777
vt 0.2269658 0.1765419
vt 0.2965984 0.1179879
vt 0.1754328 0.1038945
vt 0.1485167 0.161429
vt 0.1172653 0.0945816
vt 0.2327671 0.1109461
vt 0.2935986 0.07528009
vt 0.2327398 0.06934511
vt 0.1754328 0.1038945
vt 0.1766183 0.07433116
vt 0.2965984 0.1179879
vt 0.2935986 0.07528009
vt 0.357838 0.09086236
vt 0.3158951 0.02774472
vt 0.2360788 0.01756772
vt 0.2327398 0.06934511
vt 0.1408385 0.0253703
vt 0.1766183 0.07433116
vt 0.1172653 0.0945816
vt 0.3509859 0.1646708
vt 0.3078174 0.1746777
vt 0.2627084 0.6089634
vt 0.3145895 0.6902505
vt 0.1947419 0.6338643
vt 0.2041919 0.5510331
vt 0.2123889 0.7330416
vt 0.2525067 0.841832
vt 0.3375472 0.8071368
vt 0.3976952 0.6999164
vt 0.3652969 0.8844034
vt 0.3845952 0.7868721
vt 0.286503 0.9321208
vt 0.1583403 0.9316802
vt 0.1379036 0.8772416
vt 0.09731369 0.97987
vt 0.06722374 0.8938356
vt 0.1320698 0.6681243
vt 0.1270921 0.5839085
vt 0.1090488 0.7818727
vt 0.07093739 0.7061721
vt 0.07030796 0.6216847
vt 0.01532236 0.7272649
vt 0.4672824 0.719877
vt 0.4747435 0.7948924
vt 0.5613431 0.8274932
vt 0.5674875 0.7402132
vt 0.6088707 0.7692215
vt 0.5727555 0.8876857
vt 0.6469838 0.9105275
vt 0.6811931 0.8088347
vt 0.7089161 0.9324353
vt 0.7671396 0.8465123
vt 0.7043852 0.6631082
vt 0.6448073 0.6327606
vt 0.5808796 0.6790612
vt 0.7647256 0.6966482
vt 0.8279059 0.7232623
vt 0.6808918 0.617783
vt 0.851409 0.9092588
vt 0.8862045 0.7421971
vt 0.8148713 0.6913864
vt 0.7517467 0.6558698
vt 0.589359 0.6167508
vt 0.7693843 0.9632752
vt 0.5429969 0.1562203
vt 0.6320121 0.05236081
vt 0.6125594 0.1654014
vt 0.5578625 0.02126395
vt 0.5306302 0.242017
vt 0.5904776 0.2545396
vt 0.5547838 0.324048
vt 0.4769675 0.1468496
vt 0.4783373 0.01611578
vt 0.4738408 0.2328188
vt 0.4766037 0.304196
vt 0.4297558 0.03255989
vt 0.4372298 0.1442601
vt 0.4395826 0.2332333
vt 0.4031747 0.2375299
vt 0.3967965 0.1506995
vt 0.3909275 0.03772324
vt 0.4134266 0.3082009
vt 0.5188804 0.2947775
vt 0.5128046 0.3319595
vt 0.443706 0.3031999
vt 0.4438766 0.3231338
vt 0.2162977 0.3586434
vt 0.3455079 0.2840928
vt 0.2870912 0.385178
vt 0.2778049 0.2365912
vt 0.1575894 0.4637648
vt 0.2203278 0.4779594
vt 0.1538859 0.5389129
vt 0.1531407 0.3145528
vt 0.1977367 0.2172244
vt 0.1142224 0.4154257
vt 0.08848698 0.4953606
vt 0.1541197 0.1935319
vt 0.1151865 0.2977972
vt 0.07814973 0.4000043
vt 0.0397346 0.3910219
vt 0.07549153 0.2870158
vt 0.1108123 0.1779862
vt 0.02268561 0.4746718
vt 0.1308512 0.5030666
vt 0.1116771 0.5339684
vt 0.05367323 0.4848772
vt 0.04891763 0.5000197
vt 0.8761283 0.1653443
vt 0.974823 0.05937928
vt 0.9398618 0.178108
vt 0.9039082 0.03443774
vt 0.9031553 0.2626878
vt 0.8516617 0.2602472
vt 0.8670128 0.3255142
vt 0.8077382 0.1477795
vt 0.8215117 0.03626407
vt 0.7983823 0.2329464
vt 0.7974176 0.299229
vt 0.7827858 0.02167716
vt 0.7711256 0.1428854
vt 0.7640775 0.2280709
vt 0.7240956 0.2303517
vt 0.7287201 0.1427865
vt 0.7349133 0.02078123
vt 0.7336391 0.2958024
vt 0.8384804 0.2921172
vt 0.8272662 0.329139
vt 0.7634222 0.2941801
vt 0.7627903 0.3120846
vt 0.4261802 0.5191297
vt 0.49647 0.4011731
vt 0.4770021 0.5207112
vt 0.4378211 0.3969346
vt 0.4712755 0.5781766
vt 0.4243957 0.5837475
vt 0.4576862 0.6447225
vt 0.3616886 0.5172397
vt 0.354883 0.4139569
vt 0.3687917 0.5803238
vt 0.3926632 0.6495726
vt 0.5211064 0.5306249
vt 0.5063505 0.5862156
vt 0.5342206 0.5970767
vt 0.5511239 0.5409407
vt 0.5104259 0.6608925
vt 0.5521473 0.4241641
vt 0.5805238 0.4435801
vt 0.4264989 0.6311362
vt 0.4278633 0.6570299
vt 0.486322 0.6451874
vt 0.4800798 0.6621972
vt 0.7808717 0.4907541
vt 0.7346292 0.4383708
vt 0.8085947 0.4625319
vt 0.7216924 0.4780954
vt 0.681611 0.4616131
vt 0.6859298 0.4138055
vt 0.7427706 0.5391491
vt 0.7666756 0.5758015
vt 0.8186399 0.542148
vt 0.7510717 0.5830209
vt 0.7807602 0.6112742
vt 0.7073635 0.5305241
vt 0.7008795 0.5616341
vt 0.6779246 0.5266318
vt 0.8411382 0.590091
vt 0.8853868 0.5794666
vt 0.860594 0.5222703
vt 0.9291843 0.4776126
vt 0.9631575 0.5492603
vt 0.8451441 0.4068956
vt 0.7494855 0.3699011
vt 0.6732504 0.3325027
vt 0.2627084 0.6089634
vt 0.317485 0.5731611
vt 0.3145895 0.6902505
vt 0.7346292 0.4383708
vt 0.7494855 0.3699011
vt 0.8085947 0.4625319
vt 0.7494855 0.3699011
vt 0.8339309 0.411161
vt 0.8085947 0.4625319
vt 0.4873621 0.8621562
vn 0.7368091 0.03654675 -0.6751124
vn 0.9465172 -0.3115717 -0.08383425
vn 0.9910436 0.09323752 -0.09559972
vn 0.6857378 -0.4374175 -0.5817469
vn 0.6762546 0.4583654 -0.5766984
vn 0.8627548 0.4955859 -0.1002437
vn 0.2441958 0.8717417 -0.4247762
vn 0.7368091 0.03654675 -0.6751124
vn 0.06876408 -0.4272751 -0.9015029
vn 0.05512688 -0.01565811 -0.9983566
vn 0.6762546 0.4583654 -0.5766984
vn 0.09403613 0.4446683 -0.8907454
vn 0.6857378 -0.4374175 -0.5817469
vn 0.06876408 -0.4272751 -0.9015029
vn 0.1701819 -0.759506 -0.6278445
vn -0.5694109 -0.3697111 -0.734224
vn -0.6489008 -0.02089615 -0.760586
vn 0.05512688 -0.01565811 -0.9983566
vn -0.5944069 0.5384584 -0.5972797
vn 0.09403613 0.4446683 -0.8907454
vn 0.2441958 0.8717417 -0.4247762
vn 0.8042254 -0.577652 -0.1397841
vn 0.9465172 -0.3115717 -0.08383425
vn -0.967502 -0.08823648 0.2369688
vn -0.9981098 0.009862262 0.06065911
vn -0.9282364 0.007343883 0.3719182
vn 0.1999174 -0.06256318 0.9778133
vn -0.9973221 -0.07266202 -0.008297417
vn -0.9789532 -0.006294046 -0.2039879
vn -0.9725028 -0.07371107 -0.2209185
vn -0.7680336 -0.627861 -0.1261546
vn -0.5694109 -0.3697111 -0.734224
vn -0.6935466 -0.5290334 -0.4889958
vn -0.6489008 -0.02089615 -0.760586
vn -0.5944069 0.5384584 -0.5972797
vn -0.7940317 0.5447929 -0.269656
vn 0.2441958 0.8717417 -0.4247762
vn 0.08377776 0.9858182 -0.145409
vn -0.9111537 0.03189964 0.41083
vn 0.332876 0.08240195 0.9393633
vn -0.8794886 0.4717956 -0.06252033
vn -0.9313846 0.3143803 0.1835422
vn 0.3936515 0.1183819 0.9116053
vn 0.04540734 0.9977065 0.0501978
vn 0.2605286 -0.9551325 -0.1408789
vn 0.2407233 -0.8098868 -0.5349165
vn 0.8042254 -0.577652 -0.1397841
vn 0.8743721 -0.4730202 0.1082835
vn 0.9541458 -0.242383 0.1756596
vn 0.9465172 -0.3115717 -0.08383425
vn 0.9910436 0.09323752 -0.09559972
vn 0.9777434 0.08051363 0.1937408
vn 0.8627548 0.4955859 -0.1002437
vn 0.8467638 0.5125824 0.1423037
vn 0.9047974 0.03125793 0.4246936
vn 0.921055 -0.1818856 0.3443475
vn 0.9057249 -0.3456366 0.2453524
vn 0.8885721 0.1852524 0.4196679
vn 0.8505058 0.4271006 0.3069609
vn 0.1999174 -0.06256318 0.9778133
vn 0.08377776 0.9858182 -0.145409
vn 0.04540734 0.9977065 0.0501978
vn 0.3936515 0.1183819 0.9116053
vn 0.332876 0.08240195 0.9393633
vn 0.464503 -0.8746849 0.138432
vn 0.2441958 0.8717417 -0.4247762
vn -0.9993152 0.001100245 -0.03698639
vn 0.1999174 -0.06256318 0.9778133
vn 0.2774577 0.958617 0.06380066
vn -0.967502 -0.08823648 0.2369688
vn -0.9977422 0.003072209 0.06708977
vn 0.3290236 0.9423141 0.06154399
vn 0.2796261 0.844293 0.4571418
vn 0.2446214 -0.9672199 0.06816165
vn 0.464503 -0.8746849 0.138432
vn 0.2796818 -0.9559326 0.08927992
vn 0.2176517 -0.8497666 0.4801296
vn 0.921055 -0.1818856 0.3443475
vn 0.9860238 -0.05612865 0.1568651
vn 0.991959 -0.05230726 0.1152441
vn 0.3290236 0.9423141 0.06154399
vn 0.2774577 0.958617 0.06380066
vn 0.1999174 -0.06256318 0.9778133
vn 0.2796261 0.844293 0.4571418
vn -0.8270074 0.03108387 0.5613311
vn 0.2971269 0.01175467 0.9547656
vn 0.9556044 -0.05281419 0.2898807
vn 0.2971269 0.01175467 0.9547656
vn -0.9991311 0.02004167 -0.03654261
vn 0.332876 0.08240195 0.9393633
vn 0.2424284 0.9676281 0.0701727
vn -0.9282364 0.007343883 0.3719182
vn -0.9974642 0.02168048 0.06778611
vn 0.2288875 0.9718939 0.05507099
vn 0.2062136 0.8457856 0.4920596
vn 0.2683671 -0.961654 0.05657455
vn 0.1999174 -0.06256318 0.9778133
vn 0.261964 -0.9611748 0.08670547
vn 0.1649632 -0.8538385 0.4937073
vn 0.9047974 0.03125793 0.4246936
vn 0.983284 0.02029124 0.1809444
vn 0.9888327 0.01703403 0.1480533
vn 0.2288875 0.9718939 0.05507099
vn 0.2424284 0.9676281 0.0701727
vn 0.332876 0.08240195 0.9393633
vn 0.2062136 0.8457856 0.4920596
vn -0.8228384 0.03028303 0.567468
vn 0.3406047 0.0005218176 0.9402065
vn 0.9553452 -0.01674858 0.2950169
vn 0.3406047 0.0005218176 0.9402065
vn -0.997999 -0.02703075 -0.05716108
vn 0.3936515 0.1183819 0.9116053
vn 0.2057078 0.9757289 0.07508274
vn -0.9111537 0.03189964 0.41083
vn 0.1237333 0.9902629 0.06379218
vn -0.9944892 -0.005314521 0.1047045
vn 0.2418329 0.8468165 0.4737286
vn 0.2958958 -0.9530985 0.0636308
vn 0.332876 0.08240195 0.9393633
vn 0.3131074 -0.9441472 0.102712
vn 0.1467512 -0.8650229 0.4797911
vn 0.8885721 0.1852524 0.4196679
vn 0.9798331 0.07371954 0.1857214
vn 0.9848901 0.1093589 0.1342841
vn 0.1237333 0.9902629 0.06379218
vn 0.2057078 0.9757289 0.07508274
vn 0.3936515 0.1183819 0.9116053
vn 0.2418329 0.8468165 0.4737286
vn -0.8155326 0.03946714 0.5773637
vn 0.3134219 0.003819568 0.9496062
vn 0.9462306 -0.04729585 0.3200168
vn 0.3134219 0.003819568 0.9496062
vn -0.9967582 -0.07936646 -0.01319916
vn 0.04540734 0.9977065 0.0501978
vn 0.0796719 0.9936959 0.07887327
vn -0.9313846 0.3143803 0.1835422
vn 0.1480424 0.9841691 0.09744013
vn -0.9938782 -0.04791667 0.0995498
vn 0.1827907 0.8197169 0.5428184
vn 0.3285808 -0.9432198 0.0486948
vn 0.3936515 0.1183819 0.9116053
vn 0.3317821 -0.9418515 0.05325823
vn 0.2631805 -0.8003414 0.5386926
vn 0.9754449 0.1548768 0.1565901
vn 0.9829541 0.1290239 0.1309733
vn 0.3317821 -0.9418515 0.05325823
vn 0.3285808 -0.9432198 0.0486948
vn 0.2631805 -0.8003414 0.5386926
vn 0.8505058 0.4271006 0.3069609
vn 0.3936515 0.1183819 0.9116053
vn -0.7708843 0.002065036 0.6369719
vn 0.2891296 0.04091352 0.9564153
vn 0.9195015 0.09358181 0.3817844
vn 0.2891296 0.04091352 0.9564153
vn 0.8771579 0.3710493 0.304822
vn -0.6469498 0.7020801 0.2975557
vn 0.9057249 -0.3456366 0.2453524
vn -0.4006492 0.8590853 0.3185164
vn -0.9451408 -0.3147856 0.08728637
vn -0.9046516 -0.4028814 0.1388958
vn 0.8023225 0.2919529 0.5206171
vn 0.2946226 -0.9550514 0.0327784
vn 0.2852911 -0.9583579 0.01261485
vn 0.2814721 -0.5520521 0.7848642
vn -0.8092669 -0.282975 0.5147935
vn -0.1925813 0.6624625 0.723917
vn 0.2814721 -0.5520521 0.7848642
vn -0.8092669 -0.282975 0.5147935
vn -0.9451408 -0.3147856 0.08728637
vn -0.9046516 -0.4028814 0.1388958
vn 0.2395244 -0.9616255 0.1338078
vn 0.2605286 -0.9551325 -0.1408789
vn -0.7680336 -0.627861 -0.1261546
vn 0.8743721 -0.4730202 0.1082835
vn -0.9981098 0.009862262 0.06065911
vn -0.7680336 -0.627861 -0.1261546
vn -0.4391767 -0.8984007 -0.0003679674
vn -0.4391767 -0.8984007 -0.0003679674
vn -0.4391767 -0.8984007 -0.0003679674
vn 0.1455977 0.9585114 0.2450659
vn 0.1455977 0.9585114 0.2450659
vn 0.1455977 0.9585114 0.2450659
vn -0.1954156 -0.9662409 -0.1679026
vn -0.1954156 -0.9662409 -0.1679026
vn -0.1954156 -0.9662409 -0.1679026
vn 0.1701819 -0.759506 -0.6278445
f 3/3/3 2/2/2 1/1/1
f 4/4/4 1/1/1 2/2/2
f 1/1/1 5/5/5 3/3/3
f 6/6/6 3/3/3 5/5/5
f 7/7/7 6/6/6 5/5/5
f 4/4/4 9/9/9 8/8/8
f 10/10/10 8/8/8 9/9/9
f 8/8/8 10/10/10 11/11/11
f 12/12/12 11/11/11 10/10/10
f 7/7/7 11/11/11 12/12/12
f 15/15/15 14/14/14 13/13/13
f 15/15/15 16/16/16 14/14/14
f 16/16/16 17/17/17 14/14/14
f 18/18/18 14/14/14 17/17/17
f 17/17/17 19/19/19 18/18/18
f 20/20/20 18/18/18 19/19/19
f 19/19/19 21/21/21 20/20/20
f 22/22/22 15/15/15 13/13/13
f 23/23/23 22/22/22 13/13/13
f 26/26/26 25/25/25 24/24/24
f 24/24/24 27/27/27 26/26/26
f 25/25/25 26/26/26 28/28/28
f 28/28/28 29/29/29 25/25/25
f 29/29/29 30/30/30 25/25/25
f 30/30/30 31/31/31 25/25/25
f 30/30/30 29/29/29 32/32/32
f 32/32/32 33/33/33 30/30/30
f 33/33/33 31/31/31 30/30/30
f 34/34/34 32/32/32 29/29/29
f 34/34/34 29/29/29 35/35/35
f 36/36/36 35/35/35 29/29/29
f 35/35/35 36/36/36 37/37/37
f 38/38/38 37/37/37 36/36/36
f 28/28/28 26/26/26 39/39/39
f 26/26/26 40/40/40 39/39/39
f 28/28/28 39/39/39 41/41/41
f 36/36/36 41/41/41 38/38/38
f 28/28/28 41/41/41 29/29/29
f 36/36/36 29/29/29 41/41/41
f 39/39/39 42/42/42 41/41/41
f 39/39/39 43/43/43 42/42/42
f 41/41/41 42/42/42 44/44/44
f 41/41/41 44/44/44 38/38/38
f 33/33/33 45/45/45 31/31/31
f 32/32/32 46/46/46 33/33/33
f 33/33/33 46/46/46 45/45/45
f 47/47/47 45/45/45 46/46/46
f 47/47/47 48/48/48 45/45/45
f 49/49/49 48/48/48 47/47/47
f 49/49/49 47/47/47 50/50/50
f 50/50/50 51/51/51 49/49/49
f 52/52/52 49/49/49 51/51/51
f 51/51/51 53/53/53 52/52/52
f 54/54/54 52/52/52 53/53/53
f 49/49/49 52/52/52 55/55/55
f 49/49/49 55/55/55 56/56/56
f 56/56/56 57/57/57 49/49/49
f 57/57/57 48/48/48 49/49/49
f 58/58/58 55/55/55 52/52/52
f 52/52/52 54/54/54 58/58/58
f 54/54/54 59/59/59 58/58/58
f 55/55/55 60/60/60 56/56/56
f 54/54/54 61/61/61 59/59/59
f 61/61/61 54/54/54 53/53/53
f 62/62/62 59/59/59 61/61/61
f 59/59/59 63/63/63 58/58/58
f 55/55/55 58/58/58 64/64/64
f 56/56/56 65/65/65 57/57/57
f 66/66/66 61/61/61 53/53/53
f 69/69/69 68/68/68 67/67/67
f 70/70/70 67/67/67 68/68/68
f 67/67/67 71/71/71 69/69/69
f 72/72/72 69/69/69 71/71/71
f 71/71/71 73/73/73 72/72/72
f 67/67/67 70/70/70 74/74/74
f 75/75/75 74/74/74 70/70/70
f 74/74/74 76/76/76 67/67/67
f 71/71/71 67/67/67 76/76/76
f 76/76/76 77/77/77 71/71/71
f 78/78/78 74/74/74 75/75/75
f 74/74/74 79/79/79 76/76/76
f 78/78/78 79/79/79 74/74/74
f 80/80/80 76/76/76 79/79/79
f 80/80/80 77/77/77 76/76/76
f 80/80/80 79/79/79 81/81/81
f 82/82/82 81/81/81 79/79/79
f 82/82/82 79/79/79 78/78/78
f 83/83/83 82/82/82 78/78/78
f 81/81/81 84/84/84 80/80/80
f 71/71/71 85/85/85 73/73/73
f 77/77/77 85/85/85 71/71/71
f 85/85/85 86/86/86 73/73/73
f 77/77/77 86/86/86 85/85/85
f 80/80/80 87/87/87 77/77/77
f 84/84/84 87/87/87 80/80/80
f 87/87/87 88/88/88 77/77/77
f 84/84/84 88/88/88 87/87/87
f 91/91/91 90/90/90 89/89/89
f 92/92/92 89/89/89 90/90/90
f 89/89/89 93/93/93 91/91/91
f 94/94/94 91/91/91 93/93/93
f 93/93/93 95/95/95 94/94/94
f 89/89/89 92/92/92 96/96/96
f 97/97/97 96/96/96 92/92/92
f 96/96/96 98/98/98 89/89/89
f 93/93/93 89/89/89 98/98/98
f 98/98/98 99/99/99 93/93/93
f 100/100/100 96/96/96 97/97/97
f 96/96/96 101/101/101 98/98/98
f 100/100/100 101/101/101 96/96/96
f 102/102/102 98/98/98 101/101/101
f 102/102/102 99/99/99 98/98/98
f 102/102/102 101/101/101 103/103/103
f 104/104/104 103/103/103 101/101/101
f 104/104/104 101/101/101 100/100/100
f 105/105/105 104/104/104 100/100/100
f 103/103/103 106/106/106 102/102/102
f 93/93/93 107/107/107 95/95/95
f 99/99/99 107/107/107 93/93/93
f 107/107/107 108/108/108 95/95/95
f 99/99/99 108/108/108 107/107/107
f 102/102/102 109/109/109 99/99/99
f 106/106/106 109/109/109 102/102/102
f 109/109/109 110/110/110 99/99/99
f 106/106/106 110/110/110 109/109/109
f 113/113/113 112/112/112 111/111/111
f 114/114/114 111/111/111 112/112/112
f 113/113/113 111/111/111 115/115/115
f 116/116/116 115/115/115 111/111/111
f 116/116/116 117/117/117 115/115/115
f 111/111/111 114/114/114 118/118/118
f 119/119/119 118/118/118 114/114/114
f 118/118/118 120/120/120 111/111/111
f 116/116/116 111/111/111 120/120/120
f 120/120/120 121/121/121 116/116/116
f 122/122/122 118/118/118 119/119/119
f 118/118/118 123/123/123 120/120/120
f 122/122/122 123/123/123 118/118/118
f 124/124/124 120/120/120 123/123/123
f 124/124/124 121/121/121 120/120/120
f 124/124/124 123/123/123 125/125/125
f 126/126/126 125/125/125 123/123/123
f 126/126/126 123/123/123 122/122/122
f 127/127/127 126/126/126 122/122/122
f 125/125/125 128/128/128 124/124/124
f 116/116/116 129/129/129 117/117/117
f 121/121/121 129/129/129 116/116/116
f 129/129/129 130/130/130 117/117/117
f 121/121/121 130/130/130 129/129/129
f 124/124/124 131/131/131 121/121/121
f 128/128/128 131/131/131 124/124/124
f 131/131/131 132/132/132 121/121/121
f 128/128/128 132/132/132 131/131/131
f 135/135/135 134/134/134 133/133/133
f 136/136/136 133/133/133 134/134/134
f 135/135/135 133/133/133 137/137/137
f 138/138/138 137/137/137 133/133/133
f 138/138/138 139/139/139 137/137/137
f 133/133/133 136/136/136 140/140/140
f 141/141/141 140/140/140 136/136/136
f 140/140/140 142/142/142 133/133/133
f 138/138/138 133/133/133 142/142/142
f 142/142/142 143/143/143 138/138/138
f 135/135/135 137/137/137 144/144/144
f 145/145/145 144/144/144 137/137/137
f 137/137/137 139/139/139 145/145/145
f 145/145/145 146/146/146 144/144/144
f 147/147/147 144/144/144 146/146/146
f 145/145/145 148/148/148 146/146/146
f 144/144/144 149/149/149 135/135/135
f 149/149/149 134/134/134 135/135/135
f 149/149/149 144/144/144 147/147/147
f 149/149/149 147/147/147 150/150/150
f 138/138/138 151/151/151 139/139/139
f 143/143/143 151/151/151 138/138/138
f 151/151/151 152/152/152 139/139/139
f 143/143/143 152/152/152 151/151/151
f 145/145/145 153/153/153 148/148/148
f 139/139/139 153/153/153 145/145/145
f 153/153/153 154/154/154 148/148/148
f 139/139/139 154/154/154 153/153/153
f 157/157/157 156/156/156 155/155/155
f 158/158/158 155/155/155 156/156/156
f 158/158/158 156/156/156 159/159/159
f 160/160/160 159/159/159 156/156/156
f 155/155/155 158/158/158 161/161/161
f 161/161/161 162/162/162 155/155/155
f 163/163/163 155/155/155 162/162/162
f 155/155/155 163/163/163 157/157/157
f 161/161/161 164/164/164 162/162/162
f 162/162/162 164/164/164 165/165/165
f 166/166/166 161/161/161 158/158/158
f 166/166/166 167/167/167 161/161/161
f 168/168/168 167/167/167 166/166/166
f 159/159/159 168/168/168 158/158/158
f 166/166/166 158/158/158 168/168/168
f 163/163/163 162/162/162 169/169/169
f 165/165/165 169/169/169 162/162/162
f 169/169/169 170/170/170 163/163/163
f 171/171/171 163/163/163 170/170/170
f 171/171/171 157/157/157 163/163/163
f 171/171/171 170/170/170 172/172/172
f 173/173/173 172/172/172 170/170/170
f 171/171/171 172/172/172 174/174/174
f 174/174/174 157/157/157 171/171/171
f 176/176/176 160/160/160 175/175/175
f 160/160/160 156/156/156 175/175/175
f 179/179/179 178/178/178 177/177/177
f 182/182/182 181/181/181 180/180/180
f 185/185/185 184/184/184 183/183/183
f 47/47/47 46/46/46 186/186/186
f 32/32/32 186/186/186 46/46/46
